<?xml version="1.0" encoding="UTF-8" standalone="no"?>
<!DOCTYPE svg PUBLIC "-//W3C//DTD SVG 1.1//EN"
 "http://www.w3.org/Graphics/SVG/1.1/DTD/svg11.dtd">
<!-- Generated by graphviz version 2.40.1 (20161225.0304)
 -->
<!-- Title: fst Pages: 1 -->
<svg width="572pt" height="568pt"
 viewBox="0.00 0.00 572.48 568.27" xmlns="http://www.w3.org/2000/svg" xmlns:xlink="http://www.w3.org/1999/xlink">
<g id="graph0" class="graph" transform="scale(1 1) rotate(0) translate(36 532.2734)">
<title>fst</title>
<polygon fill="#ffffff" stroke="transparent" points="-36,36 -36,-532.2734 536.4757,-532.2734 536.4757,36 -36,36"/>
<!-- start -->
<g id="node1" class="node">
<title>start</title>
<ellipse fill="#000000" stroke="#000000" cx="1.8" cy="-203.7367" rx="1.8" ry="1.8"/>
</g>
<!-- 0, λ -->
<g id="node2" class="node">
<title>0, λ</title>
<ellipse fill="none" stroke="#000000" cx="181.3367" cy="-203.7367" rx="28.946" ry="28.946"/>
<ellipse fill="none" stroke="#000000" cx="181.3367" cy="-203.7367" rx="32.9752" ry="32.9752"/>
<text text-anchor="middle" x="181.3367" y="-199.5367" font-family="Times,serif" font-size="14.00" fill="#000000">0, λ</text>
</g>
<!-- start&#45;&gt;0, λ -->
<g id="edge8" class="edge">
<title>start&#45;&gt;0, λ</title>
<path fill="none" stroke="#000000" d="M3.8163,-203.7367C16.8447,-203.7367 90.1116,-203.7367 138.3556,-203.7367"/>
<polygon fill="#000000" stroke="#000000" points="138.5375,-207.2368 148.5375,-203.7367 138.5374,-200.2368 138.5375,-207.2368"/>
</g>
<!-- 0, λ&#45;&gt;0, λ -->
<g id="edge1" class="edge">
<title>0, λ&#45;&gt;0, λ</title>
<path fill="none" stroke="#000000" d="M167.1,-233.4906C156.8372,-268.1677 161.5828,-308.4734 181.3367,-308.4734 199.2387,-308.4734 204.8145,-275.3708 198.0641,-243.3541"/>
<polygon fill="#000000" stroke="#000000" points="201.4153,-242.3293 195.5734,-233.4906 194.6283,-244.0432 201.4153,-242.3293"/>
<text text-anchor="middle" x="181.3367" y="-312.6734" font-family="Times,serif" font-size="14.00" fill="#000000">?:?, i:i</text>
</g>
<!-- 1, λ -->
<g id="node3" class="node">
<title>1, λ</title>
<ellipse fill="none" stroke="#000000" cx="433.5914" cy="-374.7367" rx="28.946" ry="28.946"/>
<ellipse fill="none" stroke="#000000" cx="433.5914" cy="-374.7367" rx="32.9752" ry="32.9752"/>
<text text-anchor="middle" x="433.5914" y="-370.5367" font-family="Times,serif" font-size="14.00" fill="#000000">1, λ</text>
</g>
<!-- 0, λ&#45;&gt;1, λ -->
<g id="edge2" class="edge">
<title>0, λ&#45;&gt;1, λ</title>
<path fill="none" stroke="#000000" d="M208.8126,-222.3622C254.6823,-253.4567 346.8331,-315.9245 397.7445,-350.4366"/>
<polygon fill="#000000" stroke="#000000" points="395.9081,-353.4201 406.1494,-356.1342 399.8359,-347.6259 395.9081,-353.4201"/>
<text text-anchor="middle" x="307.464" y="-302.9367" font-family="Times,serif" font-size="14.00" fill="#000000">ɔ:ɔ</text>
</g>
<!-- 2, λ -->
<g id="node4" class="node">
<title>2, λ</title>
<ellipse fill="none" stroke="#000000" cx="433.5914" cy="-203.7367" rx="28.946" ry="28.946"/>
<ellipse fill="none" stroke="#000000" cx="433.5914" cy="-203.7367" rx="32.9752" ry="32.9752"/>
<text text-anchor="middle" x="433.5914" y="-199.5367" font-family="Times,serif" font-size="14.00" fill="#000000">2, λ</text>
</g>
<!-- 0, λ&#45;&gt;2, λ -->
<g id="edge3" class="edge">
<title>0, λ&#45;&gt;2, λ</title>
<path fill="none" stroke="#000000" d="M214.3146,-203.7367C259.4486,-203.7367 340.5386,-203.7367 390.4518,-203.7367"/>
<polygon fill="#000000" stroke="#000000" points="390.6054,-207.2368 400.6054,-203.7367 390.6053,-200.2368 390.6054,-207.2368"/>
<text text-anchor="middle" x="307.464" y="-207.9367" font-family="Times,serif" font-size="14.00" fill="#000000">ə:ə, u:u</text>
</g>
<!-- 3, λ -->
<g id="node5" class="node">
<title>3, λ</title>
<ellipse fill="none" stroke="#000000" cx="433.5914" cy="-32.7367" rx="28.946" ry="28.946"/>
<ellipse fill="none" stroke="#000000" cx="433.5914" cy="-32.7367" rx="32.9752" ry="32.9752"/>
<text text-anchor="middle" x="433.5914" y="-28.5367" font-family="Times,serif" font-size="14.00" fill="#000000">3, λ</text>
</g>
<!-- 0, λ&#45;&gt;3, λ -->
<g id="edge4" class="edge">
<title>0, λ&#45;&gt;3, λ</title>
<path fill="none" stroke="#000000" d="M208.8126,-185.1112C254.6823,-154.0167 346.8331,-91.5489 397.7445,-57.0368"/>
<polygon fill="#000000" stroke="#000000" points="399.8359,-59.8475 406.1494,-51.3393 395.9081,-54.0534 399.8359,-59.8475"/>
<text text-anchor="middle" x="307.464" y="-131.9367" font-family="Times,serif" font-size="14.00" fill="#000000">a:a</text>
</g>
<!-- 1, λ&#45;&gt;1, λ -->
<g id="edge5" class="edge">
<title>1, λ&#45;&gt;1, λ</title>
<path fill="none" stroke="#000000" d="M416.8315,-403.1563C403.7645,-438.1249 409.3511,-479.4734 433.5914,-479.4734 455.6538,-479.4734 462.2638,-445.221 453.4215,-412.7013"/>
<polygon fill="#000000" stroke="#000000" points="456.7453,-411.6042 450.3512,-403.1563 450.0815,-413.7477 456.7453,-411.6042"/>
<text text-anchor="middle" x="433.5914" y="-483.6734" font-family="Times,serif" font-size="14.00" fill="#000000">?:?, i:i, ɔ:ɔ, ə:ɔ, a:ɔ, u:ɔ</text>
</g>
<!-- 2, λ&#45;&gt;2, λ -->
<g id="edge6" class="edge">
<title>2, λ&#45;&gt;2, λ</title>
<path fill="none" stroke="#000000" d="M416.8315,-232.1563C403.7645,-267.1249 409.3511,-308.4734 433.5914,-308.4734 455.6538,-308.4734 462.2638,-274.221 453.4215,-241.7013"/>
<polygon fill="#000000" stroke="#000000" points="456.7453,-240.6042 450.3512,-232.1563 450.0815,-242.7477 456.7453,-240.6042"/>
<text text-anchor="middle" x="433.5914" y="-312.6734" font-family="Times,serif" font-size="14.00" fill="#000000">?:?, i:i, ə:ə, u:u, a:ə, ɔ:u</text>
</g>
<!-- 3, λ&#45;&gt;3, λ -->
<g id="edge7" class="edge">
<title>3, λ&#45;&gt;3, λ</title>
<path fill="none" stroke="#000000" d="M416.8315,-61.1563C403.7645,-96.1249 409.3511,-137.4734 433.5914,-137.4734 455.6538,-137.4734 462.2638,-103.221 453.4215,-70.7013"/>
<polygon fill="#000000" stroke="#000000" points="456.7453,-69.6042 450.3512,-61.1563 450.0815,-71.7477 456.7453,-69.6042"/>
<text text-anchor="middle" x="433.5914" y="-141.6734" font-family="Times,serif" font-size="14.00" fill="#000000">?:?, i:i, a:a, ə:a, u:ɔ, ɔ:ɔ</text>
</g>
</g>
</svg>
