<?xml version="1.0" encoding="UTF-8" standalone="no"?>
<!DOCTYPE svg PUBLIC "-//W3C//DTD SVG 1.1//EN"
 "http://www.w3.org/Graphics/SVG/1.1/DTD/svg11.dtd">
<!-- Generated by graphviz version 2.40.1 (20161225.0304)
 -->
<!-- Title: fst Pages: 1 -->
<svg width="698pt" height="226pt"
 viewBox="0.00 0.00 698.26 226.27" xmlns="http://www.w3.org/2000/svg" xmlns:xlink="http://www.w3.org/1999/xlink">
<g id="graph0" class="graph" transform="scale(1 1) rotate(0) translate(36 190.2734)">
<title>fst</title>
<polygon fill="#ffffff" stroke="transparent" points="-36,36 -36,-190.2734 662.2622,-190.2734 662.2622,36 -36,36"/>
<!-- start -->
<g id="node1" class="node">
<title>start</title>
<ellipse fill="#000000" stroke="#000000" cx="1.8" cy="-32.7367" rx="1.8" ry="1.8"/>
</g>
<!-- 0, λ -->
<g id="node2" class="node">
<title>0, λ</title>
<ellipse fill="none" stroke="#000000" cx="181.3367" cy="-32.7367" rx="28.946" ry="28.946"/>
<ellipse fill="none" stroke="#000000" cx="181.3367" cy="-32.7367" rx="32.9752" ry="32.9752"/>
<text text-anchor="middle" x="181.3367" y="-28.5367" font-family="Times,serif" font-size="14.00" fill="#000000">0, λ</text>
</g>
<!-- start&#45;&gt;0, λ -->
<g id="edge4" class="edge">
<title>start&#45;&gt;0, λ</title>
<path fill="none" stroke="#000000" d="M3.8163,-32.7367C16.8447,-32.7367 90.1116,-32.7367 138.3556,-32.7367"/>
<polygon fill="#000000" stroke="#000000" points="138.5375,-36.2368 148.5375,-32.7367 138.5374,-29.2368 138.5375,-36.2368"/>
</g>
<!-- 0, λ&#45;&gt;0, λ -->
<g id="edge1" class="edge">
<title>0, λ&#45;&gt;0, λ</title>
<path fill="none" stroke="#000000" d="M167.1,-62.4906C156.8372,-97.1677 161.5828,-137.4734 181.3367,-137.4734 199.2387,-137.4734 204.8145,-104.3708 198.0641,-72.3541"/>
<polygon fill="#000000" stroke="#000000" points="201.4153,-71.3293 195.5734,-62.4906 194.6283,-73.0432 201.4153,-71.3293"/>
<text text-anchor="middle" x="181.3367" y="-141.6734" font-family="Times,serif" font-size="14.00" fill="#000000">?:?, I:I, a:a, ɛ:ɛ, ɔ:ɔ, ʊ:ʊ</text>
</g>
<!-- 1, λ -->
<g id="node3" class="node">
<title>1, λ</title>
<ellipse fill="none" stroke="#000000" cx="500.4736" cy="-32.7367" rx="28.946" ry="28.946"/>
<ellipse fill="none" stroke="#000000" cx="500.4736" cy="-32.7367" rx="32.9752" ry="32.9752"/>
<text text-anchor="middle" x="500.4736" y="-28.5367" font-family="Times,serif" font-size="14.00" fill="#000000">1, λ</text>
</g>
<!-- 0, λ&#45;&gt;1, λ -->
<g id="edge3" class="edge">
<title>0, λ&#45;&gt;1, λ</title>
<path fill="none" stroke="#000000" d="M214.288,-32.7367C272.3681,-32.7367 392.9094,-32.7367 457.4617,-32.7367"/>
<polygon fill="#000000" stroke="#000000" points="457.7016,-36.2368 467.7016,-32.7367 457.7016,-29.2368 457.7016,-36.2368"/>
<text text-anchor="middle" x="340.9051" y="-36.9367" font-family="Times,serif" font-size="14.00" fill="#000000">i:i, e:e, o:o, u:u, ə:ə</text>
</g>
<!-- 1, λ&#45;&gt;1, λ -->
<g id="edge2" class="edge">
<title>1, λ&#45;&gt;1, λ</title>
<path fill="none" stroke="#000000" d="M480.6167,-58.7705C462.7638,-94.2143 469.3827,-137.4734 500.4736,-137.4734 528.8925,-137.4734 536.865,-101.33 524.3909,-68.0491"/>
<polygon fill="#000000" stroke="#000000" points="527.546,-66.5285 520.3304,-58.7705 521.1332,-69.3349 527.546,-66.5285"/>
<text text-anchor="middle" x="500.4736" y="-141.6734" font-family="Times,serif" font-size="14.00" fill="#000000">?:?, e:e, o:o, u:u, ə:ə, i:i, ɛ:e, ɔ:o, ʊ:u, a:ə, I:i</text>
</g>
</g>
</svg>
