<?xml version="1.0" encoding="UTF-8" standalone="no"?>
<!DOCTYPE svg PUBLIC "-//W3C//DTD SVG 1.1//EN"
 "http://www.w3.org/Graphics/SVG/1.1/DTD/svg11.dtd">
<!-- Generated by graphviz version 2.40.1 (20161225.0304)
 -->
<!-- Title: fst Pages: 1 -->
<svg width="659pt" height="397pt"
 viewBox="0.00 0.00 658.75 397.27" xmlns="http://www.w3.org/2000/svg" xmlns:xlink="http://www.w3.org/1999/xlink">
<g id="graph0" class="graph" transform="scale(1 1) rotate(0) translate(36 361.2734)">
<title>fst</title>
<polygon fill="#ffffff" stroke="transparent" points="-36,36 -36,-361.2734 622.7458,-361.2734 622.7458,36 -36,36"/>
<!-- start -->
<g id="node1" class="node">
<title>start</title>
<ellipse fill="#000000" stroke="#000000" cx="1.8" cy="-117.7367" rx="1.8" ry="1.8"/>
</g>
<!-- 0, λ -->
<g id="node2" class="node">
<title>0, λ</title>
<ellipse fill="none" stroke="#000000" cx="181.3367" cy="-117.7367" rx="28.946" ry="28.946"/>
<ellipse fill="none" stroke="#000000" cx="181.3367" cy="-117.7367" rx="32.9752" ry="32.9752"/>
<text text-anchor="middle" x="181.3367" y="-113.5367" font-family="Times,serif" font-size="14.00" fill="#000000">0, λ</text>
</g>
<!-- start&#45;&gt;0, λ -->
<g id="edge6" class="edge">
<title>start&#45;&gt;0, λ</title>
<path fill="none" stroke="#000000" d="M3.8163,-117.7367C16.8447,-117.7367 90.1116,-117.7367 138.3556,-117.7367"/>
<polygon fill="#000000" stroke="#000000" points="138.5375,-121.2368 148.5375,-117.7367 138.5374,-114.2368 138.5375,-121.2368"/>
</g>
<!-- 0, λ&#45;&gt;0, λ -->
<g id="edge1" class="edge">
<title>0, λ&#45;&gt;0, λ</title>
<path fill="none" stroke="#000000" d="M167.1,-147.4906C156.8372,-182.1677 161.5828,-222.4734 181.3367,-222.4734 199.2387,-222.4734 204.8145,-189.3708 198.0641,-157.3541"/>
<polygon fill="#000000" stroke="#000000" points="201.4153,-156.3293 195.5734,-147.4906 194.6283,-158.0432 201.4153,-156.3293"/>
<text text-anchor="middle" x="181.3367" y="-226.6734" font-family="Times,serif" font-size="14.00" fill="#000000">?:?, i:i, e:e</text>
</g>
<!-- 1, λ -->
<g id="node3" class="node">
<title>1, λ</title>
<ellipse fill="none" stroke="#000000" cx="472.4456" cy="-203.7367" rx="28.946" ry="28.946"/>
<ellipse fill="none" stroke="#000000" cx="472.4456" cy="-203.7367" rx="32.9752" ry="32.9752"/>
<text text-anchor="middle" x="472.4456" y="-199.5367" font-family="Times,serif" font-size="14.00" fill="#000000">1, λ</text>
</g>
<!-- 0, λ&#45;&gt;1, λ -->
<g id="edge2" class="edge">
<title>0, λ&#45;&gt;1, λ</title>
<path fill="none" stroke="#000000" d="M212.7671,-127.0219C265.5795,-142.6239 372.1101,-174.0954 430.9852,-191.4884"/>
<polygon fill="#000000" stroke="#000000" points="430.1232,-194.8832 440.7051,-194.3599 432.1064,-188.17 430.1232,-194.8832"/>
<text text-anchor="middle" x="326.8911" y="-174.9367" font-family="Times,serif" font-size="14.00" fill="#000000">y:y, ø:ø, æ:æ</text>
</g>
<!-- 2, λ -->
<g id="node4" class="node">
<title>2, λ</title>
<ellipse fill="none" stroke="#000000" cx="472.4456" cy="-32.7367" rx="28.946" ry="28.946"/>
<ellipse fill="none" stroke="#000000" cx="472.4456" cy="-32.7367" rx="32.9752" ry="32.9752"/>
<text text-anchor="middle" x="472.4456" y="-28.5367" font-family="Times,serif" font-size="14.00" fill="#000000">2, λ</text>
</g>
<!-- 0, λ&#45;&gt;2, λ -->
<g id="edge3" class="edge">
<title>0, λ&#45;&gt;2, λ</title>
<path fill="none" stroke="#000000" d="M211.6456,-104.642C232.3488,-96.018 260.5499,-84.8925 286.0734,-76.9367 334.6802,-61.7857 391.8093,-48.9477 429.8809,-41.0753"/>
<polygon fill="#000000" stroke="#000000" points="430.994,-44.4202 440.0907,-38.9887 429.5924,-37.562 430.994,-44.4202"/>
<text text-anchor="middle" x="326.8911" y="-81.9367" font-family="Times,serif" font-size="14.00" fill="#000000">u:u, o:o, ɑ:ɑ</text>
</g>
<!-- 1, λ&#45;&gt;1, λ -->
<g id="edge4" class="edge">
<title>1, λ&#45;&gt;1, λ</title>
<path fill="none" stroke="#000000" d="M453.8703,-230.8282C438.1991,-266.0688 444.3909,-308.4734 472.4456,-308.4734 497.9797,-308.4734 505.403,-273.3461 494.7153,-240.4642"/>
<polygon fill="#000000" stroke="#000000" points="497.8689,-238.9125 491.0208,-230.8282 491.3328,-241.4184 497.8689,-238.9125"/>
<text text-anchor="middle" x="472.4456" y="-312.6734" font-family="Times,serif" font-size="14.00" fill="#000000">?:?, i:i, e:e, y:y, ø:ø, æ:æ, u:y, o:ø, ɑ:æ</text>
</g>
<!-- 2, λ&#45;&gt;2, λ -->
<g id="edge5" class="edge">
<title>2, λ&#45;&gt;2, λ</title>
<path fill="none" stroke="#000000" d="M453.8703,-59.8282C438.1991,-95.0688 444.3909,-137.4734 472.4456,-137.4734 497.9797,-137.4734 505.403,-102.3461 494.7153,-69.4642"/>
<polygon fill="#000000" stroke="#000000" points="497.8689,-67.9125 491.0208,-59.8282 491.3328,-70.4184 497.8689,-67.9125"/>
<text text-anchor="middle" x="472.4456" y="-141.6734" font-family="Times,serif" font-size="14.00" fill="#000000">?:?, i:i, e:e, u:u, o:o, ɑ:ɑ, y:u, ø:o, æ:ɑ</text>
</g>
</g>
</svg>
