<?xml version="1.0" encoding="UTF-8" standalone="no"?>
<!DOCTYPE svg PUBLIC "-//W3C//DTD SVG 1.1//EN"
 "http://www.w3.org/Graphics/SVG/1.1/DTD/svg11.dtd">
<!-- Generated by graphviz version 2.40.1 (20161225.0304)
 -->
<!-- Title: fst Pages: 1 -->
<svg width="720pt" height="328pt"
 viewBox="0.00 0.00 720.00 328.02" xmlns="http://www.w3.org/2000/svg" xmlns:xlink="http://www.w3.org/1999/xlink">
<g id="graph0" class="graph" transform="scale(.8982 .8982) rotate(0) translate(36 329.1869)">
<title>fst</title>
<polygon fill="#ffffff" stroke="transparent" points="-36,36 -36,-329.1869 765.587,-329.1869 765.587,36 -36,36"/>
<!-- start -->
<g id="node1" class="node">
<title>start</title>
<ellipse fill="#000000" stroke="#000000" cx="1.8" cy="-101.6935" rx="1.8" ry="1.8"/>
</g>
<!-- 0,  -->
<g id="node2" class="node">
<title>0, </title>
<ellipse fill="none" stroke="#000000" cx="173.2935" cy="-101.6935" rx="20.8568" ry="20.8568"/>
<ellipse fill="none" stroke="#000000" cx="173.2935" cy="-101.6935" rx="24.8884" ry="24.8884"/>
<text text-anchor="middle" x="173.2935" y="-97.4935" font-family="Times,serif" font-size="14.00" fill="#000000">0, </text>
</g>
<!-- start&#45;&gt;0,  -->
<g id="edge9" class="edge">
<title>start&#45;&gt;0, </title>
<path fill="none" stroke="#000000" d="M3.726,-101.6935C16.733,-101.6935 92.5973,-101.6935 138.3308,-101.6935"/>
<polygon fill="#000000" stroke="#000000" points="138.4256,-105.1936 148.4256,-101.6935 138.4255,-98.1936 138.4256,-105.1936"/>
</g>
<!-- 0, &#45;&gt;0,  -->
<g id="edge1" class="edge">
<title>0, &#45;&gt;0, </title>
<path fill="none" stroke="#000000" d="M161.8072,-124.0297C150.246,-157.0504 154.0747,-198.3869 173.2935,-198.3869 190.6354,-198.3869 195.4464,-164.7297 187.7264,-133.8954"/>
<polygon fill="#000000" stroke="#000000" points="190.9953,-132.6097 184.7797,-124.0297 184.2881,-134.6131 190.9953,-132.6097"/>
<text text-anchor="middle" x="173.2935" y="-202.5869" font-family="Times,serif" font-size="14.00" fill="#000000">?:?, u:u, ʊ:ʊ</text>
</g>
<!-- 1,  -->
<g id="node3" class="node">
<title>1, </title>
<ellipse fill="none" stroke="#000000" cx="409.4616" cy="-179.6935" rx="20.8568" ry="20.8568"/>
<ellipse fill="none" stroke="#000000" cx="409.4616" cy="-179.6935" rx="24.8884" ry="24.8884"/>
<text text-anchor="middle" x="409.4616" y="-175.4935" font-family="Times,serif" font-size="14.00" fill="#000000">1, </text>
</g>
<!-- 0, &#45;&gt;1,  -->
<g id="edge5" class="edge">
<title>0, &#45;&gt;1, </title>
<path fill="none" stroke="#000000" d="M196.8016,-109.4576C238.9552,-123.3798 327.5131,-152.6281 375.9925,-168.6395"/>
<polygon fill="#000000" stroke="#000000" points="375.1048,-172.0322 385.698,-171.845 377.3002,-165.3854 375.1048,-172.0322"/>
<text text-anchor="middle" x="291.3775" y="-150.8935" font-family="Times,serif" font-size="14.00" fill="#000000">e:e, a:a</text>
</g>
<!-- 2,  -->
<g id="node4" class="node">
<title>2, </title>
<ellipse fill="none" stroke="#000000" cx="409.4616" cy="-24.6935" rx="20.8568" ry="20.8568"/>
<ellipse fill="none" stroke="#000000" cx="409.4616" cy="-24.6935" rx="24.8884" ry="24.8884"/>
<text text-anchor="middle" x="409.4616" y="-20.4935" font-family="Times,serif" font-size="14.00" fill="#000000">2, </text>
</g>
<!-- 0, &#45;&gt;2,  -->
<g id="edge6" class="edge">
<title>0, &#45;&gt;2, </title>
<path fill="none" stroke="#000000" d="M195.4126,-89.8399C214.6681,-79.9145 243.5608,-65.9564 269.9869,-56.8935 305.055,-44.8667 346.6149,-35.9224 375.1923,-30.5519"/>
<polygon fill="#000000" stroke="#000000" points="375.8925,-33.982 385.0974,-28.736 374.6301,-27.0968 375.8925,-33.982"/>
<text text-anchor="middle" x="291.3775" y="-61.8935" font-family="Times,serif" font-size="14.00" fill="#000000">o:o, ɔ:ɔ</text>
</g>
<!-- 1, &#45;&gt;1,  -->
<g id="edge2" class="edge">
<title>1, &#45;&gt;1, </title>
<path fill="none" stroke="#000000" d="M395.9791,-200.5855C380.9987,-233.8317 385.4928,-276.3869 409.4616,-276.3869 431.1832,-276.3869 436.9106,-241.4368 426.6437,-210.1387"/>
<polygon fill="#000000" stroke="#000000" points="429.8193,-208.6466 422.944,-200.5855 423.2917,-211.1746 429.8193,-208.6466"/>
<text text-anchor="middle" x="409.4616" y="-280.5869" font-family="Times,serif" font-size="14.00" fill="#000000">?:?, e:e, a:a, o:e, ɔ:a</text>
</g>
<!-- 3,  -->
<g id="node5" class="node">
<title>3, </title>
<ellipse fill="none" stroke="#000000" cx="647.9509" cy="-101.6935" rx="20.8568" ry="20.8568"/>
<ellipse fill="none" stroke="#000000" cx="647.9509" cy="-101.6935" rx="24.8884" ry="24.8884"/>
<text text-anchor="middle" x="647.9509" y="-97.4935" font-family="Times,serif" font-size="14.00" fill="#000000">3, </text>
</g>
<!-- 1, &#45;&gt;3,  -->
<g id="edge7" class="edge">
<title>1, &#45;&gt;3, </title>
<path fill="none" stroke="#000000" d="M433.2007,-171.9294C475.8786,-157.9712 565.6594,-128.6076 614.5315,-112.6235"/>
<polygon fill="#000000" stroke="#000000" points="615.8911,-115.8614 624.3077,-109.4262 613.7151,-109.2082 615.8911,-115.8614"/>
<text text-anchor="middle" x="528.7062" y="-150.8935" font-family="Times,serif" font-size="14.00" fill="#000000">u:u, ʊ:ʊ</text>
</g>
<!-- 2, &#45;&gt;2,  -->
<g id="edge3" class="edge">
<title>2, &#45;&gt;2, </title>
<path fill="none" stroke="#000000" d="M395.9791,-45.5855C380.9987,-78.8317 385.4928,-121.3869 409.4616,-121.3869 431.1832,-121.3869 436.9106,-86.4368 426.6437,-55.1387"/>
<polygon fill="#000000" stroke="#000000" points="429.8193,-53.6466 422.944,-45.5855 423.2917,-56.1746 429.8193,-53.6466"/>
<text text-anchor="middle" x="409.4616" y="-125.5869" font-family="Times,serif" font-size="14.00" fill="#000000">?:?, o:o, ɔ:ɔ, e:o, a:ɔ, i:i</text>
</g>
<!-- 2, &#45;&gt;3,  -->
<g id="edge8" class="edge">
<title>2, &#45;&gt;3, </title>
<path fill="none" stroke="#000000" d="M433.9782,-28.6407C462.594,-33.6169 511.1163,-43.2074 551.2574,-56.8935 573.878,-64.6059 598.2897,-75.9418 616.9255,-85.2806"/>
<polygon fill="#000000" stroke="#000000" points="615.34,-88.4009 625.8399,-89.8159 618.5141,-82.1619 615.34,-88.4009"/>
<text text-anchor="middle" x="528.7062" y="-61.8935" font-family="Times,serif" font-size="14.00" fill="#000000">ʊ:ʊ, u:u</text>
</g>
<!-- 3, &#45;&gt;3,  -->
<g id="edge4" class="edge">
<title>3, &#45;&gt;3, </title>
<path fill="none" stroke="#000000" d="M634.4684,-122.5855C619.488,-155.8317 623.9821,-198.3869 647.9509,-198.3869 669.6725,-198.3869 675.3999,-163.4368 665.1331,-132.1387"/>
<polygon fill="#000000" stroke="#000000" points="668.3086,-130.6466 661.4333,-122.5855 661.781,-133.1746 668.3086,-130.6466"/>
<text text-anchor="middle" x="647.9509" y="-202.5869" font-family="Times,serif" font-size="14.00" fill="#000000">?:?, u:u, ʊ:ʊ, e:e, a:a, o:e, ɔ:a</text>
</g>
</g>
</svg>
