<?xml version="1.0" encoding="UTF-8" standalone="no"?>
<!DOCTYPE svg PUBLIC "-//W3C//DTD SVG 1.1//EN"
 "http://www.w3.org/Graphics/SVG/1.1/DTD/svg11.dtd">
<!-- Generated by graphviz version 2.40.1 (20161225.0304)
 -->
<!-- Title: fst Pages: 1 -->
<svg width="720pt" height="336pt"
 viewBox="0.00 0.00 720.00 336.06" xmlns="http://www.w3.org/2000/svg" xmlns:xlink="http://www.w3.org/1999/xlink">
<g id="graph0" class="graph" transform="scale(.8459 .8459) rotate(0) translate(36 361.2734)">
<title>fst</title>
<polygon fill="#ffffff" stroke="transparent" points="-36,36 -36,-361.2734 815.1392,-361.2734 815.1392,36 -36,36"/>
<!-- start -->
<g id="node1" class="node">
<title>start</title>
<ellipse fill="#000000" stroke="#000000" cx="1.8" cy="-117.7367" rx="1.8" ry="1.8"/>
</g>
<!-- 0, λ -->
<g id="node2" class="node">
<title>0, λ</title>
<ellipse fill="none" stroke="#000000" cx="181.3367" cy="-117.7367" rx="28.946" ry="28.946"/>
<ellipse fill="none" stroke="#000000" cx="181.3367" cy="-117.7367" rx="32.9752" ry="32.9752"/>
<text text-anchor="middle" x="181.3367" y="-113.5367" font-family="Times,serif" font-size="14.00" fill="#000000">0, λ</text>
</g>
<!-- start&#45;&gt;0, λ -->
<g id="edge9" class="edge">
<title>start&#45;&gt;0, λ</title>
<path fill="none" stroke="#000000" d="M3.8163,-117.7367C16.8447,-117.7367 90.1116,-117.7367 138.3556,-117.7367"/>
<polygon fill="#000000" stroke="#000000" points="138.5375,-121.2368 148.5375,-117.7367 138.5374,-114.2368 138.5375,-121.2368"/>
</g>
<!-- 0, λ&#45;&gt;0, λ -->
<g id="edge1" class="edge">
<title>0, λ&#45;&gt;0, λ</title>
<path fill="none" stroke="#000000" d="M167.1,-147.4906C156.8372,-182.1677 161.5828,-222.4734 181.3367,-222.4734 199.2387,-222.4734 204.8145,-189.3708 198.0641,-157.3541"/>
<polygon fill="#000000" stroke="#000000" points="201.4153,-156.3293 195.5734,-147.4906 194.6283,-158.0432 201.4153,-156.3293"/>
<text text-anchor="middle" x="181.3367" y="-226.6734" font-family="Times,serif" font-size="14.00" fill="#000000">?:?, u:u, ʊ:ʊ, i:i</text>
</g>
<!-- 1, λ -->
<g id="node3" class="node">
<title>1, λ</title>
<ellipse fill="none" stroke="#000000" cx="433.5914" cy="-203.7367" rx="28.946" ry="28.946"/>
<ellipse fill="none" stroke="#000000" cx="433.5914" cy="-203.7367" rx="32.9752" ry="32.9752"/>
<text text-anchor="middle" x="433.5914" y="-199.5367" font-family="Times,serif" font-size="14.00" fill="#000000">1, λ</text>
</g>
<!-- 0, λ&#45;&gt;1, λ -->
<g id="edge5" class="edge">
<title>0, λ&#45;&gt;1, λ</title>
<path fill="none" stroke="#000000" d="M212.5211,-128.3683C257.9984,-143.8726 342.5636,-172.7031 392.891,-189.8609"/>
<polygon fill="#000000" stroke="#000000" points="391.8837,-193.2153 402.4782,-193.1295 394.1426,-186.5898 391.8837,-193.2153"/>
<text text-anchor="middle" x="307.464" y="-169.9367" font-family="Times,serif" font-size="14.00" fill="#000000">e:e, a:a</text>
</g>
<!-- 2, λ -->
<g id="node4" class="node">
<title>2, λ</title>
<ellipse fill="none" stroke="#000000" cx="433.5914" cy="-32.7367" rx="28.946" ry="28.946"/>
<ellipse fill="none" stroke="#000000" cx="433.5914" cy="-32.7367" rx="32.9752" ry="32.9752"/>
<text text-anchor="middle" x="433.5914" y="-28.5367" font-family="Times,serif" font-size="14.00" fill="#000000">2, λ</text>
</g>
<!-- 0, λ&#45;&gt;2, λ -->
<g id="edge6" class="edge">
<title>0, λ&#45;&gt;2, λ</title>
<path fill="none" stroke="#000000" d="M211.8028,-105.1217C232.5742,-96.7059 260.7924,-85.6325 286.0734,-76.9367 321.6211,-64.7096 362.6213,-52.5801 392.3611,-44.1296"/>
<polygon fill="#000000" stroke="#000000" points="393.3186,-47.4961 401.9909,-41.4099 391.4161,-40.7596 393.3186,-47.4961"/>
<text text-anchor="middle" x="307.464" y="-81.9367" font-family="Times,serif" font-size="14.00" fill="#000000">o:o, ɔ:ɔ</text>
</g>
<!-- 1, λ&#45;&gt;1, λ -->
<g id="edge2" class="edge">
<title>1, λ&#45;&gt;1, λ</title>
<path fill="none" stroke="#000000" d="M416.8315,-232.1563C403.7645,-267.1249 409.3511,-308.4734 433.5914,-308.4734 455.6538,-308.4734 462.2638,-274.221 453.4215,-241.7013"/>
<polygon fill="#000000" stroke="#000000" points="456.7453,-240.6042 450.3512,-232.1563 450.0815,-242.7477 456.7453,-240.6042"/>
<text text-anchor="middle" x="433.5914" y="-312.6734" font-family="Times,serif" font-size="14.00" fill="#000000">?:?, e:e, a:a, o:e, ɔ:a, i:i</text>
</g>
<!-- 3, λ -->
<g id="node5" class="node">
<title>3, λ</title>
<ellipse fill="none" stroke="#000000" cx="688.1672" cy="-117.7367" rx="28.946" ry="28.946"/>
<ellipse fill="none" stroke="#000000" cx="688.1672" cy="-117.7367" rx="32.9752" ry="32.9752"/>
<text text-anchor="middle" x="688.1672" y="-113.5367" font-family="Times,serif" font-size="14.00" fill="#000000">3, λ</text>
</g>
<!-- 1, λ&#45;&gt;3, λ -->
<g id="edge7" class="edge">
<title>1, λ&#45;&gt;3, λ</title>
<path fill="none" stroke="#000000" d="M464.8074,-193.1914C510.7381,-177.6753 596.569,-148.6802 647.4141,-131.5038"/>
<polygon fill="#000000" stroke="#000000" points="648.7407,-134.7501 657.0945,-128.2336 646.5003,-128.1183 648.7407,-134.7501"/>
<text text-anchor="middle" x="560.8793" y="-169.9367" font-family="Times,serif" font-size="14.00" fill="#000000">u:u, ʊ:ʊ</text>
</g>
<!-- 2, λ&#45;&gt;2, λ -->
<g id="edge3" class="edge">
<title>2, λ&#45;&gt;2, λ</title>
<path fill="none" stroke="#000000" d="M416.8315,-61.1563C403.7645,-96.1249 409.3511,-137.4734 433.5914,-137.4734 455.6538,-137.4734 462.2638,-103.221 453.4215,-70.7013"/>
<polygon fill="#000000" stroke="#000000" points="456.7453,-69.6042 450.3512,-61.1563 450.0815,-71.7477 456.7453,-69.6042"/>
<text text-anchor="middle" x="433.5914" y="-141.6734" font-family="Times,serif" font-size="14.00" fill="#000000">?:?, o:o, ɔ:ɔ, e:o, a:ɔ, i:i</text>
</g>
<!-- 2, λ&#45;&gt;3, λ -->
<g id="edge8" class="edge">
<title>2, λ&#45;&gt;3, λ</title>
<path fill="none" stroke="#000000" d="M465.4069,-41.2793C495.9079,-49.6667 543.135,-63.1725 583.4305,-76.9367 605.0734,-84.3296 628.8514,-93.5046 648.2734,-101.2806"/>
<polygon fill="#000000" stroke="#000000" points="647.1297,-104.5932 657.7131,-105.0867 649.7474,-98.1011 647.1297,-104.5932"/>
<text text-anchor="middle" x="560.8793" y="-81.9367" font-family="Times,serif" font-size="14.00" fill="#000000">ʊ:ʊ, u:u</text>
</g>
<!-- 3, λ&#45;&gt;3, λ -->
<g id="edge4" class="edge">
<title>3, λ&#45;&gt;3, λ</title>
<path fill="none" stroke="#000000" d="M671.4074,-146.1563C658.3404,-181.1249 663.927,-222.4734 688.1672,-222.4734 710.2296,-222.4734 716.8396,-188.221 707.9973,-155.7013"/>
<polygon fill="#000000" stroke="#000000" points="711.3211,-154.6042 704.9271,-146.1563 704.6573,-156.7477 711.3211,-154.6042"/>
<text text-anchor="middle" x="688.1672" y="-226.6734" font-family="Times,serif" font-size="14.00" fill="#000000">?:?, u:u, ʊ:ʊ, e:e, a:a, o:e, ɔ:a, i:i</text>
</g>
</g>
</svg>
