<?xml version="1.0" encoding="UTF-8" standalone="no"?>
<!DOCTYPE svg PUBLIC "-//W3C//DTD SVG 1.1//EN"
 "http://www.w3.org/Graphics/SVG/1.1/DTD/svg11.dtd">
<!-- Generated by graphviz version 2.40.1 (20161225.0304)
 -->
<!-- Title: fst Pages: 1 -->
<svg width="640pt" height="397pt"
 viewBox="0.00 0.00 639.92 397.27" xmlns="http://www.w3.org/2000/svg" xmlns:xlink="http://www.w3.org/1999/xlink">
<g id="graph0" class="graph" transform="scale(1 1) rotate(0) translate(36 361.2734)">
<title>fst</title>
<polygon fill="#ffffff" stroke="transparent" points="-36,36 -36,-361.2734 603.9207,-361.2734 603.9207,36 -36,36"/>
<!-- start -->
<g id="node1" class="node">
<title>start</title>
<ellipse fill="#000000" stroke="#000000" cx="1.8" cy="-117.7367" rx="1.8" ry="1.8"/>
</g>
<!-- 0, λ -->
<g id="node2" class="node">
<title>0, λ</title>
<ellipse fill="none" stroke="#000000" cx="181.3367" cy="-117.7367" rx="28.946" ry="28.946"/>
<ellipse fill="none" stroke="#000000" cx="181.3367" cy="-117.7367" rx="32.9752" ry="32.9752"/>
<text text-anchor="middle" x="181.3367" y="-113.5367" font-family="Times,serif" font-size="14.00" fill="#000000">0, λ</text>
</g>
<!-- start&#45;&gt;0, λ -->
<g id="edge6" class="edge">
<title>start&#45;&gt;0, λ</title>
<path fill="none" stroke="#000000" d="M3.8163,-117.7367C16.8447,-117.7367 90.1116,-117.7367 138.3556,-117.7367"/>
<polygon fill="#000000" stroke="#000000" points="138.5375,-121.2368 148.5375,-117.7367 138.5374,-114.2368 138.5375,-121.2368"/>
</g>
<!-- 0, λ&#45;&gt;0, λ -->
<g id="edge1" class="edge">
<title>0, λ&#45;&gt;0, λ</title>
<path fill="none" stroke="#000000" d="M167.1,-147.4906C156.8372,-182.1677 161.5828,-222.4734 181.3367,-222.4734 199.2387,-222.4734 204.8145,-189.3708 198.0641,-157.3541"/>
<polygon fill="#000000" stroke="#000000" points="201.4153,-156.3293 195.5734,-147.4906 194.6283,-158.0432 201.4153,-156.3293"/>
<text text-anchor="middle" x="181.3367" y="-226.6734" font-family="Times,serif" font-size="14.00" fill="#000000">?:?</text>
</g>
<!-- 1, λ -->
<g id="node3" class="node">
<title>1, λ</title>
<ellipse fill="none" stroke="#000000" cx="475.583" cy="-203.7367" rx="28.946" ry="28.946"/>
<ellipse fill="none" stroke="#000000" cx="475.583" cy="-203.7367" rx="32.9752" ry="32.9752"/>
<text text-anchor="middle" x="475.583" y="-199.5367" font-family="Times,serif" font-size="14.00" fill="#000000">1, λ</text>
</g>
<!-- 0, λ&#45;&gt;1, λ -->
<g id="edge4" class="edge">
<title>0, λ&#45;&gt;1, λ</title>
<path fill="none" stroke="#000000" d="M212.8262,-126.9402C266.223,-142.5466 374.5177,-174.1982 434.0523,-191.5985"/>
<polygon fill="#000000" stroke="#000000" points="433.2948,-195.0234 443.8751,-194.4694 435.2586,-188.3045 433.2948,-195.0234"/>
<text text-anchor="middle" x="328.4598" y="-174.9367" font-family="Times,serif" font-size="14.00" fill="#000000">i:i, e:e, u:u, o:o</text>
</g>
<!-- 2, λ -->
<g id="node4" class="node">
<title>2, λ</title>
<ellipse fill="none" stroke="#000000" cx="475.583" cy="-32.7367" rx="28.946" ry="28.946"/>
<ellipse fill="none" stroke="#000000" cx="475.583" cy="-32.7367" rx="32.9752" ry="32.9752"/>
<text text-anchor="middle" x="475.583" y="-28.5367" font-family="Times,serif" font-size="14.00" fill="#000000">2, λ</text>
</g>
<!-- 0, λ&#45;&gt;2, λ -->
<g id="edge5" class="edge">
<title>0, λ&#45;&gt;2, λ</title>
<path fill="none" stroke="#000000" d="M211.636,-104.6112C232.335,-95.9738 260.5352,-84.8451 286.0734,-76.9367 335.9911,-61.4789 394.7715,-48.5646 433.4812,-40.7633"/>
<polygon fill="#000000" stroke="#000000" points="434.2336,-44.1822 443.3573,-38.7962 432.8662,-37.3171 434.2336,-44.1822"/>
<text text-anchor="middle" x="328.4598" y="-81.9367" font-family="Times,serif" font-size="14.00" fill="#000000">a:a, ʊ:ʊ, ɔ:ɔ</text>
</g>
<!-- 1, λ&#45;&gt;1, λ -->
<g id="edge2" class="edge">
<title>1, λ&#45;&gt;1, λ</title>
<path fill="none" stroke="#000000" d="M456.7497,-230.8282C440.8609,-266.0688 447.1386,-308.4734 475.583,-308.4734 501.4718,-308.4734 508.9981,-273.3461 498.162,-240.4642"/>
<polygon fill="#000000" stroke="#000000" points="501.3016,-238.8806 494.4162,-230.8282 494.7772,-241.4169 501.3016,-238.8806"/>
<text text-anchor="middle" x="475.583" y="-312.6734" font-family="Times,serif" font-size="14.00" fill="#000000">?:?, i:i, e:e, u:u, o:o, ʊ:u, a:e, ɔ:o</text>
</g>
<!-- 2, λ&#45;&gt;2, λ -->
<g id="edge3" class="edge">
<title>2, λ&#45;&gt;2, λ</title>
<path fill="none" stroke="#000000" d="M456.7497,-59.8282C440.8609,-95.0688 447.1386,-137.4734 475.583,-137.4734 501.4718,-137.4734 508.9981,-102.3461 498.162,-69.4642"/>
<polygon fill="#000000" stroke="#000000" points="501.3016,-67.8806 494.4162,-59.8282 494.7772,-70.4169 501.3016,-67.8806"/>
<text text-anchor="middle" x="475.583" y="-141.6734" font-family="Times,serif" font-size="14.00" fill="#000000">?:?, a:a, ʊ:ʊ, ɔ:ɔ, u:ʊ, e:a, o:ɔ, i:i</text>
</g>
</g>
</svg>
