<?xml version="1.0" encoding="UTF-8" standalone="no"?>
<!DOCTYPE svg PUBLIC "-//W3C//DTD SVG 1.1//EN"
 "http://www.w3.org/Graphics/SVG/1.1/DTD/svg11.dtd">
<!-- Generated by graphviz version 2.40.1 (20161225.0304)
 -->
<!-- Title: fst Pages: 1 -->
<svg width="720pt" height="384pt"
 viewBox="0.00 0.00 720.00 383.60" xmlns="http://www.w3.org/2000/svg" xmlns:xlink="http://www.w3.org/1999/xlink">
<g id="graph0" class="graph" transform="scale(.5881 .5881) rotate(0) translate(36 616.2734)">
<title>fst</title>
<polygon fill="#ffffff" stroke="transparent" points="-36,36 -36,-616.2734 1188.2786,-616.2734 1188.2786,36 -36,36"/>
<!-- start -->
<g id="node1" class="node">
<title>start</title>
<ellipse fill="#000000" stroke="#000000" cx="1.8" cy="-156.7367" rx="1.8" ry="1.8"/>
</g>
<!-- 0, λ -->
<g id="node2" class="node">
<title>0, λ</title>
<ellipse fill="none" stroke="#000000" cx="181.3367" cy="-156.7367" rx="28.946" ry="28.946"/>
<ellipse fill="none" stroke="#000000" cx="181.3367" cy="-156.7367" rx="32.9752" ry="32.9752"/>
<text text-anchor="middle" x="181.3367" y="-152.5367" font-family="Times,serif" font-size="14.00" fill="#000000">0, λ</text>
</g>
<!-- start&#45;&gt;0, λ -->
<g id="edge13" class="edge">
<title>start&#45;&gt;0, λ</title>
<path fill="none" stroke="#000000" d="M3.8163,-156.7367C16.8447,-156.7367 90.1116,-156.7367 138.3556,-156.7367"/>
<polygon fill="#000000" stroke="#000000" points="138.5375,-160.2368 148.5375,-156.7367 138.5374,-153.2368 138.5375,-160.2368"/>
</g>
<!-- 0, λ&#45;&gt;0, λ -->
<g id="edge1" class="edge">
<title>0, λ&#45;&gt;0, λ</title>
<path fill="none" stroke="#000000" d="M167.1,-186.4906C156.8372,-221.1677 161.5828,-261.4734 181.3367,-261.4734 199.2387,-261.4734 204.8145,-228.3708 198.0641,-196.3541"/>
<polygon fill="#000000" stroke="#000000" points="201.4153,-195.3293 195.5734,-186.4906 194.6283,-197.0432 201.4153,-195.3293"/>
<text text-anchor="middle" x="181.3367" y="-265.6734" font-family="Times,serif" font-size="14.00" fill="#000000">?:?, &#45;:&#45;</text>
</g>
<!-- 1, λ -->
<g id="node3" class="node">
<title>1, λ</title>
<ellipse fill="none" stroke="#000000" cx="487.1632" cy="-341.7367" rx="28.946" ry="28.946"/>
<ellipse fill="none" stroke="#000000" cx="487.1632" cy="-341.7367" rx="32.9752" ry="32.9752"/>
<text text-anchor="middle" x="487.1632" y="-337.5367" font-family="Times,serif" font-size="14.00" fill="#000000">1, λ</text>
</g>
<!-- 0, λ&#45;&gt;1, λ -->
<g id="edge6" class="edge">
<title>0, λ&#45;&gt;1, λ</title>
<path fill="none" stroke="#000000" d="M209.56,-173.8095C265.0902,-207.4007 388.5023,-282.0549 450.3459,-319.4652"/>
<polygon fill="#000000" stroke="#000000" points="448.6403,-322.524 459.0082,-324.7052 452.2635,-316.5346 448.6403,-322.524"/>
<text text-anchor="middle" x="328.4598" y="-275.9367" font-family="Times,serif" font-size="14.00" fill="#000000">i:i, u:u, e:e, o:o</text>
</g>
<!-- 2, λ -->
<g id="node4" class="node">
<title>2, λ</title>
<ellipse fill="none" stroke="#000000" cx="796.851" cy="-225.7367" rx="28.946" ry="28.946"/>
<ellipse fill="none" stroke="#000000" cx="796.851" cy="-225.7367" rx="32.9752" ry="32.9752"/>
<text text-anchor="middle" x="796.851" y="-221.5367" font-family="Times,serif" font-size="14.00" fill="#000000">2, λ</text>
</g>
<!-- 0, λ&#45;&gt;2, λ -->
<g id="edge10" class="edge">
<title>0, λ&#45;&gt;2, λ</title>
<path fill="none" stroke="#000000" d="M213.9949,-160.3977C317.4924,-172 638.2069,-207.9525 754.3282,-220.9699"/>
<polygon fill="#000000" stroke="#000000" points="753.9438,-224.4486 764.2715,-222.0845 754.7237,-217.4922 753.9438,-224.4486"/>
<text text-anchor="middle" x="487.1632" y="-200.9367" font-family="Times,serif" font-size="14.00" fill="#000000">I:I, a:a, ʊ:ʊ, ɔ:ɔ</text>
</g>
<!-- 4, λ -->
<g id="node6" class="node">
<title>4, λ</title>
<ellipse fill="none" stroke="#000000" cx="1026.0042" cy="-32.7367" rx="28.946" ry="28.946"/>
<ellipse fill="none" stroke="#000000" cx="1026.0042" cy="-32.7367" rx="32.9752" ry="32.9752"/>
<text text-anchor="middle" x="1026.0042" y="-28.5367" font-family="Times,serif" font-size="14.00" fill="#000000">4, λ</text>
</g>
<!-- 0, λ&#45;&gt;4, λ -->
<g id="edge12" class="edge">
<title>0, λ&#45;&gt;4, λ</title>
<path fill="none" stroke="#000000" d="M213.9311,-151.9518C345.2419,-132.6749 835.4876,-60.7052 983.4545,-38.9832"/>
<polygon fill="#000000" stroke="#000000" points="984.1214,-42.4229 993.5069,-37.5074 983.1046,-35.4971 984.1214,-42.4229"/>
<text text-anchor="middle" x="647.7972" y="-98.9367" font-family="Times,serif" font-size="14.00" fill="#000000">+:+</text>
</g>
<!-- 1, λ&#45;&gt;1, λ -->
<g id="edge2" class="edge">
<title>1, λ&#45;&gt;1, λ</title>
<path fill="none" stroke="#000000" d="M467.3064,-367.7705C449.4535,-403.2143 456.0724,-446.4734 487.1632,-446.4734 515.5822,-446.4734 523.5546,-410.33 511.0806,-377.0491"/>
<polygon fill="#000000" stroke="#000000" points="514.2357,-375.5285 507.0201,-367.7705 507.8229,-378.3349 514.2357,-375.5285"/>
<text text-anchor="middle" x="487.1632" y="-450.6734" font-family="Times,serif" font-size="14.00" fill="#000000">?:?, &#45;:&#45;, i:i, u:u, e:e, o:o</text>
</g>
<!-- 1, λ&#45;&gt;2, λ -->
<g id="edge8" class="edge">
<title>1, λ&#45;&gt;2, λ</title>
<path fill="none" stroke="#000000" d="M512.2615,-320.6389C534.7491,-302.8346 569.3573,-278.0541 603.4802,-263.9367 652.7855,-243.5381 713.7666,-233.8168 753.9086,-229.3337"/>
<polygon fill="#000000" stroke="#000000" points="754.3196,-232.8098 763.8964,-228.2784 753.584,-225.8486 754.3196,-232.8098"/>
<text text-anchor="middle" x="647.7972" y="-268.9367" font-family="Times,serif" font-size="14.00" fill="#000000">I:I, a:a, ʊ:ʊ, ɔ:ɔ</text>
</g>
<!-- 3, λ -->
<g id="node5" class="node">
<title>3, λ</title>
<ellipse fill="none" stroke="#000000" cx="796.851" cy="-458.7367" rx="28.946" ry="28.946"/>
<ellipse fill="none" stroke="#000000" cx="796.851" cy="-458.7367" rx="32.9752" ry="32.9752"/>
<text text-anchor="middle" x="796.851" y="-454.5367" font-family="Times,serif" font-size="14.00" fill="#000000">3, λ</text>
</g>
<!-- 1, λ&#45;&gt;3, λ -->
<g id="edge7" class="edge">
<title>1, λ&#45;&gt;3, λ</title>
<path fill="none" stroke="#000000" d="M517.9895,-353.3829C574.3359,-374.6706 693.9118,-419.8463 756.5959,-443.5283"/>
<polygon fill="#000000" stroke="#000000" points="755.5577,-446.8775 766.1494,-447.1377 758.0317,-440.3293 755.5577,-446.8775"/>
<text text-anchor="middle" x="647.7972" y="-420.9367" font-family="Times,serif" font-size="14.00" fill="#000000">+:+</text>
</g>
<!-- 2, λ&#45;&gt;1, λ -->
<g id="edge9" class="edge">
<title>2, λ&#45;&gt;1, λ</title>
<path fill="none" stroke="#000000" d="M770.0009,-244.8623C749.4964,-258.7142 720.0947,-276.996 692.1142,-288.7367 638.1075,-311.3982 571.9191,-326.384 529.6434,-334.4688"/>
<polygon fill="#000000" stroke="#000000" points="528.8808,-331.0507 519.6941,-336.3284 530.1669,-337.9315 528.8808,-331.0507"/>
<text text-anchor="middle" x="647.7972" y="-320.9367" font-family="Times,serif" font-size="14.00" fill="#000000">i:i, u:u, e:e, o:o</text>
</g>
<!-- 2, λ&#45;&gt;2, λ -->
<g id="edge3" class="edge">
<title>2, λ&#45;&gt;2, λ</title>
<path fill="none" stroke="#000000" d="M781.5086,-254.6893C769.9165,-289.5436 775.0307,-330.4734 796.851,-330.4734 816.6256,-330.4734 822.6797,-296.8582 815.0131,-264.6135"/>
<polygon fill="#000000" stroke="#000000" points="818.2933,-263.352 812.1934,-254.6893 811.5598,-265.2652 818.2933,-263.352"/>
<text text-anchor="middle" x="796.851" y="-334.6734" font-family="Times,serif" font-size="14.00" fill="#000000">?:?, &#45;:&#45;, I:I, a:a, ʊ:ʊ, ɔ:ɔ</text>
</g>
<!-- 2, λ&#45;&gt;4, λ -->
<g id="edge11" class="edge">
<title>2, λ&#45;&gt;4, λ</title>
<path fill="none" stroke="#000000" d="M822.2499,-204.3449C863.9129,-169.2551 946.746,-99.4904 992.9343,-60.5892"/>
<polygon fill="#000000" stroke="#000000" points="995.4468,-63.0492 1000.8407,-53.9302 990.9374,-57.6951 995.4468,-63.0492"/>
<text text-anchor="middle" x="911.4276" y="-139.9367" font-family="Times,serif" font-size="14.00" fill="#000000">+:+</text>
</g>
<!-- 3, λ&#45;&gt;3, λ -->
<g id="edge4" class="edge">
<title>3, λ&#45;&gt;3, λ</title>
<path fill="none" stroke="#000000" d="M781.5086,-487.6893C769.9165,-522.5436 775.0307,-563.4734 796.851,-563.4734 816.6256,-563.4734 822.6797,-529.8582 815.0131,-497.6135"/>
<polygon fill="#000000" stroke="#000000" points="818.2933,-496.352 812.1934,-487.6893 811.5598,-498.2652 818.2933,-496.352"/>
<text text-anchor="middle" x="796.851" y="-567.6734" font-family="Times,serif" font-size="14.00" fill="#000000">?:?, &#45;:&#45;, +:+, i:i, u:u, e:e, o:o, I:i, ʊ:u, a:e, ɔ:o</text>
</g>
<!-- 4, λ&#45;&gt;4, λ -->
<g id="edge5" class="edge">
<title>4, λ&#45;&gt;4, λ</title>
<path fill="none" stroke="#000000" d="M1010.6618,-61.6893C999.0698,-96.5436 1004.1839,-137.4734 1026.0042,-137.4734 1045.7789,-137.4734 1051.8329,-103.8582 1044.1664,-71.6135"/>
<polygon fill="#000000" stroke="#000000" points="1047.4465,-70.352 1041.3466,-61.6893 1040.7131,-72.2652 1047.4465,-70.352"/>
<text text-anchor="middle" x="1026.0042" y="-141.6734" font-family="Times,serif" font-size="14.00" fill="#000000">?:?, &#45;:&#45;, +:+, I:I, a:a, ɔ:ɔ, ʊ:ʊ, i:I, e:a, o:ɔ, u:ʊ</text>
</g>
</g>
</svg>
