<?xml version="1.0" encoding="UTF-8" standalone="no"?>
<!DOCTYPE svg PUBLIC "-//W3C//DTD SVG 1.1//EN"
 "http://www.w3.org/Graphics/SVG/1.1/DTD/svg11.dtd">
<!-- Generated by graphviz version 2.40.1 (20161225.0304)
 -->
<!-- Title: fst Pages: 1 -->
<svg width="517pt" height="210pt"
 viewBox="0.00 0.00 516.84 210.19" xmlns="http://www.w3.org/2000/svg" xmlns:xlink="http://www.w3.org/1999/xlink">
<g id="graph0" class="graph" transform="scale(1 1) rotate(0) translate(36 174.1869)">
<title>fst</title>
<polygon fill="#ffffff" stroke="transparent" points="-36,36 -36,-174.1869 480.8438,-174.1869 480.8438,36 -36,36"/>
<!-- start -->
<g id="node1" class="node">
<title>start</title>
<ellipse fill="#000000" stroke="#000000" cx="1.8" cy="-24.6935" rx="1.8" ry="1.8"/>
</g>
<!-- 0,  -->
<g id="node2" class="node">
<title>0, </title>
<ellipse fill="none" stroke="#000000" cx="173.2935" cy="-24.6935" rx="20.8568" ry="20.8568"/>
<ellipse fill="none" stroke="#000000" cx="173.2935" cy="-24.6935" rx="24.8884" ry="24.8884"/>
<text text-anchor="middle" x="173.2935" y="-20.4935" font-family="Times,serif" font-size="14.00" fill="#000000">0, </text>
</g>
<!-- start&#45;&gt;0,  -->
<g id="edge4" class="edge">
<title>start&#45;&gt;0, </title>
<path fill="none" stroke="#000000" d="M3.726,-24.6935C16.733,-24.6935 92.5973,-24.6935 138.3308,-24.6935"/>
<polygon fill="#000000" stroke="#000000" points="138.4256,-28.1936 148.4256,-24.6935 138.4255,-21.1936 138.4256,-28.1936"/>
</g>
<!-- 0, &#45;&gt;0,  -->
<g id="edge1" class="edge">
<title>0, &#45;&gt;0, </title>
<path fill="none" stroke="#000000" d="M161.8072,-47.0297C150.246,-80.0504 154.0747,-121.3869 173.2935,-121.3869 190.6354,-121.3869 195.4464,-87.7297 187.7264,-56.8954"/>
<polygon fill="#000000" stroke="#000000" points="190.9953,-55.6097 184.7797,-47.0297 184.2881,-57.6131 190.9953,-55.6097"/>
<text text-anchor="middle" x="173.2935" y="-125.5869" font-family="Times,serif" font-size="14.00" fill="#000000">?:?, a:i</text>
</g>
<!-- 1,  -->
<g id="node3" class="node">
<title>1, </title>
<ellipse fill="none" stroke="#000000" cx="403.2428" cy="-24.6935" rx="20.8568" ry="20.8568"/>
<ellipse fill="none" stroke="#000000" cx="403.2428" cy="-24.6935" rx="24.8884" ry="24.8884"/>
<text text-anchor="middle" x="403.2428" y="-20.4935" font-family="Times,serif" font-size="14.00" fill="#000000">1, </text>
</g>
<!-- 0, &#45;&gt;1,  -->
<g id="edge2" class="edge">
<title>0, &#45;&gt;1, </title>
<path fill="none" stroke="#000000" d="M198.3398,-24.6935C239.376,-24.6935 321.0466,-24.6935 367.9382,-24.6935"/>
<polygon fill="#000000" stroke="#000000" points="368.2273,-28.1935 378.2273,-24.6935 368.2273,-21.1935 368.2273,-28.1935"/>
<text text-anchor="middle" x="288.2681" y="-28.8935" font-family="Times,serif" font-size="14.00" fill="#000000">i:i, u:u</text>
</g>
<!-- 1, &#45;&gt;1,  -->
<g id="edge3" class="edge">
<title>1, &#45;&gt;1, </title>
<path fill="none" stroke="#000000" d="M390.0099,-46.0656C375.7869,-79.2399 380.1978,-121.3869 403.2428,-121.3869 424.1272,-121.3869 429.7078,-86.772 419.9845,-55.5904"/>
<polygon fill="#000000" stroke="#000000" points="423.2167,-54.2392 416.4756,-46.0656 416.6483,-56.6591 423.2167,-54.2392"/>
<text text-anchor="middle" x="403.2428" y="-125.5869" font-family="Times,serif" font-size="14.00" fill="#000000">?:?, a:a, i:i, u:u</text>
</g>
</g>
</svg>
