<?xml version="1.0" encoding="UTF-8" standalone="no"?>
<!DOCTYPE svg PUBLIC "-//W3C//DTD SVG 1.1//EN"
 "http://www.w3.org/Graphics/SVG/1.1/DTD/svg11.dtd">
<!-- Generated by graphviz version 2.40.1 (20161225.0304)
 -->
<!-- Title: fst Pages: 1 -->
<svg width="541pt" height="226pt"
 viewBox="0.00 0.00 540.97 226.27" xmlns="http://www.w3.org/2000/svg" xmlns:xlink="http://www.w3.org/1999/xlink">
<g id="graph0" class="graph" transform="scale(1 1) rotate(0) translate(36 190.2734)">
<title>fst</title>
<polygon fill="#ffffff" stroke="transparent" points="-36,36 -36,-190.2734 504.9736,-190.2734 504.9736,36 -36,36"/>
<!-- start -->
<g id="node1" class="node">
<title>start</title>
<ellipse fill="#000000" stroke="#000000" cx="1.8" cy="-32.7367" rx="1.8" ry="1.8"/>
</g>
<!-- 0, λ -->
<g id="node2" class="node">
<title>0, λ</title>
<ellipse fill="none" stroke="#000000" cx="181.3367" cy="-32.7367" rx="28.946" ry="28.946"/>
<ellipse fill="none" stroke="#000000" cx="181.3367" cy="-32.7367" rx="32.9752" ry="32.9752"/>
<text text-anchor="middle" x="181.3367" y="-28.5367" font-family="Times,serif" font-size="14.00" fill="#000000">0, λ</text>
</g>
<!-- start&#45;&gt;0, λ -->
<g id="edge4" class="edge">
<title>start&#45;&gt;0, λ</title>
<path fill="none" stroke="#000000" d="M3.8163,-32.7367C16.8447,-32.7367 90.1116,-32.7367 138.3556,-32.7367"/>
<polygon fill="#000000" stroke="#000000" points="138.5375,-36.2368 148.5375,-32.7367 138.5374,-29.2368 138.5375,-36.2368"/>
</g>
<!-- 0, λ&#45;&gt;0, λ -->
<g id="edge1" class="edge">
<title>0, λ&#45;&gt;0, λ</title>
<path fill="none" stroke="#000000" d="M167.1,-62.4906C156.8372,-97.1677 161.5828,-137.4734 181.3367,-137.4734 199.2387,-137.4734 204.8145,-104.3708 198.0641,-72.3541"/>
<polygon fill="#000000" stroke="#000000" points="201.4153,-71.3293 195.5734,-62.4906 194.6283,-73.0432 201.4153,-71.3293"/>
<text text-anchor="middle" x="181.3367" y="-141.6734" font-family="Times,serif" font-size="14.00" fill="#000000">?:?, a:i</text>
</g>
<!-- 1, λ -->
<g id="node3" class="node">
<title>1, λ</title>
<ellipse fill="none" stroke="#000000" cx="427.3726" cy="-32.7367" rx="28.946" ry="28.946"/>
<ellipse fill="none" stroke="#000000" cx="427.3726" cy="-32.7367" rx="32.9752" ry="32.9752"/>
<text text-anchor="middle" x="427.3726" y="-28.5367" font-family="Times,serif" font-size="14.00" fill="#000000">1, λ</text>
</g>
<!-- 0, λ&#45;&gt;1, λ -->
<g id="edge2" class="edge">
<title>0, λ&#45;&gt;1, λ</title>
<path fill="none" stroke="#000000" d="M214.2629,-32.7367C258.0578,-32.7367 335.5743,-32.7367 384.0674,-32.7367"/>
<polygon fill="#000000" stroke="#000000" points="384.2485,-36.2368 394.2485,-32.7367 384.2485,-29.2368 384.2485,-36.2368"/>
<text text-anchor="middle" x="304.3546" y="-36.9367" font-family="Times,serif" font-size="14.00" fill="#000000">i:i, u:u</text>
</g>
<!-- 1, λ&#45;&gt;1, λ -->
<g id="edge3" class="edge">
<title>1, λ&#45;&gt;1, λ</title>
<path fill="none" stroke="#000000" d="M411.0488,-61.4227C398.5202,-96.3345 403.9614,-137.4734 427.3726,-137.4734 448.5889,-137.4734 455.0468,-103.6865 446.7462,-71.3668"/>
<polygon fill="#000000" stroke="#000000" points="449.9748,-69.9569 443.6963,-61.4227 443.2824,-72.0094 449.9748,-69.9569"/>
<text text-anchor="middle" x="427.3726" y="-141.6734" font-family="Times,serif" font-size="14.00" fill="#000000">?:?, a:a, i:i, u:u</text>
</g>
</g>
</svg>
