<?xml version="1.0" encoding="UTF-8" standalone="no"?>
<!DOCTYPE svg PUBLIC "-//W3C//DTD SVG 1.1//EN"
 "http://www.w3.org/Graphics/SVG/1.1/DTD/svg11.dtd">
<!-- Generated by graphviz version 2.40.1 (20161225.0304)
 -->
<!-- Title: fst Pages: 1 -->
<svg width="720pt" height="305pt"
 viewBox="0.00 0.00 720.00 304.74" xmlns="http://www.w3.org/2000/svg" xmlns:xlink="http://www.w3.org/1999/xlink">
<g id="graph0" class="graph" transform="scale(.6502 .6502) rotate(0) translate(36 432.6845)">
<title>fst</title>
<polygon fill="#ffffff" stroke="transparent" points="-36,36 -36,-432.6845 1071.3499,-432.6845 1071.3499,36 -36,36"/>
<!-- start -->
<g id="node1" class="node">
<title>start</title>
<ellipse fill="#000000" stroke="#000000" cx="1.8" cy="-186.1478" rx="1.8" ry="1.8"/>
</g>
<!-- 0, λ -->
<g id="node2" class="node">
<title>0, λ</title>
<ellipse fill="none" stroke="#000000" cx="181.3367" cy="-186.1478" rx="28.946" ry="28.946"/>
<ellipse fill="none" stroke="#000000" cx="181.3367" cy="-186.1478" rx="32.9752" ry="32.9752"/>
<text text-anchor="middle" x="181.3367" y="-181.9478" font-family="Times,serif" font-size="14.00" fill="#000000">0, λ</text>
</g>
<!-- start&#45;&gt;0, λ -->
<g id="edge8" class="edge">
<title>start&#45;&gt;0, λ</title>
<path fill="none" stroke="#000000" d="M3.8163,-186.1478C16.8447,-186.1478 90.1116,-186.1478 138.3556,-186.1478"/>
<polygon fill="#000000" stroke="#000000" points="138.5375,-189.6479 148.5375,-186.1478 138.5374,-182.6479 138.5375,-189.6479"/>
</g>
<!-- 0, λ&#45;&gt;0, λ -->
<g id="edge1" class="edge">
<title>0, λ&#45;&gt;0, λ</title>
<path fill="none" stroke="#000000" d="M167.1,-215.9016C156.8372,-250.5787 161.5828,-290.8845 181.3367,-290.8845 199.2387,-290.8845 204.8145,-257.7818 198.0641,-225.7651"/>
<polygon fill="#000000" stroke="#000000" points="201.4153,-224.7404 195.5734,-215.9016 194.6283,-226.4542 201.4153,-224.7404"/>
<text text-anchor="middle" x="181.3367" y="-295.0845" font-family="Times,serif" font-size="14.00" fill="#000000">!:, ?:?</text>
</g>
<!-- 1, λ -->
<g id="node3" class="node">
<title>1, λ</title>
<ellipse fill="none" stroke="#000000" cx="706.4654" cy="-275.1478" rx="28.946" ry="28.946"/>
<ellipse fill="none" stroke="#000000" cx="706.4654" cy="-275.1478" rx="32.9752" ry="32.9752"/>
<text text-anchor="middle" x="706.4654" y="-270.9478" font-family="Times,serif" font-size="14.00" fill="#000000">1, λ</text>
</g>
<!-- 0, λ&#45;&gt;1, λ -->
<g id="edge6" class="edge">
<title>0, λ&#45;&gt;1, λ</title>
<path fill="none" stroke="#000000" d="M206.6462,-206.9351C226.8146,-222.1824 256.4863,-241.793 286.0734,-251.1478 418.5505,-293.0337 586.0365,-285.954 663.528,-279.528"/>
<polygon fill="#000000" stroke="#000000" points="664.1927,-282.9835 673.8521,-278.6307 663.5866,-276.0098 664.1927,-282.9835"/>
<text text-anchor="middle" x="443.901" y="-288.3478" font-family="Times,serif" font-size="14.00" fill="#000000">i:i, u:u, e:e, o:o, ɐ:ɐ, ɐː:ɐː, oː:oː, eː:eː, uː:uː, iː:iː</text>
</g>
<!-- 2, λ -->
<g id="node4" class="node">
<title>2, λ</title>
<ellipse fill="none" stroke="#000000" cx="706.4654" cy="-96.1478" rx="28.946" ry="28.946"/>
<ellipse fill="none" stroke="#000000" cx="706.4654" cy="-96.1478" rx="32.9752" ry="32.9752"/>
<text text-anchor="middle" x="706.4654" y="-91.9478" font-family="Times,serif" font-size="14.00" fill="#000000">2, λ</text>
</g>
<!-- 0, λ&#45;&gt;2, λ -->
<g id="edge7" class="edge">
<title>0, λ&#45;&gt;2, λ</title>
<path fill="none" stroke="#000000" d="M212.0953,-174.6104C232.7534,-167.2635 260.7288,-158.0827 286.0734,-152.3478 422.0573,-121.5777 586.8607,-105.5803 663.4628,-99.3357"/>
<polygon fill="#000000" stroke="#000000" points="663.9852,-102.8052 673.6742,-98.5188 663.4269,-95.8275 663.9852,-102.8052"/>
<text text-anchor="middle" x="443.901" y="-157.3478" font-family="Times,serif" font-size="14.00" fill="#000000">I:I, ʊ:ʊ, ɛ:ɛ, ɔ:ɔ, a:a, Iː:Iː, ʊː:ʊː, ɛː:ɛː, ɔː:ɔː, aː:aː</text>
</g>
<!-- 1, λ&#45;&gt;0, λ -->
<g id="edge2" class="edge">
<title>1, λ&#45;&gt;0, λ</title>
<path fill="none" stroke="#000000" d="M678.1319,-258.7111C657.6111,-247.6252 628.8277,-233.7217 601.7286,-226.3478 467.6077,-189.8519 301.5813,-185.3639 224.4607,-185.4917"/>
<polygon fill="#000000" stroke="#000000" points="224.1655,-181.9929 214.1813,-185.5375 224.1968,-188.9928 224.1655,-181.9929"/>
<text text-anchor="middle" x="443.901" y="-230.3478" font-family="Times,serif" font-size="14.00" fill="#000000">!:</text>
</g>
<!-- 1, λ&#45;&gt;1, λ -->
<g id="edge4" class="edge">
<title>1, λ&#45;&gt;1, λ</title>
<path fill="none" stroke="#000000" d="M679.7748,-294.4328C642.6867,-330.8635 651.5835,-379.8845 706.4654,-379.8845 757.7027,-379.8845 768.8597,-337.1579 739.9362,-301.839"/>
<polygon fill="#000000" stroke="#000000" points="742.4901,-299.4453 733.1559,-294.4328 737.3269,-304.1721 742.4901,-299.4453"/>
<text text-anchor="middle" x="706.4654" y="-384.0845" font-family="Times,serif" font-size="14.00" fill="#000000">?:?, i:i, u:u, e:e, o:o, ɐ:ɐ, ɐː:ɐː, oː:oː, eː:eː, uː:uː, iː:iː, a:ɐ, ɔ:o, ʊ:u, ɛ:e, I:i, aː:ɐː, ɔː:oː, ʊː:uː, ɛː:eː, Iː:iː</text>
</g>
<!-- 2, λ&#45;&gt;0, λ -->
<g id="edge3" class="edge">
<title>2, λ&#45;&gt;0, λ</title>
<path fill="none" stroke="#000000" d="M680.071,-76.6353C659.7991,-62.9238 630.4887,-45.7569 601.7286,-38.3478 465.8732,-3.349 410.6953,26.0807 286.0734,-38.3478 242.6052,-60.8205 213.2852,-110.5752 196.9728,-146.1464"/>
<polygon fill="#000000" stroke="#000000" points="193.7622,-144.7525 192.9105,-155.3131 200.162,-147.5887 193.7622,-144.7525"/>
<text text-anchor="middle" x="443.901" y="-43.3478" font-family="Times,serif" font-size="14.00" fill="#000000">!:</text>
</g>
<!-- 2, λ&#45;&gt;2, λ -->
<g id="edge5" class="edge">
<title>2, λ&#45;&gt;2, λ</title>
<path fill="none" stroke="#000000" d="M679.7748,-115.4328C642.6867,-151.8635 651.5835,-200.8845 706.4654,-200.8845 757.7027,-200.8845 768.8597,-158.1579 739.9362,-122.839"/>
<polygon fill="#000000" stroke="#000000" points="742.4901,-120.4453 733.1559,-115.4328 737.3269,-125.1721 742.4901,-120.4453"/>
<text text-anchor="middle" x="706.4654" y="-205.0845" font-family="Times,serif" font-size="14.00" fill="#000000">?:?, I:I, ʊ:ʊ, ɛ:ɛ, ɔ:ɔ, a:a, Iː:Iː, ʊː:ʊː, ɛː:ɛː, ɔː:ɔː, aː:aː, i:I, u:ʊ, e:ɛ, o:ɔ, ɐ:a, iː:Iː, uː:ʊː, eː:ɛː, oː:ɔː, ɐː:aː</text>
</g>
</g>
</svg>
