<?xml version="1.0" encoding="UTF-8" standalone="no"?>
<!DOCTYPE svg PUBLIC "-//W3C//DTD SVG 1.1//EN"
 "http://www.w3.org/Graphics/SVG/1.1/DTD/svg11.dtd">
<!-- Generated by graphviz version 2.40.1 (20161225.0304)
 -->
<!-- Title: fst Pages: 1 -->
<svg width="599pt" height="720pt"
 viewBox="0.00 0.00 598.78 720.00" xmlns="http://www.w3.org/2000/svg" xmlns:xlink="http://www.w3.org/1999/xlink">
<g id="graph0" class="graph" transform="scale(.9739 .9739) rotate(0) translate(36 703.2734)">
<title>fst</title>
<polygon fill="#ffffff" stroke="transparent" points="-36,36 -36,-703.2734 578.804,-703.2734 578.804,36 -36,36"/>
<!-- start -->
<g id="node1" class="node">
<title>start</title>
<ellipse fill="#000000" stroke="#000000" cx="1.8" cy="-269.7367" rx="1.8" ry="1.8"/>
</g>
<!-- 0, λ -->
<g id="node2" class="node">
<title>0, λ</title>
<ellipse fill="none" stroke="#000000" cx="181.3367" cy="-269.7367" rx="28.946" ry="28.946"/>
<ellipse fill="none" stroke="#000000" cx="181.3367" cy="-269.7367" rx="32.9752" ry="32.9752"/>
<text text-anchor="middle" x="181.3367" y="-265.5367" font-family="Times,serif" font-size="14.00" fill="#000000">0, λ</text>
</g>
<!-- start&#45;&gt;0, λ -->
<g id="edge10" class="edge">
<title>start&#45;&gt;0, λ</title>
<path fill="none" stroke="#000000" d="M3.8163,-269.7367C16.8447,-269.7367 90.1116,-269.7367 138.3556,-269.7367"/>
<polygon fill="#000000" stroke="#000000" points="138.5375,-273.2368 148.5375,-269.7367 138.5374,-266.2368 138.5375,-273.2368"/>
</g>
<!-- 0, λ&#45;&gt;0, λ -->
<g id="edge1" class="edge">
<title>0, λ&#45;&gt;0, λ</title>
<path fill="none" stroke="#000000" d="M167.1,-299.4906C156.8372,-334.1677 161.5828,-374.4734 181.3367,-374.4734 199.2387,-374.4734 204.8145,-341.3708 198.0641,-309.3541"/>
<polygon fill="#000000" stroke="#000000" points="201.4153,-308.3293 195.5734,-299.4906 194.6283,-310.0432 201.4153,-308.3293"/>
<text text-anchor="middle" x="181.3367" y="-378.6734" font-family="Times,serif" font-size="14.00" fill="#000000">?:?, i:i</text>
</g>
<!-- 1, λ -->
<g id="node3" class="node">
<title>1, λ</title>
<ellipse fill="none" stroke="#000000" cx="441.3418" cy="-545.7367" rx="28.946" ry="28.946"/>
<ellipse fill="none" stroke="#000000" cx="441.3418" cy="-545.7367" rx="32.9752" ry="32.9752"/>
<text text-anchor="middle" x="441.3418" y="-541.5367" font-family="Times,serif" font-size="14.00" fill="#000000">1, λ</text>
</g>
<!-- 0, λ&#45;&gt;1, λ -->
<g id="edge3" class="edge">
<title>0, λ&#45;&gt;1, λ</title>
<path fill="none" stroke="#000000" d="M203.9556,-293.7471C250.9196,-343.6002 358.9949,-458.324 411.5542,-514.1167"/>
<polygon fill="#000000" stroke="#000000" points="409.1854,-516.7064 418.59,-521.5853 414.2806,-511.9065 409.1854,-516.7064"/>
<text text-anchor="middle" x="311.3392" y="-435.9367" font-family="Times,serif" font-size="14.00" fill="#000000">y:y, ø:ø</text>
</g>
<!-- 2, λ -->
<g id="node4" class="node">
<title>2, λ</title>
<ellipse fill="none" stroke="#000000" cx="441.3418" cy="-374.7367" rx="28.946" ry="28.946"/>
<ellipse fill="none" stroke="#000000" cx="441.3418" cy="-374.7367" rx="32.9752" ry="32.9752"/>
<text text-anchor="middle" x="441.3418" y="-370.5367" font-family="Times,serif" font-size="14.00" fill="#000000">2, λ</text>
</g>
<!-- 0, λ&#45;&gt;2, λ -->
<g id="edge4" class="edge">
<title>0, λ&#45;&gt;2, λ</title>
<path fill="none" stroke="#000000" d="M211.9272,-282.0903C258.9666,-301.0866 349.0784,-337.4772 401.2707,-358.5545"/>
<polygon fill="#000000" stroke="#000000" points="400.2847,-361.9309 410.8678,-362.4302 402.906,-355.4402 400.2847,-361.9309"/>
<text text-anchor="middle" x="311.3392" y="-334.9367" font-family="Times,serif" font-size="14.00" fill="#000000">e:e, æ:æ</text>
</g>
<!-- 3, λ -->
<g id="node5" class="node">
<title>3, λ</title>
<ellipse fill="none" stroke="#000000" cx="441.3418" cy="-203.7367" rx="28.946" ry="28.946"/>
<ellipse fill="none" stroke="#000000" cx="441.3418" cy="-203.7367" rx="32.9752" ry="32.9752"/>
<text text-anchor="middle" x="441.3418" y="-199.5367" font-family="Times,serif" font-size="14.00" fill="#000000">3, λ</text>
</g>
<!-- 0, λ&#45;&gt;3, λ -->
<g id="edge5" class="edge">
<title>0, λ&#45;&gt;3, λ</title>
<path fill="none" stroke="#000000" d="M213.2184,-261.6438C260.1287,-249.7361 347.79,-227.484 399.7195,-214.3022"/>
<polygon fill="#000000" stroke="#000000" points="400.7749,-217.6453 409.6064,-211.7925 399.0526,-210.8605 400.7749,-217.6453"/>
<text text-anchor="middle" x="311.3392" y="-245.9367" font-family="Times,serif" font-size="14.00" fill="#000000">o:o, u:u</text>
</g>
<!-- 4, λ -->
<g id="node6" class="node">
<title>4, λ</title>
<ellipse fill="none" stroke="#000000" cx="441.3418" cy="-32.7367" rx="28.946" ry="28.946"/>
<ellipse fill="none" stroke="#000000" cx="441.3418" cy="-32.7367" rx="32.9752" ry="32.9752"/>
<text text-anchor="middle" x="441.3418" y="-28.5367" font-family="Times,serif" font-size="14.00" fill="#000000">4, λ</text>
</g>
<!-- 0, λ&#45;&gt;4, λ -->
<g id="edge2" class="edge">
<title>0, λ&#45;&gt;4, λ</title>
<path fill="none" stroke="#000000" d="M205.7974,-247.4403C253.0528,-204.3661 356.8615,-109.7422 409.4553,-61.8019"/>
<polygon fill="#000000" stroke="#000000" points="412.1029,-64.1245 417.1355,-54.8012 407.3872,-58.9511 412.1029,-64.1245"/>
<text text-anchor="middle" x="311.3392" y="-175.9367" font-family="Times,serif" font-size="14.00" fill="#000000">a:a</text>
</g>
<!-- 1, λ&#45;&gt;1, λ -->
<g id="edge6" class="edge">
<title>1, λ&#45;&gt;1, λ</title>
<path fill="none" stroke="#000000" d="M424.1529,-573.8902C410.5389,-608.9147 416.2685,-650.4734 441.3418,-650.4734 464.1623,-650.4734 470.959,-616.0469 461.7316,-583.4537"/>
<polygon fill="#000000" stroke="#000000" points="465.0237,-582.2622 458.5306,-573.8902 458.3857,-584.484 465.0237,-582.2622"/>
<text text-anchor="middle" x="441.3418" y="-654.6734" font-family="Times,serif" font-size="14.00" fill="#000000">?:?, i:i, y:y, ø:ø, e:ø, u:y, o:ø, a:æ</text>
</g>
<!-- 2, λ&#45;&gt;2, λ -->
<g id="edge7" class="edge">
<title>2, λ&#45;&gt;2, λ</title>
<path fill="none" stroke="#000000" d="M424.1529,-402.8902C410.5389,-437.9147 416.2685,-479.4734 441.3418,-479.4734 464.1623,-479.4734 470.959,-445.0469 461.7316,-412.4537"/>
<polygon fill="#000000" stroke="#000000" points="465.0237,-411.2622 458.5306,-402.8902 458.3857,-413.484 465.0237,-411.2622"/>
<text text-anchor="middle" x="441.3418" y="-483.6734" font-family="Times,serif" font-size="14.00" fill="#000000">?:?, i:i, e:e, æ:æ, o:ø, u:y, ø:ø, a:æ</text>
</g>
<!-- 3, λ&#45;&gt;3, λ -->
<g id="edge8" class="edge">
<title>3, λ&#45;&gt;3, λ</title>
<path fill="none" stroke="#000000" d="M424.1529,-231.8902C410.5389,-266.9147 416.2685,-308.4734 441.3418,-308.4734 464.1623,-308.4734 470.959,-274.0469 461.7316,-241.4537"/>
<polygon fill="#000000" stroke="#000000" points="465.0237,-240.2622 458.5306,-231.8902 458.3857,-242.484 465.0237,-240.2622"/>
<text text-anchor="middle" x="441.3418" y="-312.6734" font-family="Times,serif" font-size="14.00" fill="#000000">?:?, i:i, e:o, u:u, o:o, y:u, ø:o, æ:a</text>
</g>
<!-- 4, λ&#45;&gt;4, λ -->
<g id="edge9" class="edge">
<title>4, λ&#45;&gt;4, λ</title>
<path fill="none" stroke="#000000" d="M424.1529,-60.8902C410.5389,-95.9147 416.2685,-137.4734 441.3418,-137.4734 464.1623,-137.4734 470.959,-103.0469 461.7316,-70.4537"/>
<polygon fill="#000000" stroke="#000000" points="465.0237,-69.2622 458.5306,-60.8902 458.3857,-71.484 465.0237,-69.2622"/>
<text text-anchor="middle" x="441.3418" y="-141.6734" font-family="Times,serif" font-size="14.00" fill="#000000">?:?, i:i, e:o, u:u, o:o, y:u, ø:o, æ:a</text>
</g>
</g>
</svg>
