<?xml version="1.0" encoding="UTF-8" standalone="no"?>
<!DOCTYPE svg PUBLIC "-//W3C//DTD SVG 1.1//EN"
 "http://www.w3.org/Graphics/SVG/1.1/DTD/svg11.dtd">
<!-- Generated by graphviz version 2.40.1 (20161225.0304)
 -->
<!-- Title: fst Pages: 1 -->
<svg width="720pt" height="503pt"
 viewBox="0.00 0.00 720.00 502.75" xmlns="http://www.w3.org/2000/svg" xmlns:xlink="http://www.w3.org/1999/xlink">
<g id="graph0" class="graph" transform="scale(.8978 .8978) rotate(0) translate(36 523.9627)">
<title>fst</title>
<polygon fill="#ffffff" stroke="transparent" points="-36,36 -36,-523.9627 765.9383,-523.9627 765.9383,36 -36,36"/>
<!-- start -->
<g id="node1" class="node">
<title>start</title>
<ellipse fill="#000000" stroke="#000000" cx="1.8" cy="-200.426" rx="1.8" ry="1.8"/>
</g>
<!-- 0, λ -->
<g id="node2" class="node">
<title>0, λ</title>
<ellipse fill="none" stroke="#000000" cx="181.3367" cy="-200.426" rx="28.946" ry="28.946"/>
<ellipse fill="none" stroke="#000000" cx="181.3367" cy="-200.426" rx="32.9752" ry="32.9752"/>
<text text-anchor="middle" x="181.3367" y="-196.226" font-family="Times,serif" font-size="14.00" fill="#000000">0, λ</text>
</g>
<!-- start&#45;&gt;0, λ -->
<g id="edge14" class="edge">
<title>start&#45;&gt;0, λ</title>
<path fill="none" stroke="#000000" d="M3.8163,-200.426C16.8447,-200.426 90.1116,-200.426 138.3556,-200.426"/>
<polygon fill="#000000" stroke="#000000" points="138.5375,-203.926 148.5375,-200.426 138.5374,-196.926 138.5375,-203.926"/>
</g>
<!-- 0, λ&#45;&gt;0, λ -->
<g id="edge1" class="edge">
<title>0, λ&#45;&gt;0, λ</title>
<path fill="none" stroke="#000000" d="M167.1,-230.1798C156.8372,-264.8569 161.5828,-305.1627 181.3367,-305.1627 199.2387,-305.1627 204.8145,-272.06 198.0641,-240.0433"/>
<polygon fill="#000000" stroke="#000000" points="201.4153,-239.0185 195.5734,-230.1798 194.6283,-240.7324 201.4153,-239.0185"/>
<text text-anchor="middle" x="181.3367" y="-309.3627" font-family="Times,serif" font-size="14.00" fill="#000000">?:?, i:i</text>
</g>
<!-- 1, λ -->
<g id="node3" class="node">
<title>1, λ</title>
<ellipse fill="none" stroke="#000000" cx="408.7008" cy="-96.426" rx="28.946" ry="28.946"/>
<ellipse fill="none" stroke="#000000" cx="408.7008" cy="-96.426" rx="32.9752" ry="32.9752"/>
<text text-anchor="middle" x="408.7008" y="-92.226" font-family="Times,serif" font-size="14.00" fill="#000000">1, λ</text>
</g>
<!-- 0, λ&#45;&gt;1, λ -->
<g id="edge2" class="edge">
<title>0, λ&#45;&gt;1, λ</title>
<path fill="none" stroke="#000000" d="M211.5289,-186.6156C252.2404,-167.9935 324.7896,-134.8083 369.6214,-114.3015"/>
<polygon fill="#000000" stroke="#000000" points="371.1079,-117.4704 378.7458,-110.1278 368.1961,-111.1047 371.1079,-117.4704"/>
<text text-anchor="middle" x="295.0187" y="-155.626" font-family="Times,serif" font-size="14.00" fill="#000000">ɔ:ɔ</text>
</g>
<!-- 2, λ -->
<g id="node4" class="node">
<title>2, λ</title>
<ellipse fill="none" stroke="#000000" cx="408.7008" cy="-267.426" rx="28.946" ry="28.946"/>
<ellipse fill="none" stroke="#000000" cx="408.7008" cy="-267.426" rx="32.9752" ry="32.9752"/>
<text text-anchor="middle" x="408.7008" y="-263.226" font-family="Times,serif" font-size="14.00" fill="#000000">2, λ</text>
</g>
<!-- 0, λ&#45;&gt;2, λ -->
<g id="edge3" class="edge">
<title>0, λ&#45;&gt;2, λ</title>
<path fill="none" stroke="#000000" d="M212.9507,-209.742C253.2216,-221.6091 322.9125,-242.1457 367.3613,-255.244"/>
<polygon fill="#000000" stroke="#000000" points="366.4081,-258.6118 376.9896,-258.0813 368.3868,-251.8973 366.4081,-258.6118"/>
<text text-anchor="middle" x="295.0187" y="-239.626" font-family="Times,serif" font-size="14.00" fill="#000000">o:o</text>
</g>
<!-- 3, λ -->
<g id="node5" class="node">
<title>3, λ</title>
<ellipse fill="none" stroke="#000000" cx="638.386" cy="-366.426" rx="28.946" ry="28.946"/>
<ellipse fill="none" stroke="#000000" cx="638.386" cy="-366.426" rx="32.9752" ry="32.9752"/>
<text text-anchor="middle" x="638.386" y="-362.226" font-family="Times,serif" font-size="14.00" fill="#000000">3, λ</text>
</g>
<!-- 0, λ&#45;&gt;3, λ -->
<g id="edge4" class="edge">
<title>0, λ&#45;&gt;3, λ</title>
<path fill="none" stroke="#000000" d="M201.0375,-226.9762C232.6704,-267.1057 299.096,-341.5821 375.964,-370.426 449.5528,-398.0393 543.1204,-386.6232 596.3297,-376.2382"/>
<polygon fill="#000000" stroke="#000000" points="597.3138,-379.6098 606.4156,-374.1868 595.9186,-372.7502 597.3138,-379.6098"/>
<text text-anchor="middle" x="408.7008" y="-388.626" font-family="Times,serif" font-size="14.00" fill="#000000">a:a, ʊ:ʊ</text>
</g>
<!-- 4, λ -->
<g id="node6" class="node">
<title>4, λ</title>
<ellipse fill="none" stroke="#000000" cx="638.386" cy="-84.426" rx="28.946" ry="28.946"/>
<ellipse fill="none" stroke="#000000" cx="638.386" cy="-84.426" rx="32.9752" ry="32.9752"/>
<text text-anchor="middle" x="638.386" y="-80.226" font-family="Times,serif" font-size="14.00" fill="#000000">4, λ</text>
</g>
<!-- 0, λ&#45;&gt;4, λ -->
<g id="edge5" class="edge">
<title>0, λ&#45;&gt;4, λ</title>
<path fill="none" stroke="#000000" d="M199.038,-172.6779C229.1081,-128.4553 294.8699,-43.6213 375.964,-10.626 454.5367,21.3435 551.7259,-27.6313 602.9458,-59.8759"/>
<polygon fill="#000000" stroke="#000000" points="601.3569,-63.0154 611.6606,-65.4819 605.1439,-57.1282 601.3569,-63.0154"/>
<text text-anchor="middle" x="408.7008" y="-15.626" font-family="Times,serif" font-size="14.00" fill="#000000">e:e, u:u</text>
</g>
<!-- 1, λ&#45;&gt;1, λ -->
<g id="edge6" class="edge">
<title>1, λ&#45;&gt;1, λ</title>
<path fill="none" stroke="#000000" d="M393.5407,-125.6454C382.2646,-160.4414 387.318,-201.1627 408.7008,-201.1627 428.0789,-201.1627 434.0459,-167.7187 426.6017,-135.5496"/>
<polygon fill="#000000" stroke="#000000" points="429.9012,-134.3496 423.8608,-125.6454 423.1548,-136.2167 429.9012,-134.3496"/>
<text text-anchor="middle" x="408.7008" y="-205.3627" font-family="Times,serif" font-size="14.00" fill="#000000">?:?, i:i, ɔ:ɔ, a:ɔ, e:ɔ, o:ɔ</text>
</g>
<!-- 1, λ&#45;&gt;3, λ -->
<g id="edge7" class="edge">
<title>1, λ&#45;&gt;3, λ</title>
<path fill="none" stroke="#000000" d="M439.0608,-109.0376C466.4852,-121.6384 506.5805,-143.2128 533.6493,-171.626 576.7725,-216.891 607.4088,-283.3756 623.9983,-325.7784"/>
<polygon fill="#000000" stroke="#000000" points="620.7724,-327.1416 627.6185,-335.2275 627.3091,-324.6372 620.7724,-327.1416"/>
<text text-anchor="middle" x="523.5434" y="-175.626" font-family="Times,serif" font-size="14.00" fill="#000000">ʊ:ʊ</text>
</g>
<!-- 1, λ&#45;&gt;4, λ -->
<g id="edge8" class="edge">
<title>1, λ&#45;&gt;4, λ</title>
<path fill="none" stroke="#000000" d="M441.053,-89.0856C461.65,-84.7943 488.9638,-79.805 513.4375,-77.626 540.6751,-75.2008 571.3353,-76.8045 595.4675,-79.0614"/>
<polygon fill="#000000" stroke="#000000" points="595.4189,-82.5742 605.7197,-80.0953 596.1214,-75.6095 595.4189,-82.5742"/>
<text text-anchor="middle" x="523.5434" y="-81.626" font-family="Times,serif" font-size="14.00" fill="#000000">u:u</text>
</g>
<!-- 2, λ&#45;&gt;2, λ -->
<g id="edge9" class="edge">
<title>2, λ&#45;&gt;2, λ</title>
<path fill="none" stroke="#000000" d="M393.5407,-296.6454C382.2646,-331.4414 387.318,-372.1627 408.7008,-372.1627 428.0789,-372.1627 434.0459,-338.7187 426.6017,-306.5496"/>
<polygon fill="#000000" stroke="#000000" points="429.9012,-305.3496 423.8608,-296.6454 423.1548,-307.2167 429.9012,-305.3496"/>
<text text-anchor="middle" x="408.7008" y="-376.3627" font-family="Times,serif" font-size="14.00" fill="#000000">?:?, i:i, ɔ:o, o:o, e:o, a:o</text>
</g>
<!-- 2, λ&#45;&gt;3, λ -->
<g id="edge10" class="edge">
<title>2, λ&#45;&gt;3, λ</title>
<path fill="none" stroke="#000000" d="M439.2012,-280.5724C480.3283,-298.2992 553.6182,-329.8889 598.9076,-349.4098"/>
<polygon fill="#000000" stroke="#000000" points="597.5566,-352.6387 608.1253,-353.3828 600.3274,-346.2104 597.5566,-352.6387"/>
<text text-anchor="middle" x="523.5434" y="-323.626" font-family="Times,serif" font-size="14.00" fill="#000000">ʊ:ʊ</text>
</g>
<!-- 2, λ&#45;&gt;4, λ -->
<g id="edge11" class="edge">
<title>2, λ&#45;&gt;4, λ</title>
<path fill="none" stroke="#000000" d="M438.5487,-253.6746C464.8997,-240.8093 503.6764,-220.0658 533.6493,-196.426 562.946,-173.3195 591.5574,-141.943 611.4526,-118.2779"/>
<polygon fill="#000000" stroke="#000000" points="614.1568,-120.4999 617.8539,-110.5711 608.772,-116.0273 614.1568,-120.4999"/>
<text text-anchor="middle" x="523.5434" y="-213.626" font-family="Times,serif" font-size="14.00" fill="#000000">u:u</text>
</g>
<!-- 3, λ&#45;&gt;3, λ -->
<g id="edge12" class="edge">
<title>3, λ&#45;&gt;3, λ</title>
<path fill="none" stroke="#000000" d="M623.0436,-395.3785C611.4516,-430.2328 616.5657,-471.1627 638.386,-471.1627 658.1607,-471.1627 664.2147,-437.5475 656.5482,-405.3028"/>
<polygon fill="#000000" stroke="#000000" points="659.8283,-404.0412 653.7284,-395.3785 653.0949,-405.9544 659.8283,-404.0412"/>
<text text-anchor="middle" x="638.386" y="-475.3627" font-family="Times,serif" font-size="14.00" fill="#000000">?:?, i:i, a:a, e:a, o:a, ɔ:a, u:ʊ, ʊ:ʊ</text>
</g>
<!-- 4, λ&#45;&gt;4, λ -->
<g id="edge13" class="edge">
<title>4, λ&#45;&gt;4, λ</title>
<path fill="none" stroke="#000000" d="M623.0436,-113.3785C611.4516,-148.2328 616.5657,-189.1627 638.386,-189.1627 658.1607,-189.1627 664.2147,-155.5475 656.5482,-123.3028"/>
<polygon fill="#000000" stroke="#000000" points="659.8283,-122.0412 653.7284,-113.3785 653.0949,-123.9544 659.8283,-122.0412"/>
<text text-anchor="middle" x="638.386" y="-193.3627" font-family="Times,serif" font-size="14.00" fill="#000000">?:?, i:i, e:e, o:e, a:e, ɔ:e, u:u, ʊ:u</text>
</g>
</g>
</svg>
