<?xml version="1.0" encoding="UTF-8" standalone="no"?>
<!DOCTYPE svg PUBLIC "-//W3C//DTD SVG 1.1//EN"
 "http://www.w3.org/Graphics/SVG/1.1/DTD/svg11.dtd">
<!-- Generated by graphviz version 2.40.1 (20161225.0304)
 -->
<!-- Title: fst Pages: 1 -->
<svg width="720pt" height="284pt"
 viewBox="0.00 0.00 720.00 283.71" xmlns="http://www.w3.org/2000/svg" xmlns:xlink="http://www.w3.org/1999/xlink">
<g id="graph0" class="graph" transform="scale(.9337 .9337) rotate(0) translate(36 267.8681)">
<title>fst</title>
<polygon fill="#ffffff" stroke="transparent" points="-36,36 -36,-267.8681 735.1525,-267.8681 735.1525,36 -36,36"/>
<!-- start -->
<g id="node1" class="node">
<title>start</title>
<ellipse fill="#000000" stroke="#000000" cx="1.8" cy="-37.0341" rx="1.8" ry="1.8"/>
</g>
<!-- 0, ulɑ -->
<g id="node2" class="node">
<title>0, ulɑ</title>
<ellipse fill="none" stroke="#000000" cx="185.6341" cy="-37.0341" rx="33.0645" ry="33.0645"/>
<ellipse fill="none" stroke="#000000" cx="185.6341" cy="-37.0341" rx="37.0682" ry="37.0682"/>
<text text-anchor="middle" x="185.6341" y="-32.8341" font-family="Times,serif" font-size="14.00" fill="#000000">0, ulɑ</text>
</g>
<!-- start&#45;&gt;0, ulɑ -->
<g id="edge8" class="edge">
<title>start&#45;&gt;0, ulɑ</title>
<path fill="none" stroke="#000000" d="M3.8645,-37.0341C16.9013,-37.0341 88.844,-37.0341 138.214,-37.0341"/>
<polygon fill="#000000" stroke="#000000" points="138.3772,-40.5342 148.3771,-37.0341 138.3771,-33.5342 138.3772,-40.5342"/>
</g>
<!-- 0, ulɑ&#45;&gt;0, ulɑ -->
<g id="edge1" class="edge">
<title>0, ulɑ&#45;&gt;0, ulɑ</title>
<path fill="none" stroke="#000000" d="M170.0588,-70.8036C160.456,-106.2382 165.6477,-146.0681 185.6341,-146.0681 203.7467,-146.0681 209.7087,-113.3562 203.52,-80.849"/>
<polygon fill="#000000" stroke="#000000" points="206.8621,-79.7645 201.2093,-70.8036 200.0402,-81.3337 206.8621,-79.7645"/>
<text text-anchor="middle" x="185.6341" y="-150.2681" font-family="Times,serif" font-size="14.00" fill="#000000">?:?, e:e, i:i, ɑ:ɑ</text>
</g>
<!-- 1, ulɑ -->
<g id="node3" class="node">
<title>1, ulɑ</title>
<ellipse fill="none" stroke="#000000" cx="421.5928" cy="-106.0341" rx="33.0645" ry="33.0645"/>
<ellipse fill="none" stroke="#000000" cx="421.5928" cy="-106.0341" rx="37.0682" ry="37.0682"/>
<text text-anchor="middle" x="421.5928" y="-101.8341" font-family="Times,serif" font-size="14.00" fill="#000000">1, ulɑ</text>
</g>
<!-- 0, ulɑ&#45;&gt;1, ulɑ -->
<g id="edge2" class="edge">
<title>0, ulɑ&#45;&gt;1, ulɑ</title>
<path fill="none" stroke="#000000" d="M221.2149,-47.4388C262.5088,-59.5141 330.7017,-79.4553 375.8865,-92.6685"/>
<polygon fill="#000000" stroke="#000000" points="375.1417,-96.0972 385.7222,-95.5446 377.1065,-89.3785 375.1417,-96.0972"/>
<text text-anchor="middle" x="303.6134" y="-78.2341" font-family="Times,serif" font-size="14.00" fill="#000000">u:u</text>
</g>
<!-- 2, olɑ -->
<g id="node4" class="node">
<title>2, olɑ</title>
<ellipse fill="none" stroke="#000000" cx="657.5515" cy="-94.0341" rx="33.0645" ry="33.0645"/>
<ellipse fill="none" stroke="#000000" cx="657.5515" cy="-94.0341" rx="37.0682" ry="37.0682"/>
<text text-anchor="middle" x="657.5515" y="-89.8341" font-family="Times,serif" font-size="14.00" fill="#000000">2, olɑ</text>
</g>
<!-- 0, ulɑ&#45;&gt;2, olɑ -->
<g id="edge3" class="edge">
<title>0, ulɑ&#45;&gt;2, olɑ</title>
<path fill="none" stroke="#000000" d="M221.7371,-28.3359C274.3035,-17.0099 374.785,-.4218 458.6268,-16.2341 515.1345,-26.8912 576.1734,-53.1836 615.5204,-72.2593"/>
<polygon fill="#000000" stroke="#000000" points="614.0332,-75.4281 624.5519,-76.6962 617.1198,-69.1454 614.0332,-75.4281"/>
<text text-anchor="middle" x="421.5928" y="-21.2341" font-family="Times,serif" font-size="14.00" fill="#000000">o:o</text>
</g>
<!-- 1, ulɑ&#45;&gt;1, ulɑ -->
<g id="edge6" class="edge">
<title>1, ulɑ&#45;&gt;1, ulɑ</title>
<path fill="none" stroke="#000000" d="M405.0284,-139.243C394.4912,-174.8167 400.0127,-215.0681 421.5928,-215.0681 441.1497,-215.0681 447.5179,-182.0101 440.6973,-149.3344"/>
<polygon fill="#000000" stroke="#000000" points="443.9924,-148.0861 438.1572,-139.243 437.2041,-149.7949 443.9924,-148.0861"/>
<text text-anchor="middle" x="421.5928" y="-219.2681" font-family="Times,serif" font-size="14.00" fill="#000000">?:?, e:e, i:i, ɑ:ɑ</text>
</g>
<!-- 1, ulɑ&#45;&gt;2, olɑ -->
<g id="edge5" class="edge">
<title>1, ulɑ&#45;&gt;2, olɑ</title>
<path fill="none" stroke="#000000" d="M458.5702,-110.2939C483.9139,-112.5978 518.2862,-114.5127 548.5174,-112.0341 569.1023,-110.3464 591.6555,-106.895 610.8816,-103.4618"/>
<polygon fill="#000000" stroke="#000000" points="611.6914,-106.8717 620.8946,-101.6228 610.4269,-99.9869 611.6914,-106.8717"/>
<text text-anchor="middle" x="539.5721" y="-117.2341" font-family="Times,serif" font-size="14.00" fill="#000000">o:o</text>
</g>
<!-- 2, olɑ&#45;&gt;1, ulɑ -->
<g id="edge4" class="edge">
<title>2, olɑ&#45;&gt;1, ulɑ</title>
<path fill="none" stroke="#000000" d="M620.5744,-89.3488C595.2309,-86.8005 560.8587,-84.6468 530.6268,-87.2341 510.0234,-88.9973 487.4671,-92.6021 468.2439,-96.1878"/>
<polygon fill="#000000" stroke="#000000" points="467.3943,-92.7869 458.2329,-98.1085 468.7133,-99.6615 467.3943,-92.7869"/>
<text text-anchor="middle" x="539.5721" y="-92.2341" font-family="Times,serif" font-size="14.00" fill="#000000">u:u</text>
</g>
<!-- 2, olɑ&#45;&gt;2, olɑ -->
<g id="edge7" class="edge">
<title>2, olɑ&#45;&gt;2, olɑ</title>
<path fill="none" stroke="#000000" d="M640.9871,-127.243C630.45,-162.8167 635.9714,-203.0681 657.5515,-203.0681 677.1085,-203.0681 683.4766,-170.0101 676.6561,-137.3344"/>
<polygon fill="#000000" stroke="#000000" points="679.9511,-136.0861 674.1159,-127.243 673.1628,-137.7949 679.9511,-136.0861"/>
<text text-anchor="middle" x="657.5515" y="-207.2681" font-family="Times,serif" font-size="14.00" fill="#000000">?:?, e:e, i:i, ɑ:ɑ</text>
</g>
</g>
</svg>
