<?xml version="1.0" encoding="UTF-8" standalone="no"?>
<!DOCTYPE svg PUBLIC "-//W3C//DTD SVG 1.1//EN"
 "http://www.w3.org/Graphics/SVG/1.1/DTD/svg11.dtd">
<!-- Generated by graphviz version 2.40.1 (20161225.0304)
 -->
<!-- Title: fst Pages: 1 -->
<svg width="720pt" height="265pt"
 viewBox="0.00 0.00 720.00 265.45" xmlns="http://www.w3.org/2000/svg" xmlns:xlink="http://www.w3.org/1999/xlink">
<g id="graph0" class="graph" transform="scale(.892 .892) rotate(0) translate(36 261.5785)">
<title>fst</title>
<polygon fill="#ffffff" stroke="transparent" points="-36,36 -36,-261.5785 771.1325,-261.5785 771.1325,36 -36,36"/>
<!-- start -->
<g id="node1" class="node">
<title>start</title>
<ellipse fill="#000000" stroke="#000000" cx="1.8" cy="-34.8893" rx="1.8" ry="1.8"/>
</g>
<!-- 0, ilɑ -->
<g id="node2" class="node">
<title>0, ilɑ</title>
<ellipse fill="none" stroke="#000000" cx="183.4893" cy="-34.8893" rx="30.7915" ry="30.7915"/>
<ellipse fill="none" stroke="#000000" cx="183.4893" cy="-34.8893" rx="34.7789" ry="34.7789"/>
<text text-anchor="middle" x="183.4893" y="-30.6893" font-family="Times,serif" font-size="14.00" fill="#000000">0, ilɑ</text>
</g>
<!-- start&#45;&gt;0, ilɑ -->
<g id="edge8" class="edge">
<title>start&#45;&gt;0, ilɑ</title>
<path fill="none" stroke="#000000" d="M3.8405,-34.8893C16.8707,-34.8893 89.4427,-34.8893 138.2679,-34.8893"/>
<polygon fill="#000000" stroke="#000000" points="138.2962,-38.3894 148.2962,-34.8893 138.2962,-31.3894 138.2962,-38.3894"/>
</g>
<!-- 0, ilɑ&#45;&gt;0, ilɑ -->
<g id="edge1" class="edge">
<title>0, ilɑ&#45;&gt;0, ilɑ</title>
<path fill="none" stroke="#000000" d="M168.583,-66.622C158.6455,-101.695 163.6143,-141.7785 183.4893,-141.7785 201.501,-141.7785 207.2704,-108.8584 200.7974,-76.5812"/>
<polygon fill="#000000" stroke="#000000" points="204.1425,-75.5227 198.3955,-66.622 197.3376,-77.1639 204.1425,-75.5227"/>
<text text-anchor="middle" x="183.4893" y="-145.9785" font-family="Times,serif" font-size="14.00" fill="#000000">?:?, ɑ:ɑ</text>
</g>
<!-- 1, ilɑ -->
<g id="node3" class="node">
<title>1, ilɑ</title>
<ellipse fill="none" stroke="#000000" cx="433.8302" cy="-101.8893" rx="30.7915" ry="30.7915"/>
<ellipse fill="none" stroke="#000000" cx="433.8302" cy="-101.8893" rx="34.7789" ry="34.7789"/>
<text text-anchor="middle" x="433.8302" y="-97.6893" font-family="Times,serif" font-size="14.00" fill="#000000">1, ilɑ</text>
</g>
<!-- 0, ilɑ&#45;&gt;1, ilɑ -->
<g id="edge2" class="edge">
<title>0, ilɑ&#45;&gt;1, ilɑ</title>
<path fill="none" stroke="#000000" d="M217.2513,-43.9252C261.9511,-55.8884 340.8473,-77.0038 390.0729,-90.1783"/>
<polygon fill="#000000" stroke="#000000" points="389.2385,-93.5781 399.8035,-92.7825 391.0483,-86.8161 389.2385,-93.5781"/>
<text text-anchor="middle" x="308.6597" y="-77.0893" font-family="Times,serif" font-size="14.00" fill="#000000">i:i, u:u</text>
</g>
<!-- 2, elɑ -->
<g id="node4" class="node">
<title>2, elɑ</title>
<ellipse fill="none" stroke="#000000" cx="690.4221" cy="-91.8893" rx="32.4855" ry="32.4855"/>
<ellipse fill="none" stroke="#000000" cx="690.4221" cy="-91.8893" rx="36.4846" ry="36.4846"/>
<text text-anchor="middle" x="690.4221" y="-87.6893" font-family="Times,serif" font-size="14.00" fill="#000000">2, elɑ</text>
</g>
<!-- 0, ilɑ&#45;&gt;2, elɑ -->
<g id="edge3" class="edge">
<title>0, ilɑ&#45;&gt;2, elɑ</title>
<path fill="none" stroke="#000000" d="M217.5511,-27.1477C271.2972,-16.1094 378.9047,1.2123 468.7194,-14.0893 533.343,-25.099 604.2004,-52.9459 647.9974,-72.1515"/>
<polygon fill="#000000" stroke="#000000" points="646.6279,-75.3728 657.188,-76.2295 649.467,-68.9744 646.6279,-75.3728"/>
<text text-anchor="middle" x="433.8302" y="-19.0893" font-family="Times,serif" font-size="14.00" fill="#000000">e:e, o:o</text>
</g>
<!-- 1, ilɑ&#45;&gt;1, ilɑ -->
<g id="edge4" class="edge">
<title>1, ilɑ&#45;&gt;1, ilɑ</title>
<path fill="none" stroke="#000000" d="M416.7616,-132.5277C404.6485,-167.8556 410.338,-208.7785 433.8302,-208.7785 455.2117,-208.7785 461.8458,-174.8786 453.7325,-142.1514"/>
<polygon fill="#000000" stroke="#000000" points="457.0809,-141.1318 450.8987,-132.5277 450.366,-143.1091 457.0809,-141.1318"/>
<text text-anchor="middle" x="433.8302" y="-212.9785" font-family="Times,serif" font-size="14.00" fill="#000000">i:i, u:u, ?:?, ɑ:ɑ</text>
</g>
<!-- 1, ilɑ&#45;&gt;2, elɑ -->
<g id="edge5" class="edge">
<title>1, ilɑ&#45;&gt;2, elɑ</title>
<path fill="none" stroke="#000000" d="M468.5795,-106.434C498.6165,-109.7249 543.1798,-113.0819 581.9298,-109.8893 602.5757,-108.1882 625.2095,-104.6957 644.4375,-101.2359"/>
<polygon fill="#000000" stroke="#000000" points="645.2472,-104.6455 654.4433,-99.3842 643.9733,-97.7624 645.2472,-104.6455"/>
<text text-anchor="middle" x="561.3246" y="-116.0893" font-family="Times,serif" font-size="14.00" fill="#000000">e:e, o:o</text>
</g>
<!-- 2, elɑ&#45;&gt;1, ilɑ -->
<g id="edge7" class="edge">
<title>2, elɑ&#45;&gt;1, ilɑ</title>
<path fill="none" stroke="#000000" d="M654.0808,-87.7364C623.7396,-84.8695 579.3668,-82.0706 540.7194,-85.0893 520.0821,-86.7012 497.4062,-90.0382 478.2706,-93.3166"/>
<polygon fill="#000000" stroke="#000000" points="477.5697,-89.886 468.3287,-95.0681 478.7843,-96.7799 477.5697,-89.886"/>
<text text-anchor="middle" x="561.3246" y="-90.0893" font-family="Times,serif" font-size="14.00" fill="#000000">i:i, u:u</text>
</g>
<!-- 2, elɑ&#45;&gt;2, elɑ -->
<g id="edge6" class="edge">
<title>2, elɑ&#45;&gt;2, elɑ</title>
<path fill="none" stroke="#000000" d="M672.5162,-123.8199C660.391,-159.4848 666.3596,-200.3816 690.4221,-200.3816 712.3228,-200.3816 719.2347,-166.5033 711.158,-133.5259"/>
<polygon fill="#000000" stroke="#000000" points="714.4873,-132.4404 708.328,-123.8199 707.7671,-134.3999 714.4873,-132.4404"/>
<text text-anchor="middle" x="690.4221" y="-204.5816" font-family="Times,serif" font-size="14.00" fill="#000000">?:?, e:e, o:o, ɑ:ɑ</text>
</g>
</g>
</svg>
