<?xml version="1.0" encoding="UTF-8" standalone="no"?>
<!DOCTYPE svg PUBLIC "-//W3C//DTD SVG 1.1//EN"
 "http://www.w3.org/Graphics/SVG/1.1/DTD/svg11.dtd">
<!-- Generated by graphviz version 2.40.1 (20161225.0304)
 -->
<!-- Title: fst Pages: 1 -->
<svg width="647pt" height="365pt"
 viewBox="0.00 0.00 646.89 365.19" xmlns="http://www.w3.org/2000/svg" xmlns:xlink="http://www.w3.org/1999/xlink">
<g id="graph0" class="graph" transform="scale(1 1) rotate(0) translate(36 329.1869)">
<title>fst</title>
<polygon fill="#ffffff" stroke="transparent" points="-36,36 -36,-329.1869 610.8919,-329.1869 610.8919,36 -36,36"/>
<!-- start -->
<g id="node1" class="node">
<title>start</title>
<ellipse fill="#000000" stroke="#000000" cx="1.8" cy="-101.6935" rx="1.8" ry="1.8"/>
</g>
<!-- 0,  -->
<g id="node2" class="node">
<title>0, </title>
<ellipse fill="none" stroke="#000000" cx="173.2935" cy="-101.6935" rx="20.8568" ry="20.8568"/>
<ellipse fill="none" stroke="#000000" cx="173.2935" cy="-101.6935" rx="24.8884" ry="24.8884"/>
<text text-anchor="middle" x="173.2935" y="-97.4935" font-family="Times,serif" font-size="14.00" fill="#000000">0, </text>
</g>
<!-- start&#45;&gt;0,  -->
<g id="edge6" class="edge">
<title>start&#45;&gt;0, </title>
<path fill="none" stroke="#000000" d="M3.726,-101.6935C16.733,-101.6935 92.5973,-101.6935 138.3308,-101.6935"/>
<polygon fill="#000000" stroke="#000000" points="138.4256,-105.1936 148.4256,-101.6935 138.4255,-98.1936 138.4256,-105.1936"/>
</g>
<!-- 0, &#45;&gt;0,  -->
<g id="edge1" class="edge">
<title>0, &#45;&gt;0, </title>
<path fill="none" stroke="#000000" d="M161.8072,-124.0297C150.246,-157.0504 154.0747,-198.3869 173.2935,-198.3869 190.6354,-198.3869 195.4464,-164.7297 187.7264,-133.8954"/>
<polygon fill="#000000" stroke="#000000" points="190.9953,-132.6097 184.7797,-124.0297 184.2881,-134.6131 190.9953,-132.6097"/>
<text text-anchor="middle" x="173.2935" y="-202.5869" font-family="Times,serif" font-size="14.00" fill="#000000">?:?</text>
</g>
<!-- 1,  -->
<g id="node3" class="node">
<title>1, </title>
<ellipse fill="none" stroke="#000000" cx="463.8852" cy="-179.6935" rx="20.8568" ry="20.8568"/>
<ellipse fill="none" stroke="#000000" cx="463.8852" cy="-179.6935" rx="24.8884" ry="24.8884"/>
<text text-anchor="middle" x="463.8852" y="-175.4935" font-family="Times,serif" font-size="14.00" fill="#000000">1, </text>
</g>
<!-- 0, &#45;&gt;1,  -->
<g id="edge4" class="edge">
<title>0, &#45;&gt;1, </title>
<path fill="none" stroke="#000000" d="M197.5693,-108.2095C249.2993,-122.0948 370.5026,-154.6279 429.8838,-170.5669"/>
<polygon fill="#000000" stroke="#000000" points="429.3173,-174.0386 439.8827,-173.2508 431.132,-167.2779 429.3173,-174.0386"/>
<text text-anchor="middle" x="318.5893" y="-155.8935" font-family="Times,serif" font-size="14.00" fill="#000000">i:i, ɨ:ɨ, ɛ:ɛ, a:a</text>
</g>
<!-- 2,  -->
<g id="node4" class="node">
<title>2, </title>
<ellipse fill="none" stroke="#000000" cx="463.8852" cy="-24.6935" rx="20.8568" ry="20.8568"/>
<ellipse fill="none" stroke="#000000" cx="463.8852" cy="-24.6935" rx="24.8884" ry="24.8884"/>
<text text-anchor="middle" x="463.8852" y="-20.4935" font-family="Times,serif" font-size="14.00" fill="#000000">2, </text>
</g>
<!-- 0, &#45;&gt;2,  -->
<g id="edge5" class="edge">
<title>0, &#45;&gt;2, </title>
<path fill="none" stroke="#000000" d="M194.897,-89.624C214.0648,-79.4226 243.1144,-65.1831 269.9869,-56.8935 324.1994,-40.1699 389.7774,-31.5871 429.0931,-27.6248"/>
<polygon fill="#000000" stroke="#000000" points="429.5978,-31.0925 439.2157,-26.6488 428.9259,-24.1248 429.5978,-31.0925"/>
<text text-anchor="middle" x="318.5893" y="-61.8935" font-family="Times,serif" font-size="14.00" fill="#000000">y:y, u:u, ø:ø, ɔ:ɔ</text>
</g>
<!-- 1, &#45;&gt;1,  -->
<g id="edge2" class="edge">
<title>1, &#45;&gt;1, </title>
<path fill="none" stroke="#000000" d="M448.2379,-199.1529C428.9975,-232.5953 434.2133,-276.3869 463.8852,-276.3869 490.8912,-276.3869 497.6382,-240.1106 484.1261,-208.378"/>
<polygon fill="#000000" stroke="#000000" points="487.123,-206.5444 479.5324,-199.1529 480.8569,-209.6646 487.123,-206.5444"/>
<text text-anchor="middle" x="463.8852" y="-280.5869" font-family="Times,serif" font-size="14.00" fill="#000000">?:?, i:i, ɨ:ɨ, ɛ:ɛ, a:a, y:i, u:ɨ, ø:ɛ, ɔ:a</text>
</g>
<!-- 2, &#45;&gt;2,  -->
<g id="edge3" class="edge">
<title>2, &#45;&gt;2, </title>
<path fill="none" stroke="#000000" d="M448.2379,-44.1529C428.9975,-77.5953 434.2133,-121.3869 463.8852,-121.3869 490.8912,-121.3869 497.6382,-85.1106 484.1261,-53.378"/>
<polygon fill="#000000" stroke="#000000" points="487.123,-51.5444 479.5324,-44.1529 480.8569,-54.6646 487.123,-51.5444"/>
<text text-anchor="middle" x="463.8852" y="-125.5869" font-family="Times,serif" font-size="14.00" fill="#000000">?:?, y:y, u:u, ø:ø, ɔ:ɔ, i:y, ɨ:u, ɛ:ø, a:ɔ</text>
</g>
</g>
</svg>
