<?xml version="1.0" encoding="UTF-8" standalone="no"?>
<!DOCTYPE svg PUBLIC "-//W3C//DTD SVG 1.1//EN"
 "http://www.w3.org/Graphics/SVG/1.1/DTD/svg11.dtd">
<!-- Generated by graphviz version 2.40.1 (20161225.0304)
 -->
<!-- Title: fst Pages: 1 -->
<svg width="671pt" height="397pt"
 viewBox="0.00 0.00 671.02 397.27" xmlns="http://www.w3.org/2000/svg" xmlns:xlink="http://www.w3.org/1999/xlink">
<g id="graph0" class="graph" transform="scale(1 1) rotate(0) translate(36 361.2734)">
<title>fst</title>
<polygon fill="#ffffff" stroke="transparent" points="-36,36 -36,-361.2734 635.0217,-361.2734 635.0217,36 -36,36"/>
<!-- start -->
<g id="node1" class="node">
<title>start</title>
<ellipse fill="#000000" stroke="#000000" cx="1.8" cy="-117.7367" rx="1.8" ry="1.8"/>
</g>
<!-- 0, λ -->
<g id="node2" class="node">
<title>0, λ</title>
<ellipse fill="none" stroke="#000000" cx="181.3367" cy="-117.7367" rx="28.946" ry="28.946"/>
<ellipse fill="none" stroke="#000000" cx="181.3367" cy="-117.7367" rx="32.9752" ry="32.9752"/>
<text text-anchor="middle" x="181.3367" y="-113.5367" font-family="Times,serif" font-size="14.00" fill="#000000">0, λ</text>
</g>
<!-- start&#45;&gt;0, λ -->
<g id="edge6" class="edge">
<title>start&#45;&gt;0, λ</title>
<path fill="none" stroke="#000000" d="M3.8163,-117.7367C16.8447,-117.7367 90.1116,-117.7367 138.3556,-117.7367"/>
<polygon fill="#000000" stroke="#000000" points="138.5375,-121.2368 148.5375,-117.7367 138.5374,-114.2368 138.5375,-121.2368"/>
</g>
<!-- 0, λ&#45;&gt;0, λ -->
<g id="edge1" class="edge">
<title>0, λ&#45;&gt;0, λ</title>
<path fill="none" stroke="#000000" d="M167.1,-147.4906C156.8372,-182.1677 161.5828,-222.4734 181.3367,-222.4734 199.2387,-222.4734 204.8145,-189.3708 198.0641,-157.3541"/>
<polygon fill="#000000" stroke="#000000" points="201.4153,-156.3293 195.5734,-147.4906 194.6283,-158.0432 201.4153,-156.3293"/>
<text text-anchor="middle" x="181.3367" y="-226.6734" font-family="Times,serif" font-size="14.00" fill="#000000">?:?</text>
</g>
<!-- 1, λ -->
<g id="node3" class="node">
<title>1, λ</title>
<ellipse fill="none" stroke="#000000" cx="488.015" cy="-203.7367" rx="28.946" ry="28.946"/>
<ellipse fill="none" stroke="#000000" cx="488.015" cy="-203.7367" rx="32.9752" ry="32.9752"/>
<text text-anchor="middle" x="488.015" y="-199.5367" font-family="Times,serif" font-size="14.00" fill="#000000">1, λ</text>
</g>
<!-- 0, λ&#45;&gt;1, λ -->
<g id="edge4" class="edge">
<title>0, λ&#45;&gt;1, λ</title>
<path fill="none" stroke="#000000" d="M213.0016,-126.6163C268.6694,-142.2269 384.0486,-174.582 446.1978,-192.0102"/>
<polygon fill="#000000" stroke="#000000" points="445.4893,-195.4464 456.0629,-194.7766 447.3794,-188.7064 445.4893,-195.4464"/>
<text text-anchor="middle" x="334.6758" y="-176.9367" font-family="Times,serif" font-size="14.00" fill="#000000">i:i, ɨ:ɨ, ɛ:ɛ, a:a</text>
</g>
<!-- 2, λ -->
<g id="node4" class="node">
<title>2, λ</title>
<ellipse fill="none" stroke="#000000" cx="488.015" cy="-32.7367" rx="28.946" ry="28.946"/>
<ellipse fill="none" stroke="#000000" cx="488.015" cy="-32.7367" rx="32.9752" ry="32.9752"/>
<text text-anchor="middle" x="488.015" y="-28.5367" font-family="Times,serif" font-size="14.00" fill="#000000">2, λ</text>
</g>
<!-- 0, λ&#45;&gt;2, λ -->
<g id="edge5" class="edge">
<title>0, λ&#45;&gt;2, λ</title>
<path fill="none" stroke="#000000" d="M211.6014,-104.498C232.2854,-95.8115 260.4817,-84.6704 286.0734,-76.9367 340.2306,-60.5706 404.2637,-47.6003 445.474,-40.0495"/>
<polygon fill="#000000" stroke="#000000" points="446.2218,-43.4711 455.4396,-38.2478 444.9764,-36.5828 446.2218,-43.4711"/>
<text text-anchor="middle" x="334.6758" y="-81.9367" font-family="Times,serif" font-size="14.00" fill="#000000">y:y, u:u, ø:ø, ɔ:ɔ</text>
</g>
<!-- 1, λ&#45;&gt;1, λ -->
<g id="edge2" class="edge">
<title>1, λ&#45;&gt;1, λ</title>
<path fill="none" stroke="#000000" d="M468.6582,-230.2988C451.801,-265.6426 458.2532,-308.4734 488.015,-308.4734 515.219,-308.4734 522.9478,-272.6878 511.2013,-239.5448"/>
<polygon fill="#000000" stroke="#000000" points="514.432,-238.1984 507.3717,-230.2988 507.9648,-240.877 514.432,-238.1984"/>
<text text-anchor="middle" x="488.015" y="-312.6734" font-family="Times,serif" font-size="14.00" fill="#000000">?:?, i:i, ɨ:ɨ, ɛ:ɛ, a:a, y:i, u:ɨ, ø:ɛ, ɔ:a</text>
</g>
<!-- 2, λ&#45;&gt;2, λ -->
<g id="edge3" class="edge">
<title>2, λ&#45;&gt;2, λ</title>
<path fill="none" stroke="#000000" d="M468.6582,-59.2988C451.801,-94.6426 458.2532,-137.4734 488.015,-137.4734 515.219,-137.4734 522.9478,-101.6878 511.2013,-68.5448"/>
<polygon fill="#000000" stroke="#000000" points="514.432,-67.1984 507.3717,-59.2988 507.9648,-69.877 514.432,-67.1984"/>
<text text-anchor="middle" x="488.015" y="-141.6734" font-family="Times,serif" font-size="14.00" fill="#000000">?:?, y:y, u:u, ø:ø, ɔ:ɔ, i:y, ɨ:u, ɛ:ø, a:ɔ</text>
</g>
</g>
</svg>
