<?xml version="1.0" encoding="UTF-8" standalone="no"?>
<!DOCTYPE svg PUBLIC "-//W3C//DTD SVG 1.1//EN"
 "http://www.w3.org/Graphics/SVG/1.1/DTD/svg11.dtd">
<!-- Generated by graphviz version 2.40.1 (20161225.0304)
 -->
<!-- Title: fst Pages: 1 -->
<svg width="346pt" height="720pt"
 viewBox="0.00 0.00 345.99 720.00" xmlns="http://www.w3.org/2000/svg" xmlns:xlink="http://www.w3.org/1999/xlink">
<g id="graph0" class="graph" transform="scale(.1854 .1854) rotate(0) translate(36 3846.8)">
<title>fst</title>
<polygon fill="#ffffff" stroke="transparent" points="-36,36 -36,-3846.8 1829.8555,-3846.8 1829.8555,36 -36,36"/>
<!-- start -->
<g id="node1" class="node">
<title>start</title>
<ellipse fill="#000000" stroke="#000000" cx="1.8" cy="-1862" rx="1.8" ry="1.8"/>
</g>
<!-- 0, λ -->
<g id="node2" class="node">
<title>0, λ</title>
<ellipse fill="none" stroke="#000000" cx="181.3367" cy="-1862" rx="28.946" ry="28.946"/>
<ellipse fill="none" stroke="#000000" cx="181.3367" cy="-1862" rx="32.9752" ry="32.9752"/>
<text text-anchor="middle" x="181.3367" y="-1857.8" font-family="Times,serif" font-size="14.00" fill="#000000">0, λ</text>
</g>
<!-- start&#45;&gt;0, λ -->
<g id="edge62" class="edge">
<title>start&#45;&gt;0, λ</title>
<path fill="none" stroke="#000000" d="M3.8163,-1862C16.8447,-1862 90.1116,-1862 138.3556,-1862"/>
<polygon fill="#000000" stroke="#000000" points="138.5375,-1865.5001 148.5375,-1862 138.5374,-1858.5001 138.5375,-1865.5001"/>
</g>
<!-- 0, λ&#45;&gt;0, λ -->
<g id="edge1" class="edge">
<title>0, λ&#45;&gt;0, λ</title>
<path fill="none" stroke="#000000" d="M167.1,-1891.7539C156.8372,-1926.431 161.5828,-1966.7367 181.3367,-1966.7367 199.2387,-1966.7367 204.8145,-1933.6341 198.0641,-1901.6174"/>
<polygon fill="#000000" stroke="#000000" points="201.4153,-1900.5926 195.5734,-1891.7539 194.6283,-1902.3065 201.4153,-1900.5926"/>
<text text-anchor="middle" x="181.3367" y="-1970.9367" font-family="Times,serif" font-size="14.00" fill="#000000">?:?, ʔ:ʔ, h:h, ɑ:ɑ</text>
</g>
<!-- 1, λ -->
<g id="node3" class="node">
<title>1, λ</title>
<ellipse fill="none" stroke="#000000" cx="414.13" cy="-2918" rx="28.946" ry="28.946"/>
<ellipse fill="none" stroke="#000000" cx="414.13" cy="-2918" rx="32.9752" ry="32.9752"/>
<text text-anchor="middle" x="414.13" y="-2913.8" font-family="Times,serif" font-size="14.00" fill="#000000">1, λ</text>
</g>
<!-- 0, λ&#45;&gt;1, λ -->
<g id="edge3" class="edge">
<title>0, λ&#45;&gt;1, λ</title>
<path fill="none" stroke="#000000" d="M183.3653,-1894.8063C193.401,-2053.7705 239.1375,-2739.6601 286.0734,-2822 306.2749,-2857.4394 345.4219,-2883.8039 375.1404,-2899.8466"/>
<polygon fill="#000000" stroke="#000000" points="373.5456,-2902.9622 384.0293,-2904.4926 376.7882,-2896.7585 373.5456,-2902.9622"/>
<text text-anchor="middle" x="297.7333" y="-2853.2" font-family="Times,serif" font-size="14.00" fill="#000000">i:</text>
</g>
<!-- 3, λ -->
<g id="node5" class="node">
<title>3, λ</title>
<ellipse fill="none" stroke="#000000" cx="1482.886" cy="-3132" rx="28.946" ry="28.946"/>
<ellipse fill="none" stroke="#000000" cx="1482.886" cy="-3132" rx="32.9752" ry="32.9752"/>
<text text-anchor="middle" x="1482.886" y="-3127.8" font-family="Times,serif" font-size="14.00" fill="#000000">3, λ</text>
</g>
<!-- 0, λ&#45;&gt;3, λ -->
<g id="edge43" class="edge">
<title>0, λ&#45;&gt;3, λ</title>
<path fill="none" stroke="#000000" d="M181.5056,-1894.9235C182.9284,-2129.153 195.2405,-3538.6517 286.0734,-3703 319.8474,-3764.1087 344.3091,-3794 414.13,-3794 414.13,-3794 414.13,-3794 1221.9123,-3794 1302.2708,-3794 1331.9569,-3768.7551 1378.1493,-3703 1438.5342,-3617.0418 1470.0251,-3292.4607 1479.6389,-3174.87"/>
<polygon fill="#000000" stroke="#000000" points="1483.1356,-3175.0495 1480.4497,-3164.8008 1476.1582,-3174.4876 1483.1356,-3175.0495"/>
<text text-anchor="middle" x="810.7784" y="-3798.2" font-family="Times,serif" font-size="14.00" fill="#000000">e:</text>
</g>
<!-- 5, λ -->
<g id="node7" class="node">
<title>5, λ</title>
<ellipse fill="none" stroke="#000000" cx="943.6795" cy="-2874" rx="28.946" ry="28.946"/>
<ellipse fill="none" stroke="#000000" cx="943.6795" cy="-2874" rx="32.9752" ry="32.9752"/>
<text text-anchor="middle" x="943.6795" y="-2869.8" font-family="Times,serif" font-size="14.00" fill="#000000">5, λ</text>
</g>
<!-- 0, λ&#45;&gt;5, λ -->
<g id="edge47" class="edge">
<title>0, λ&#45;&gt;5, λ</title>
<path fill="none" stroke="#000000" d="M185.7809,-1894.6922C198.5065,-1984.4544 237.3214,-2232.3388 286.0734,-2297 375.8153,-2416.0272 462.0405,-2368.4897 577.9691,-2462.2 725.4659,-2581.4284 863.9502,-2763.1206 918.8378,-2838.9001"/>
<polygon fill="#000000" stroke="#000000" points="916.1198,-2841.115 924.807,-2847.18 921.7981,-2837.0214 916.1198,-2841.115"/>
<text text-anchor="middle" x="548.4179" y="-2466.2" font-family="Times,serif" font-size="14.00" fill="#000000">ɛ:</text>
</g>
<!-- 7, λ -->
<g id="node9" class="node">
<title>7, λ</title>
<ellipse fill="none" stroke="#000000" cx="414.13" cy="-1178" rx="28.946" ry="28.946"/>
<ellipse fill="none" stroke="#000000" cx="414.13" cy="-1178" rx="32.9752" ry="32.9752"/>
<text text-anchor="middle" x="414.13" y="-1173.8" font-family="Times,serif" font-size="14.00" fill="#000000">7, λ</text>
</g>
<!-- 0, λ&#45;&gt;7, λ -->
<g id="edge51" class="edge">
<title>0, λ&#45;&gt;7, λ</title>
<path fill="none" stroke="#000000" d="M184.9776,-1829.3301C194.4362,-1751.3633 223.5272,-1549.2105 286.0734,-1392.2 312.9432,-1324.7486 359.5086,-1253.8182 388.4696,-1212.8674"/>
<polygon fill="#000000" stroke="#000000" points="391.4117,-1214.7699 394.3689,-1204.5961 385.7127,-1210.7052 391.4117,-1214.7699"/>
<text text-anchor="middle" x="297.7333" y="-1396.2" font-family="Times,serif" font-size="14.00" fill="#000000">u:</text>
</g>
<!-- 9, λ -->
<g id="node11" class="node">
<title>9, λ</title>
<ellipse fill="none" stroke="#000000" cx="1482.886" cy="-1094" rx="28.946" ry="28.946"/>
<ellipse fill="none" stroke="#000000" cx="1482.886" cy="-1094" rx="32.9752" ry="32.9752"/>
<text text-anchor="middle" x="1482.886" y="-1089.8" font-family="Times,serif" font-size="14.00" fill="#000000">9, λ</text>
</g>
<!-- 0, λ&#45;&gt;9, λ -->
<g id="edge55" class="edge">
<title>0, λ&#45;&gt;9, λ</title>
<path fill="none" stroke="#000000" d="M195.5473,-1832.0082C226.2894,-1772.0296 305.0947,-1643 414.13,-1643 414.13,-1643 414.13,-1643 1221.9123,-1643 1323.8772,-1643 1328.4877,-1564.0537 1378.1493,-1475 1440.884,-1362.5034 1467.9364,-1210.0664 1477.9007,-1136.7973"/>
<polygon fill="#000000" stroke="#000000" points="1481.4111,-1136.9476 1479.249,-1126.5757 1474.4712,-1136.032 1481.4111,-1136.9476"/>
<text text-anchor="middle" x="810.7784" y="-1647.2" font-family="Times,serif" font-size="14.00" fill="#000000">o:</text>
</g>
<!-- 11, λ -->
<g id="node13" class="node">
<title>11, λ</title>
<ellipse fill="none" stroke="#000000" cx="943.6795" cy="-697" rx="33.6235" ry="33.6235"/>
<ellipse fill="none" stroke="#000000" cx="943.6795" cy="-697" rx="37.6305" ry="37.6305"/>
<text text-anchor="middle" x="943.6795" y="-692.8" font-family="Times,serif" font-size="14.00" fill="#000000">11, λ</text>
</g>
<!-- 0, λ&#45;&gt;11, λ -->
<g id="edge59" class="edge">
<title>0, λ&#45;&gt;11, λ</title>
<path fill="none" stroke="#000000" d="M181.5241,-1829.0072C182.9398,-1635.8465 194.6138,-656.8763 286.0734,-564 420.4143,-427.5783 533.5344,-469.2692 715.4425,-529 795.0952,-555.1545 869.8291,-620.9207 910.9037,-661.98"/>
<polygon fill="#000000" stroke="#000000" points="908.6584,-664.6875 918.1752,-669.344 913.6394,-659.7692 908.6584,-664.6875"/>
<text text-anchor="middle" x="548.4179" y="-491.2" font-family="Times,serif" font-size="14.00" fill="#000000">ɔ:</text>
</g>
<!-- 1, λ&#45;&gt;0, λ -->
<g id="edge4" class="edge">
<title>1, λ&#45;&gt;0, λ</title>
<path fill="none" stroke="#000000" d="M395.9905,-2890.4953C367.5024,-2845.8471 312.7739,-2753.919 286.0734,-2668 240.9308,-2522.7361 197.5362,-2050.4529 184.9653,-1905.022"/>
<polygon fill="#000000" stroke="#000000" points="188.424,-1904.3913 184.0799,-1894.7281 181.4498,-1904.9913 188.424,-1904.3913"/>
<text text-anchor="middle" x="297.7333" y="-2729.2" font-family="Times,serif" font-size="14.00" fill="#000000">?:i?</text>
</g>
<!-- 1, λ&#45;&gt;1, λ -->
<g id="edge6" class="edge">
<title>1, λ&#45;&gt;1, λ</title>
<path fill="none" stroke="#000000" d="M398.5184,-2946.9526C386.723,-2981.8069 391.9268,-3022.7367 414.13,-3022.7367 434.2515,-3022.7367 440.4118,-2989.1215 432.6108,-2956.8768"/>
<polygon fill="#000000" stroke="#000000" points="435.8813,-2955.587 429.7415,-2946.9526 429.1567,-2957.5313 435.8813,-2955.587"/>
<text text-anchor="middle" x="414.13" y="-3026.9367" font-family="Times,serif" font-size="14.00" fill="#000000">i:, u:</text>
</g>
<!-- 2, λ -->
<g id="node4" class="node">
<title>2, λ</title>
<ellipse fill="none" stroke="#000000" cx="682.7058" cy="-2983" rx="28.946" ry="28.946"/>
<ellipse fill="none" stroke="#000000" cx="682.7058" cy="-2983" rx="32.9752" ry="32.9752"/>
<text text-anchor="middle" x="682.7058" y="-2978.8" font-family="Times,serif" font-size="14.00" fill="#000000">2, λ</text>
</g>
<!-- 1, λ&#45;&gt;2, λ -->
<g id="edge5" class="edge">
<title>1, λ&#45;&gt;2, λ</title>
<path fill="none" stroke="#000000" d="M437.4975,-2941.379C457.2701,-2959.3941 487.3519,-2982.88 518.8667,-2993 558.9466,-3005.8705 607.324,-3000.5582 641.0781,-2993.7616"/>
<polygon fill="#000000" stroke="#000000" points="642.0139,-2997.1406 651.0587,-2991.6231 640.5473,-2990.296 642.0139,-2997.1406"/>
<text text-anchor="middle" x="548.4179" y="-3004.2" font-family="Times,serif" font-size="14.00" fill="#000000">ʔ:iʔ, h:ih</text>
</g>
<!-- 1, λ&#45;&gt;3, λ -->
<g id="edge7" class="edge">
<title>1, λ&#45;&gt;3, λ</title>
<path fill="none" stroke="#000000" d="M418.01,-2950.6273C429.8547,-3046.0366 467.8674,-3322.4261 518.8667,-3396 568.275,-3467.2787 595.9773,-3502 682.7058,-3502 682.7058,-3502 682.7058,-3502 1221.9123,-3502 1380.9656,-3502 1451.625,-3270.8561 1474.2587,-3173.955"/>
<polygon fill="#000000" stroke="#000000" points="1477.6751,-3174.7154 1476.4831,-3164.1878 1470.8499,-3173.161 1477.6751,-3174.7154"/>
<text text-anchor="middle" x="943.6795" y="-3506.2" font-family="Times,serif" font-size="14.00" fill="#000000">e:, o:</text>
</g>
<!-- 1, λ&#45;&gt;5, λ -->
<g id="edge8" class="edge">
<title>1, λ&#45;&gt;5, λ</title>
<path fill="none" stroke="#000000" d="M446.933,-2915.0115C492.4819,-2910.8836 577.4692,-2903.2603 649.9691,-2897.2 738.9827,-2889.7593 843.2273,-2881.6743 900.5024,-2877.2864"/>
<polygon fill="#000000" stroke="#000000" points="900.9322,-2880.7638 910.6361,-2876.5111 900.3982,-2873.7842 900.9322,-2880.7638"/>
<text text-anchor="middle" x="682.7058" y="-2901.2" font-family="Times,serif" font-size="14.00" fill="#000000">ɛ:, ɑ:, ɔ:</text>
</g>
<!-- 2, λ&#45;&gt;0, λ -->
<g id="edge2" class="edge">
<title>2, λ&#45;&gt;0, λ</title>
<path fill="none" stroke="#000000" d="M659.2317,-2959.7121C589.5929,-2889.1167 382.9911,-2668.4931 286.0734,-2443 204.8506,-2254.0232 186.6082,-2004.2812 182.517,-1905.1827"/>
<polygon fill="#000000" stroke="#000000" points="186.0056,-1904.8183 182.1238,-1894.9603 179.0108,-1905.0875 186.0056,-1904.8183"/>
<text text-anchor="middle" x="414.13" y="-2708.2" font-family="Times,serif" font-size="14.00" fill="#000000">?:?</text>
</g>
<!-- 2, λ&#45;&gt;1, λ -->
<g id="edge9" class="edge">
<title>2, λ&#45;&gt;1, λ</title>
<path fill="none" stroke="#000000" d="M650.8834,-2975.2984C602.3483,-2963.5521 509.7962,-2941.1529 455.9089,-2928.1112"/>
<polygon fill="#000000" stroke="#000000" points="456.5365,-2924.6622 445.9938,-2925.7116 454.8899,-2931.4657 456.5365,-2924.6622"/>
<text text-anchor="middle" x="548.4179" y="-2960.2" font-family="Times,serif" font-size="14.00" fill="#000000">i:, u:</text>
</g>
<!-- 2, λ&#45;&gt;3, λ -->
<g id="edge10" class="edge">
<title>2, λ&#45;&gt;3, λ</title>
<path fill="none" stroke="#000000" d="M713.9489,-2993.3777C806.7274,-3023.5791 1089.2563,-3111.1087 1331.4775,-3140 1367.9517,-3144.3505 1409.6508,-3141.5809 1440.0407,-3138.161"/>
<polygon fill="#000000" stroke="#000000" points="1440.7777,-3141.5978 1450.2912,-3136.9347 1439.9462,-3134.6474 1440.7777,-3141.5978"/>
<text text-anchor="middle" x="1082.7959" y="-3105.2" font-family="Times,serif" font-size="14.00" fill="#000000">e:, o:</text>
</g>
<!-- 2, λ&#45;&gt;5, λ -->
<g id="edge11" class="edge">
<title>2, λ&#45;&gt;5, λ</title>
<path fill="none" stroke="#000000" d="M713.1536,-2970.283C760.494,-2950.5105 851.7382,-2912.4008 904.1171,-2890.5239"/>
<polygon fill="#000000" stroke="#000000" points="905.5471,-2893.7197 913.4257,-2886.636 902.8493,-2887.2605 905.5471,-2893.7197"/>
<text text-anchor="middle" x="810.7784" y="-2942.2" font-family="Times,serif" font-size="14.00" fill="#000000">ɛ:, ɑ:, ɔ:</text>
</g>
<!-- 3, λ&#45;&gt;0, λ -->
<g id="edge44" class="edge">
<title>3, λ&#45;&gt;0, λ</title>
<path fill="none" stroke="#000000" d="M1481.6871,-3165.0631C1475.6349,-3278.9497 1439.2548,-3648 1221.9123,-3648 414.13,-3648 414.13,-3648 414.13,-3648 232.5559,-3648 188.8316,-2177.7374 182.2861,-1905.1864"/>
<polygon fill="#000000" stroke="#000000" points="185.7786,-1904.8251 182.0434,-1894.9105 178.7805,-1904.9904 185.7786,-1904.8251"/>
<text text-anchor="middle" x="810.7784" y="-3652.2" font-family="Times,serif" font-size="14.00" fill="#000000">?:e?</text>
</g>
<!-- 3, λ&#45;&gt;1, λ -->
<g id="edge12" class="edge">
<title>3, λ&#45;&gt;1, λ</title>
<path fill="none" stroke="#000000" d="M1465.9116,-3160.1867C1429.1642,-3217.2347 1336.2638,-3341 1221.9123,-3341 682.7058,-3341 682.7058,-3341 682.7058,-3341 503.8098,-3341 439.0165,-3068.0232 420.4502,-2960.6492"/>
<polygon fill="#000000" stroke="#000000" points="423.8522,-2959.7732 418.7467,-2950.4897 416.9486,-2960.9309 423.8522,-2959.7732"/>
<text text-anchor="middle" x="943.6795" y="-3345.2" font-family="Times,serif" font-size="14.00" fill="#000000">i:, u:</text>
</g>
<!-- 3, λ&#45;&gt;3, λ -->
<g id="edge13" class="edge">
<title>3, λ&#45;&gt;3, λ</title>
<path fill="none" stroke="#000000" d="M1465.9616,-3160.1534C1452.5571,-3195.178 1458.1985,-3236.7367 1482.886,-3236.7367 1505.3555,-3236.7367 1512.0476,-3202.3101 1502.9622,-3169.717"/>
<polygon fill="#000000" stroke="#000000" points="1506.2646,-3168.5555 1499.8105,-3160.1534 1499.6164,-3170.7465 1506.2646,-3168.5555"/>
<text text-anchor="middle" x="1482.886" y="-3240.9367" font-family="Times,serif" font-size="14.00" fill="#000000">e:, o:</text>
</g>
<!-- 4, λ -->
<g id="node6" class="node">
<title>4, λ</title>
<ellipse fill="none" stroke="#000000" cx="1756.2903" cy="-2589" rx="28.946" ry="28.946"/>
<ellipse fill="none" stroke="#000000" cx="1756.2903" cy="-2589" rx="32.9752" ry="32.9752"/>
<text text-anchor="middle" x="1756.2903" y="-2584.8" font-family="Times,serif" font-size="14.00" fill="#000000">4, λ</text>
</g>
<!-- 3, λ&#45;&gt;4, λ -->
<g id="edge45" class="edge">
<title>3, λ&#45;&gt;4, λ</title>
<path fill="none" stroke="#000000" d="M1491.4319,-3100.1686C1506.7977,-3045.223 1541.8067,-2929.7676 1587.6228,-2839.2 1629.3384,-2756.738 1693.654,-2669.1164 1729.6139,-2622.6034"/>
<polygon fill="#000000" stroke="#000000" points="1732.3992,-2624.723 1735.7734,-2614.6798 1726.8727,-2620.4268 1732.3992,-2624.723"/>
<text text-anchor="middle" x="1617.174" y="-2843.2" font-family="Times,serif" font-size="14.00" fill="#000000">ʔ:eʔ, h:eh</text>
</g>
<!-- 3, λ&#45;&gt;5, λ -->
<g id="edge14" class="edge">
<title>3, λ&#45;&gt;5, λ</title>
<path fill="none" stroke="#000000" d="M1463.9857,-3104.5448C1444.8549,-3078.4227 1413.1654,-3039.4355 1378.1493,-3014 1253.9441,-2923.7779 1068.9364,-2889.9347 986.2636,-2878.8072"/>
<polygon fill="#000000" stroke="#000000" points="986.5983,-2875.3214 976.2302,-2877.5015 985.6949,-2882.2628 986.5983,-2875.3214"/>
<text text-anchor="middle" x="1221.9123" y="-2952.2" font-family="Times,serif" font-size="14.00" fill="#000000">ɛ:, ɑ:, ɔ:</text>
</g>
<!-- 4, λ&#45;&gt;0, λ -->
<g id="edge42" class="edge">
<title>4, λ&#45;&gt;0, λ</title>
<path fill="none" stroke="#000000" d="M1749.448,-2556.5914C1721.6433,-2429.2275 1612.4089,-1970 1482.886,-1970 1082.7959,-1970 1082.7959,-1970 1082.7959,-1970 749.3901,-1970 351.5155,-1896.2684 223.3239,-1870.6476"/>
<polygon fill="#000000" stroke="#000000" points="224.0028,-1867.2142 213.5091,-1868.6744 222.623,-1874.0768 224.0028,-1867.2142"/>
<text text-anchor="middle" x="943.6795" y="-1971.2" font-family="Times,serif" font-size="14.00" fill="#000000">?:?</text>
</g>
<!-- 4, λ&#45;&gt;1, λ -->
<g id="edge15" class="edge">
<title>4, λ&#45;&gt;1, λ</title>
<path fill="none" stroke="#000000" d="M1739.8574,-2560.5036C1702.5697,-2499.9592 1605.2169,-2364 1482.886,-2364 1082.7959,-2364 1082.7959,-2364 1082.7959,-2364 758.4966,-2364 507.0671,-2755.1813 435.0314,-2880.1249"/>
<polygon fill="#000000" stroke="#000000" points="431.8855,-2878.5758 429.962,-2888.9946 437.9629,-2882.0493 431.8855,-2878.5758"/>
<text text-anchor="middle" x="1082.7959" y="-2368.2" font-family="Times,serif" font-size="14.00" fill="#000000">i:, u:</text>
</g>
<!-- 4, λ&#45;&gt;3, λ -->
<g id="edge16" class="edge">
<title>4, λ&#45;&gt;3, λ</title>
<path fill="none" stroke="#000000" d="M1746.4171,-2620.6557C1729.2164,-2674.1997 1691.3005,-2785.4598 1646.7252,-2874 1604.522,-2957.8284 1542.4224,-3048.9842 1508.0684,-3097.3226"/>
<polygon fill="#000000" stroke="#000000" points="1505.1526,-3095.3832 1502.1908,-3105.5556 1510.8497,-3099.4505 1505.1526,-3095.3832"/>
<text text-anchor="middle" x="1617.174" y="-2980.2" font-family="Times,serif" font-size="14.00" fill="#000000">e:, o:</text>
</g>
<!-- 4, λ&#45;&gt;5, λ -->
<g id="edge17" class="edge">
<title>4, λ&#45;&gt;5, λ</title>
<path fill="none" stroke="#000000" d="M1723.4297,-2588.9499C1634.3365,-2589.7072 1381.6258,-2597.8075 1184.3471,-2662 1121.1329,-2682.5693 1103.8962,-2690.947 1053.2447,-2734 1017.9284,-2764.0184 986.3424,-2806.9956 966.2635,-2837.3976"/>
<polygon fill="#000000" stroke="#000000" points="963.1809,-2835.7178 960.6613,-2846.0086 969.0485,-2839.5352 963.1809,-2835.7178"/>
<text text-anchor="middle" x="1354.8134" y="-2627.2" font-family="Times,serif" font-size="14.00" fill="#000000">ɛ:, ɑ:, ɔ:</text>
</g>
<!-- 5, λ&#45;&gt;0, λ -->
<g id="edge48" class="edge">
<title>5, λ&#45;&gt;0, λ</title>
<path fill="none" stroke="#000000" d="M930.9503,-2843.4694C912.3008,-2800.0767 875.2694,-2718.7579 834.1143,-2655 788.7651,-2584.7444 773.5484,-2569.134 715.4425,-2509 659.1271,-2450.719 639.9219,-2441.4489 577.9691,-2389.2 449.9677,-2281.2481 382.9583,-2287.5698 286.0734,-2151 231.0508,-2073.4396 201.8814,-1963.8322 189.2328,-1904.369"/>
<polygon fill="#000000" stroke="#000000" points="192.6583,-1903.65 187.2017,-1894.5684 185.8039,-1905.0706 192.6583,-1903.65"/>
<text text-anchor="middle" x="548.4179" y="-2393.2" font-family="Times,serif" font-size="14.00" fill="#000000">?:ɛ?</text>
</g>
<!-- 5, λ&#45;&gt;1, λ -->
<g id="edge18" class="edge">
<title>5, λ&#45;&gt;1, λ</title>
<path fill="none" stroke="#000000" d="M922.772,-2899.555C886.1417,-2941.918 805.628,-3024.7269 715.4425,-3052 631.5036,-3077.384 596.4548,-3075.8677 518.8667,-3035 483.9333,-3016.5997 455.0048,-2981.573 436.4672,-2954.6208"/>
<polygon fill="#000000" stroke="#000000" points="439.2911,-2952.5474 430.8192,-2946.1852 433.4744,-2956.4419 439.2911,-2952.5474"/>
<text text-anchor="middle" x="682.7058" y="-3071.2" font-family="Times,serif" font-size="14.00" fill="#000000">i:, u:</text>
</g>
<!-- 5, λ&#45;&gt;3, λ -->
<g id="edge19" class="edge">
<title>5, λ&#45;&gt;3, λ</title>
<path fill="none" stroke="#000000" d="M969.7042,-2894.3385C991.305,-2910.6486 1023.2359,-2933.4667 1053.2447,-2950 1190.0072,-3025.3492 1364.3981,-3090.4123 1442.2169,-3117.9609"/>
<polygon fill="#000000" stroke="#000000" points="1441.0665,-3121.2664 1451.6613,-3121.2876 1443.3922,-3114.664 1441.0665,-3121.2664"/>
<text text-anchor="middle" x="1221.9123" y="-3050.2" font-family="Times,serif" font-size="14.00" fill="#000000">e:, o:</text>
</g>
<!-- 5, λ&#45;&gt;5, λ -->
<g id="edge20" class="edge">
<title>5, λ&#45;&gt;5, λ</title>
<path fill="none" stroke="#000000" d="M926.3316,-2901.8876C912.3734,-2936.9673 918.1561,-2978.7367 943.6795,-2978.7367 966.9098,-2978.7367 973.7872,-2944.1356 964.3116,-2911.4695"/>
<polygon fill="#000000" stroke="#000000" points="967.5807,-2910.2126 961.0275,-2901.8876 960.9589,-2912.4822 967.5807,-2910.2126"/>
<text text-anchor="middle" x="943.6795" y="-2982.9367" font-family="Times,serif" font-size="14.00" fill="#000000">ɛ:, ɑ:, ɔ:</text>
</g>
<!-- 6, λ -->
<g id="node8" class="node">
<title>6, λ</title>
<ellipse fill="none" stroke="#000000" cx="1221.9123" cy="-2731" rx="28.946" ry="28.946"/>
<ellipse fill="none" stroke="#000000" cx="1221.9123" cy="-2731" rx="32.9752" ry="32.9752"/>
<text text-anchor="middle" x="1221.9123" y="-2726.8" font-family="Times,serif" font-size="14.00" fill="#000000">6, λ</text>
</g>
<!-- 5, λ&#45;&gt;6, λ -->
<g id="edge49" class="edge">
<title>5, λ&#45;&gt;6, λ</title>
<path fill="none" stroke="#000000" d="M965.0724,-2848.8057C985.5133,-2826.3013 1018.31,-2794.0603 1053.2447,-2775.2 1093.0051,-2753.7345 1143.7412,-2742.274 1179.1365,-2736.449"/>
<polygon fill="#000000" stroke="#000000" points="1179.8052,-2739.8871 1189.1446,-2734.8846 1178.724,-2732.9711 1179.8052,-2739.8871"/>
<text text-anchor="middle" x="1082.7959" y="-2779.2" font-family="Times,serif" font-size="14.00" fill="#000000">ʔ:ɛʔ, h:ɛh</text>
</g>
<!-- 6, λ&#45;&gt;0, λ -->
<g id="edge46" class="edge">
<title>6, λ&#45;&gt;0, λ</title>
<path fill="none" stroke="#000000" d="M1194.5219,-2712.6034C1077.9829,-2633.6793 614.3579,-2313.057 286.0734,-1990 256.5259,-1960.923 226.9938,-1923.9316 206.8574,-1897.2008"/>
<polygon fill="#000000" stroke="#000000" points="209.45,-1894.823 200.6617,-1888.9056 203.8416,-1899.0119 209.45,-1894.823"/>
<text text-anchor="middle" x="682.7058" y="-2364.2" font-family="Times,serif" font-size="14.00" fill="#000000">?:?</text>
</g>
<!-- 6, λ&#45;&gt;1, λ -->
<g id="edge21" class="edge">
<title>6, λ&#45;&gt;1, λ</title>
<path fill="none" stroke="#000000" d="M1189.0583,-2729.1004C1154.917,-2727.7055 1100.0363,-2727.0914 1053.2447,-2734 820.5479,-2768.357 553.4798,-2864.5507 454.0975,-2902.4096"/>
<polygon fill="#000000" stroke="#000000" points="452.8228,-2899.1498 444.7346,-2905.9931 455.325,-2905.6873 452.8228,-2899.1498"/>
<text text-anchor="middle" x="810.7784" y="-2794.2" font-family="Times,serif" font-size="14.00" fill="#000000">i:, u:</text>
</g>
<!-- 6, λ&#45;&gt;3, λ -->
<g id="edge22" class="edge">
<title>6, λ&#45;&gt;3, λ</title>
<path fill="none" stroke="#000000" d="M1252.0525,-2744.0563C1287.0528,-2760.6623 1344.2992,-2792.5168 1378.1493,-2836.2 1438.0835,-2913.5444 1465.4739,-3027.9643 1476.4838,-3089.3633"/>
<polygon fill="#000000" stroke="#000000" points="1473.0788,-3090.2131 1478.2333,-3099.4695 1479.9762,-3089.019 1473.0788,-3090.2131"/>
<text text-anchor="middle" x="1354.8134" y="-2840.2" font-family="Times,serif" font-size="14.00" fill="#000000">e:, o:</text>
</g>
<!-- 6, λ&#45;&gt;5, λ -->
<g id="edge23" class="edge">
<title>6, λ&#45;&gt;5, λ</title>
<path fill="none" stroke="#000000" d="M1194.6684,-2749.7516C1172.8999,-2764.34 1141.3403,-2784.6198 1112.3471,-2800 1069.6138,-2822.669 1018.4872,-2844.387 983.8092,-2858.362"/>
<polygon fill="#000000" stroke="#000000" points="982.4692,-2855.1283 974.485,-2862.0927 985.0696,-2861.6274 982.4692,-2855.1283"/>
<text text-anchor="middle" x="1082.7959" y="-2830.2" font-family="Times,serif" font-size="14.00" fill="#000000">ɛ:, ɑ:, ɔ:</text>
</g>
<!-- 7, λ&#45;&gt;0, λ -->
<g id="edge52" class="edge">
<title>7, λ&#45;&gt;0, λ</title>
<path fill="none" stroke="#000000" d="M403.4601,-1209.3505C365.6025,-1320.5847 237.718,-1696.3389 195.2067,-1821.2467"/>
<polygon fill="#000000" stroke="#000000" points="191.8529,-1820.2381 191.9443,-1830.8326 198.4796,-1822.4935 191.8529,-1820.2381"/>
<text text-anchor="middle" x="297.7333" y="-1544.2" font-family="Times,serif" font-size="14.00" fill="#000000">?:u?</text>
</g>
<!-- 7, λ&#45;&gt;7, λ -->
<g id="edge24" class="edge">
<title>7, λ&#45;&gt;7, λ</title>
<path fill="none" stroke="#000000" d="M398.5184,-1206.9526C386.723,-1241.8069 391.9268,-1282.7367 414.13,-1282.7367 434.2515,-1282.7367 440.4118,-1249.1215 432.6108,-1216.8768"/>
<polygon fill="#000000" stroke="#000000" points="435.8813,-1215.587 429.7415,-1206.9526 429.1567,-1217.5313 435.8813,-1215.587"/>
<text text-anchor="middle" x="414.13" y="-1286.9367" font-family="Times,serif" font-size="14.00" fill="#000000">u:, i:</text>
</g>
<!-- 8, λ -->
<g id="node10" class="node">
<title>8, λ</title>
<ellipse fill="none" stroke="#000000" cx="682.7058" cy="-1063" rx="28.946" ry="28.946"/>
<ellipse fill="none" stroke="#000000" cx="682.7058" cy="-1063" rx="32.9752" ry="32.9752"/>
<text text-anchor="middle" x="682.7058" y="-1058.8" font-family="Times,serif" font-size="14.00" fill="#000000">8, λ</text>
</g>
<!-- 7, λ&#45;&gt;8, λ -->
<g id="edge53" class="edge">
<title>7, λ&#45;&gt;8, λ</title>
<path fill="none" stroke="#000000" d="M444.417,-1165.0316C493.2068,-1144.1405 589.19,-1103.042 643.2623,-1079.8891"/>
<polygon fill="#000000" stroke="#000000" points="644.7144,-1083.0747 652.5295,-1075.921 641.9591,-1076.6398 644.7144,-1083.0747"/>
<text text-anchor="middle" x="548.4179" y="-1135.2" font-family="Times,serif" font-size="14.00" fill="#000000">ʔ:uʔ, h:uh</text>
</g>
<!-- 7, λ&#45;&gt;9, λ -->
<g id="edge25" class="edge">
<title>7, λ&#45;&gt;9, λ</title>
<path fill="none" stroke="#000000" d="M418.1751,-1210.8487C426.5389,-1262.8062 451.025,-1362.5072 518.8667,-1406 840.3733,-1612.1157 1068.0962,-1628.9737 1378.1493,-1406 1422.7657,-1373.9143 1459.4684,-1213.8835 1474.9587,-1136.3049"/>
<polygon fill="#000000" stroke="#000000" points="1478.4163,-1136.8612 1476.9156,-1126.3732 1471.5483,-1135.5079 1478.4163,-1136.8612"/>
<text text-anchor="middle" x="943.6795" y="-1570.2" font-family="Times,serif" font-size="14.00" fill="#000000">o:, e:</text>
</g>
<!-- 7, λ&#45;&gt;11, λ -->
<g id="edge26" class="edge">
<title>7, λ&#45;&gt;11, λ</title>
<path fill="none" stroke="#000000" d="M428.8299,-1148.6236C446.7643,-1114.8042 479.5997,-1058.9226 518.8667,-1020 637.5641,-902.3438 706.2344,-922.6048 834.1143,-815 863.356,-790.3946 892.611,-758.419 913.5265,-733.9612"/>
<polygon fill="#000000" stroke="#000000" points="916.2204,-736.1959 920.0136,-726.3033 910.8793,-731.6713 916.2204,-736.1959"/>
<text text-anchor="middle" x="682.7058" y="-929.2" font-family="Times,serif" font-size="14.00" fill="#000000">ɔ:, ɛ:, ɑ:</text>
</g>
<!-- 8, λ&#45;&gt;0, λ -->
<g id="edge50" class="edge">
<title>8, λ&#45;&gt;0, λ</title>
<path fill="none" stroke="#000000" d="M653.4245,-1047.3609C632.9379,-1037.3354 604.5818,-1025.2503 577.9691,-1020 486.6556,-1001.985 444.008,-1023.3372 381.3932,-1092.2 281.1359,-1202.4616 207.7209,-1674.0497 187.158,-1819.2672"/>
<polygon fill="#000000" stroke="#000000" points="183.6394,-1819.1558 185.714,-1829.5455 190.5713,-1820.1297 183.6394,-1819.1558"/>
<text text-anchor="middle" x="414.13" y="-1097.2" font-family="Times,serif" font-size="14.00" fill="#000000">?:?</text>
</g>
<!-- 8, λ&#45;&gt;7, λ -->
<g id="edge27" class="edge">
<title>8, λ&#45;&gt;7, λ</title>
<path fill="none" stroke="#000000" d="M652.0543,-1051.2168C617.8315,-1040.0457 561.6403,-1027.7524 518.8667,-1048.2 479.6341,-1066.9549 450.3883,-1108.3734 432.9132,-1139.4115"/>
<polygon fill="#000000" stroke="#000000" points="429.7986,-1137.8126 428.0841,-1148.2677 435.9443,-1141.1637 429.7986,-1137.8126"/>
<text text-anchor="middle" x="548.4179" y="-1053.2" font-family="Times,serif" font-size="14.00" fill="#000000">u:, i:</text>
</g>
<!-- 8, λ&#45;&gt;9, λ -->
<g id="edge28" class="edge">
<title>8, λ&#45;&gt;9, λ</title>
<path fill="none" stroke="#000000" d="M715.5656,-1064.273C841.9487,-1069.1693 1296.753,-1086.789 1439.6225,-1092.3239"/>
<polygon fill="#000000" stroke="#000000" points="1439.6244,-1095.8265 1449.7524,-1092.7164 1439.8954,-1088.8318 1439.6244,-1095.8265"/>
<text text-anchor="middle" x="1082.7959" y="-1084.2" font-family="Times,serif" font-size="14.00" fill="#000000">o:, e:</text>
</g>
<!-- 8, λ&#45;&gt;11, λ -->
<g id="edge29" class="edge">
<title>8, λ&#45;&gt;11, λ</title>
<path fill="none" stroke="#000000" d="M712.3567,-1048.5346C745.9174,-1030.8418 800.3016,-997.9936 834.1143,-956 886.0004,-891.5602 917.2026,-798.9493 932.3696,-743.6957"/>
<polygon fill="#000000" stroke="#000000" points="935.8059,-744.394 935.0163,-733.8286 929.0449,-742.5804 935.8059,-744.394"/>
<text text-anchor="middle" x="810.7784" y="-1003.2" font-family="Times,serif" font-size="14.00" fill="#000000">ɔ:, ɛ:, ɑ:</text>
</g>
<!-- 9, λ&#45;&gt;0, λ -->
<g id="edge56" class="edge">
<title>9, λ&#45;&gt;0, λ</title>
<path fill="none" stroke="#000000" d="M1480.4868,-1126.7493C1473.6412,-1206.7783 1449.6624,-1417.3204 1378.1493,-1576 1329.911,-1683.0354 1339.3155,-1789 1221.9123,-1789 414.13,-1789 414.13,-1789 414.13,-1789 342.952,-1789 264.9095,-1820.456 219.6857,-1842.0705"/>
<polygon fill="#000000" stroke="#000000" points="218.0073,-1838.9948 210.5478,-1846.5186 221.071,-1845.2888 218.0073,-1838.9948"/>
<text text-anchor="middle" x="810.7784" y="-1793.2" font-family="Times,serif" font-size="14.00" fill="#000000">?:o?</text>
</g>
<!-- 9, λ&#45;&gt;7, λ -->
<g id="edge30" class="edge">
<title>9, λ&#45;&gt;7, λ</title>
<path fill="none" stroke="#000000" d="M1469.7418,-1124.2369C1437.9338,-1192.1728 1349.8855,-1351 1221.9123,-1351 682.7058,-1351 682.7058,-1351 682.7058,-1351 580.5701,-1351 486.4023,-1261.4837 441.5879,-1211.2345"/>
<polygon fill="#000000" stroke="#000000" points="444.0515,-1208.7356 434.8255,-1203.5267 438.7896,-1213.3521 444.0515,-1208.7356"/>
<text text-anchor="middle" x="943.6795" y="-1355.2" font-family="Times,serif" font-size="14.00" fill="#000000">u:, i:</text>
</g>
<!-- 9, λ&#45;&gt;9, λ -->
<g id="edge31" class="edge">
<title>9, λ&#45;&gt;9, λ</title>
<path fill="none" stroke="#000000" d="M1465.9616,-1122.1534C1452.5571,-1157.178 1458.1985,-1198.7367 1482.886,-1198.7367 1505.3555,-1198.7367 1512.0476,-1164.3101 1502.9622,-1131.717"/>
<polygon fill="#000000" stroke="#000000" points="1506.2646,-1130.5555 1499.8105,-1122.1534 1499.6164,-1132.7465 1506.2646,-1130.5555"/>
<text text-anchor="middle" x="1482.886" y="-1202.9367" font-family="Times,serif" font-size="14.00" fill="#000000">o:, e:</text>
</g>
<!-- 10, λ -->
<g id="node12" class="node">
<title>10, λ</title>
<ellipse fill="none" stroke="#000000" cx="1756.2903" cy="-437" rx="33.6235" ry="33.6235"/>
<ellipse fill="none" stroke="#000000" cx="1756.2903" cy="-437" rx="37.6305" ry="37.6305"/>
<text text-anchor="middle" x="1756.2903" y="-432.8" font-family="Times,serif" font-size="14.00" fill="#000000">10, λ</text>
</g>
<!-- 9, λ&#45;&gt;10, λ -->
<g id="edge57" class="edge">
<title>9, λ&#45;&gt;10, λ</title>
<path fill="none" stroke="#000000" d="M1486.7144,-1061.4005C1496.1507,-988.6797 1524.4948,-808.8519 1587.6228,-672.2 1623.4301,-594.6884 1686.0144,-516.4504 1724.0522,-472.6007"/>
<polygon fill="#000000" stroke="#000000" points="1726.9077,-474.6524 1730.8571,-464.8211 1721.6389,-470.0437 1726.9077,-474.6524"/>
<text text-anchor="middle" x="1617.174" y="-677.2" font-family="Times,serif" font-size="14.00" fill="#000000">ʔ:oʔ, h:oh</text>
</g>
<!-- 9, λ&#45;&gt;11, λ -->
<g id="edge32" class="edge">
<title>9, λ&#45;&gt;11, λ</title>
<path fill="none" stroke="#000000" d="M1477.3771,-1061.6419C1463.1415,-981.3018 1423.0889,-775.4933 1378.1493,-724 1281.3186,-613.0481 1198.4613,-634.5325 1053.2447,-659 1031.1655,-662.7201 1007.5925,-670.3794 987.9903,-677.8533"/>
<polygon fill="#000000" stroke="#000000" points="986.4533,-674.6964 978.4213,-681.6056 989.0089,-681.2133 986.4533,-674.6964"/>
<text text-anchor="middle" x="1221.9123" y="-649.2" font-family="Times,serif" font-size="14.00" fill="#000000">ɔ:, ɛ:, ɑ:</text>
</g>
<!-- 10, λ&#45;&gt;0, λ -->
<g id="edge54" class="edge">
<title>10, λ&#45;&gt;0, λ</title>
<path fill="none" stroke="#000000" d="M1751.184,-399.7416C1734.4024,-294.0628 1670.8212,0 1482.886,0 414.13,0 414.13,0 414.13,0 224.5607,0 187.2666,-1539.2372 182.0572,-1818.7401"/>
<polygon fill="#000000" stroke="#000000" points="178.5551,-1818.829 181.8719,-1828.8912 185.5539,-1818.9568 178.5551,-1818.829"/>
<text text-anchor="middle" x="943.6795" y="-4.2" font-family="Times,serif" font-size="14.00" fill="#000000">?:?</text>
</g>
<!-- 10, λ&#45;&gt;7, λ -->
<g id="edge33" class="edge">
<title>10, λ&#45;&gt;7, λ</title>
<path fill="none" stroke="#000000" d="M1728.9686,-410.5605C1682.4812,-368.4873 1583.2415,-291 1482.886,-291 943.6795,-291 943.6795,-291 943.6795,-291 621.6382,-291 659.9386,-588.5016 518.8667,-878 468.2155,-981.943 495.074,-1022.9013 446.8667,-1128 444.5686,-1133.0101 441.8145,-1138.0941 438.8927,-1143.0055"/>
<polygon fill="#000000" stroke="#000000" points="435.8488,-1141.2719 433.5144,-1151.6063 441.784,-1144.9832 435.8488,-1141.2719"/>
<text text-anchor="middle" x="1082.7959" y="-295.2" font-family="Times,serif" font-size="14.00" fill="#000000">u:, i:</text>
</g>
<!-- 10, λ&#45;&gt;9, λ -->
<g id="edge34" class="edge">
<title>10, λ&#45;&gt;9, λ</title>
<path fill="none" stroke="#000000" d="M1741.8418,-471.7203C1695.2278,-583.7355 1548.9845,-935.1632 1499.467,-1054.1553"/>
<polygon fill="#000000" stroke="#000000" points="1496.1353,-1053.052 1495.5246,-1063.6292 1502.598,-1055.7414 1496.1353,-1053.052"/>
<text text-anchor="middle" x="1617.174" y="-829.2" font-family="Times,serif" font-size="14.00" fill="#000000">o:, e:</text>
</g>
<!-- 10, λ&#45;&gt;11, λ -->
<g id="edge35" class="edge">
<title>10, λ&#45;&gt;11, λ</title>
<path fill="none" stroke="#000000" d="M1719.2909,-443.6629C1612.761,-463.5992 1297.348,-527.9294 1053.2447,-632 1028.9646,-642.3515 1003.5117,-657.1774 983.2558,-670.0565"/>
<polygon fill="#000000" stroke="#000000" points="981.1303,-667.2625 974.6253,-675.6254 984.9256,-673.1444 981.1303,-667.2625"/>
<text text-anchor="middle" x="1354.8134" y="-538.2" font-family="Times,serif" font-size="14.00" fill="#000000">ɔ:, ɛ:, ɑ:</text>
</g>
<!-- 11, λ&#45;&gt;0, λ -->
<g id="edge60" class="edge">
<title>11, λ&#45;&gt;0, λ</title>
<path fill="none" stroke="#000000" d="M926.0717,-663.4275C907.1302,-629.9985 874.2555,-579.0319 834.1143,-546 739.1355,-467.8426 699.1189,-462.4672 577.9691,-441.2 444.9086,-417.842 352.5759,-408.407 286.0734,-526 221.0696,-640.9432 188.9877,-1602.765 182.5595,-1818.9666"/>
<polygon fill="#000000" stroke="#000000" points="179.0605,-1818.8831 182.2643,-1828.9819 186.0575,-1819.0894 179.0605,-1818.8831"/>
<text text-anchor="middle" x="548.4179" y="-446.2" font-family="Times,serif" font-size="14.00" fill="#000000">?:ɔ?</text>
</g>
<!-- 11, λ&#45;&gt;7, λ -->
<g id="edge36" class="edge">
<title>11, λ&#45;&gt;7, λ</title>
<path fill="none" stroke="#000000" d="M907.9689,-709.2219C827.211,-738.6098 629.0184,-820.8233 518.8667,-954 472.8867,-1009.5912 442.1408,-1088.7212 426.4416,-1136.5322"/>
<polygon fill="#000000" stroke="#000000" points="423.0494,-1135.648 423.3199,-1146.2394 429.7133,-1137.7911 423.0494,-1135.648"/>
<text text-anchor="middle" x="682.7058" y="-840.2" font-family="Times,serif" font-size="14.00" fill="#000000">u:, i:</text>
</g>
<!-- 11, λ&#45;&gt;9, λ -->
<g id="edge37" class="edge">
<title>11, λ&#45;&gt;9, λ</title>
<path fill="none" stroke="#000000" d="M981.0527,-701.8534C1016.5156,-707.61 1070.4648,-719.4192 1112.3471,-742 1265.8249,-824.7475 1402.015,-987.8718 1457.022,-1059.216"/>
<polygon fill="#000000" stroke="#000000" points="1454.4665,-1061.6357 1463.3235,-1067.4499 1460.0254,-1057.3815 1454.4665,-1061.6357"/>
<text text-anchor="middle" x="1221.9123" y="-850.2" font-family="Times,serif" font-size="14.00" fill="#000000">o:, e:</text>
</g>
<!-- 11, λ&#45;&gt;11, λ -->
<g id="edge38" class="edge">
<title>11, λ&#45;&gt;11, λ</title>
<path fill="none" stroke="#000000" d="M925.0207,-729.8081C912.7744,-765.692 918.994,-806.5652 943.6795,-806.5652 966.1472,-806.5652 973.318,-772.7064 965.1919,-739.5675"/>
<polygon fill="#000000" stroke="#000000" points="968.5042,-738.424 962.3383,-729.8081 961.7855,-740.3885 968.5042,-738.424"/>
<text text-anchor="middle" x="943.6795" y="-810.7652" font-family="Times,serif" font-size="14.00" fill="#000000">ɔ:, ɛ:, ɑ:</text>
</g>
<!-- 12, λ -->
<g id="node14" class="node">
<title>12, λ</title>
<ellipse fill="none" stroke="#000000" cx="1221.9123" cy="-964" rx="33.6235" ry="33.6235"/>
<ellipse fill="none" stroke="#000000" cx="1221.9123" cy="-964" rx="37.6305" ry="37.6305"/>
<text text-anchor="middle" x="1221.9123" y="-959.8" font-family="Times,serif" font-size="14.00" fill="#000000">12, λ</text>
</g>
<!-- 11, λ&#45;&gt;12, λ -->
<g id="edge61" class="edge">
<title>11, λ&#45;&gt;12, λ</title>
<path fill="none" stroke="#000000" d="M966.0078,-727.3205C987.0939,-755.0835 1020.3132,-796.6499 1053.2447,-829 1094.612,-869.637 1147.5315,-910.4287 1182.962,-936.3668"/>
<polygon fill="#000000" stroke="#000000" points="1180.9858,-939.2574 1191.131,-942.311 1185.1044,-933.5972 1180.9858,-939.2574"/>
<text text-anchor="middle" x="1082.7959" y="-885.2" font-family="Times,serif" font-size="14.00" fill="#000000">ʔ:ɔʔ, h:ɔh</text>
</g>
<!-- 12, λ&#45;&gt;0, λ -->
<g id="edge58" class="edge">
<title>12, λ&#45;&gt;0, λ</title>
<path fill="none" stroke="#000000" d="M1185.2522,-955.1498C1150.7669,-946.4542 1097.9032,-932.1664 1053.2447,-916 840.3754,-838.9411 779.2684,-715.0674 649.9691,-766.2 407.9439,-861.9111 362.3024,-976.1508 286.0734,-1225 219.5072,-1442.3055 192.68,-1715.0417 184.4032,-1819.0387"/>
<polygon fill="#000000" stroke="#000000" points="180.9031,-1818.9056 183.6152,-1829.1474 187.8819,-1819.4497 180.9031,-1818.9056"/>
<text text-anchor="middle" x="682.7058" y="-771.2" font-family="Times,serif" font-size="14.00" fill="#000000">?:?</text>
</g>
<!-- 12, λ&#45;&gt;7, λ -->
<g id="edge39" class="edge">
<title>12, λ&#45;&gt;7, λ</title>
<path fill="none" stroke="#000000" d="M1187.1852,-978.8902C1092.007,-1018.8139 818.0709,-1127.7983 577.9691,-1166 537.3041,-1172.47 490.3963,-1175.459 457.2209,-1176.8355"/>
<polygon fill="#000000" stroke="#000000" points="456.8164,-1173.3483 446.9575,-1177.2281 457.084,-1180.3432 456.8164,-1173.3483"/>
<text text-anchor="middle" x="810.7784" y="-1122.2" font-family="Times,serif" font-size="14.00" fill="#000000">u:, i:</text>
</g>
<!-- 12, λ&#45;&gt;9, λ -->
<g id="edge40" class="edge">
<title>12, λ&#45;&gt;9, λ</title>
<path fill="none" stroke="#000000" d="M1255.7625,-980.862C1304.3209,-1005.0505 1393.499,-1049.4732 1444.4684,-1074.8629"/>
<polygon fill="#000000" stroke="#000000" points="1443.0109,-1078.047 1453.5225,-1079.373 1446.1321,-1071.7813 1443.0109,-1078.047"/>
<text text-anchor="middle" x="1354.8134" y="-1045.2" font-family="Times,serif" font-size="14.00" fill="#000000">o:, e:</text>
</g>
<!-- 12, λ&#45;&gt;11, λ -->
<g id="edge41" class="edge">
<title>12, λ&#45;&gt;11, λ</title>
<path fill="none" stroke="#000000" d="M1204.2987,-930.4981C1185.0089,-895.992 1151.5454,-842.0551 1112.3471,-804.2 1074.8883,-768.0247 1023.3769,-737.4198 987.1661,-718.2881"/>
<polygon fill="#000000" stroke="#000000" points="988.3324,-714.9495 977.846,-713.4382 985.1012,-721.1591 988.3324,-714.9495"/>
<text text-anchor="middle" x="1082.7959" y="-809.2" font-family="Times,serif" font-size="14.00" fill="#000000">ɔ:, ɛ:, ɑ:</text>
</g>
</g>
</svg>
