<?xml version="1.0" encoding="UTF-8" standalone="no"?>
<!DOCTYPE svg PUBLIC "-//W3C//DTD SVG 1.1//EN"
 "http://www.w3.org/Graphics/SVG/1.1/DTD/svg11.dtd">
<!-- Generated by graphviz version 2.40.1 (20161225.0304)
 -->
<!-- Title: fst Pages: 1 -->
<svg width="615pt" height="720pt"
 viewBox="0.00 0.00 615.33 720.00" xmlns="http://www.w3.org/2000/svg" xmlns:xlink="http://www.w3.org/1999/xlink">
<g id="graph0" class="graph" transform="scale(.9739 .9739) rotate(0) translate(36 703.2734)">
<title>fst</title>
<polygon fill="#ffffff" stroke="transparent" points="-36,36 -36,-703.2734 595.7986,-703.2734 595.7986,36 -36,36"/>
<!-- start -->
<g id="node1" class="node">
<title>start</title>
<ellipse fill="#000000" stroke="#000000" cx="1.8" cy="-269.7367" rx="1.8" ry="1.8"/>
</g>
<!-- 0, λ -->
<g id="node2" class="node">
<title>0, λ</title>
<ellipse fill="none" stroke="#000000" cx="181.3367" cy="-269.7367" rx="28.946" ry="28.946"/>
<ellipse fill="none" stroke="#000000" cx="181.3367" cy="-269.7367" rx="32.9752" ry="32.9752"/>
<text text-anchor="middle" x="181.3367" y="-265.5367" font-family="Times,serif" font-size="14.00" fill="#000000">0, λ</text>
</g>
<!-- start&#45;&gt;0, λ -->
<g id="edge10" class="edge">
<title>start&#45;&gt;0, λ</title>
<path fill="none" stroke="#000000" d="M3.8163,-269.7367C16.8447,-269.7367 90.1116,-269.7367 138.3556,-269.7367"/>
<polygon fill="#000000" stroke="#000000" points="138.5375,-273.2368 148.5375,-269.7367 138.5374,-266.2368 138.5375,-273.2368"/>
</g>
<!-- 0, λ&#45;&gt;0, λ -->
<g id="edge1" class="edge">
<title>0, λ&#45;&gt;0, λ</title>
<path fill="none" stroke="#000000" d="M167.1,-299.4906C156.8372,-334.1677 161.5828,-374.4734 181.3367,-374.4734 199.2387,-374.4734 204.8145,-341.3708 198.0641,-309.3541"/>
<polygon fill="#000000" stroke="#000000" points="201.4153,-308.3293 195.5734,-299.4906 194.6283,-310.0432 201.4153,-308.3293"/>
<text text-anchor="middle" x="181.3367" y="-378.6734" font-family="Times,serif" font-size="14.00" fill="#000000">?:?</text>
</g>
<!-- 1, λ -->
<g id="node3" class="node">
<title>1, λ</title>
<ellipse fill="none" stroke="#000000" cx="442.1566" cy="-545.7367" rx="28.946" ry="28.946"/>
<ellipse fill="none" stroke="#000000" cx="442.1566" cy="-545.7367" rx="32.9752" ry="32.9752"/>
<text text-anchor="middle" x="442.1566" y="-541.5367" font-family="Times,serif" font-size="14.00" fill="#000000">1, λ</text>
</g>
<!-- 0, λ&#45;&gt;1, λ -->
<g id="edge2" class="edge">
<title>0, λ&#45;&gt;1, λ</title>
<path fill="none" stroke="#000000" d="M204.0265,-293.7471C251.1377,-343.6002 359.5516,-458.324 412.2757,-514.1167"/>
<polygon fill="#000000" stroke="#000000" points="409.9213,-516.7211 419.3335,-521.5853 415.009,-511.9132 409.9213,-516.7211"/>
<text text-anchor="middle" x="311.7466" y="-435.9367" font-family="Times,serif" font-size="14.00" fill="#000000">i:i, e:e</text>
</g>
<!-- 2, λ -->
<g id="node4" class="node">
<title>2, λ</title>
<ellipse fill="none" stroke="#000000" cx="442.1566" cy="-374.7367" rx="28.946" ry="28.946"/>
<ellipse fill="none" stroke="#000000" cx="442.1566" cy="-374.7367" rx="32.9752" ry="32.9752"/>
<text text-anchor="middle" x="442.1566" y="-370.5367" font-family="Times,serif" font-size="14.00" fill="#000000">2, λ</text>
</g>
<!-- 0, λ&#45;&gt;2, λ -->
<g id="edge3" class="edge">
<title>0, λ&#45;&gt;2, λ</title>
<path fill="none" stroke="#000000" d="M211.7665,-281.9871C258.9525,-300.983 349.7821,-337.5489 402.1967,-358.6498"/>
<polygon fill="#000000" stroke="#000000" points="400.9338,-361.9143 411.5174,-362.4021 403.548,-355.4208 400.9338,-361.9143"/>
<text text-anchor="middle" x="311.7466" y="-334.9367" font-family="Times,serif" font-size="14.00" fill="#000000">ɯ:ɯ, ɑ:ɑ</text>
</g>
<!-- 3, λ -->
<g id="node5" class="node">
<title>3, λ</title>
<ellipse fill="none" stroke="#000000" cx="442.1566" cy="-203.7367" rx="28.946" ry="28.946"/>
<ellipse fill="none" stroke="#000000" cx="442.1566" cy="-203.7367" rx="32.9752" ry="32.9752"/>
<text text-anchor="middle" x="442.1566" y="-199.5367" font-family="Times,serif" font-size="14.00" fill="#000000">3, λ</text>
</g>
<!-- 0, λ&#45;&gt;3, λ -->
<g id="edge4" class="edge">
<title>0, λ&#45;&gt;3, λ</title>
<path fill="none" stroke="#000000" d="M213.3184,-261.6438C260.3756,-249.7361 348.3117,-227.484 400.4039,-214.3022"/>
<polygon fill="#000000" stroke="#000000" points="401.4859,-217.6388 410.3217,-211.7925 399.7686,-210.8527 401.4859,-217.6388"/>
<text text-anchor="middle" x="311.7466" y="-245.9367" font-family="Times,serif" font-size="14.00" fill="#000000">y:y, ø:ø</text>
</g>
<!-- 4, λ -->
<g id="node6" class="node">
<title>4, λ</title>
<ellipse fill="none" stroke="#000000" cx="442.1566" cy="-32.7367" rx="28.946" ry="28.946"/>
<ellipse fill="none" stroke="#000000" cx="442.1566" cy="-32.7367" rx="32.9752" ry="32.9752"/>
<text text-anchor="middle" x="442.1566" y="-28.5367" font-family="Times,serif" font-size="14.00" fill="#000000">4, λ</text>
</g>
<!-- 0, λ&#45;&gt;4, λ -->
<g id="edge5" class="edge">
<title>0, λ&#45;&gt;4, λ</title>
<path fill="none" stroke="#000000" d="M205.874,-247.4403C253.2775,-204.3661 357.4116,-109.7422 410.1702,-61.8019"/>
<polygon fill="#000000" stroke="#000000" points="412.8273,-64.1166 417.8745,-54.8012 408.1197,-58.9359 412.8273,-64.1166"/>
<text text-anchor="middle" x="311.7466" y="-175.9367" font-family="Times,serif" font-size="14.00" fill="#000000">u:u, o:o</text>
</g>
<!-- 1, λ&#45;&gt;1, λ -->
<g id="edge6" class="edge">
<title>1, λ&#45;&gt;1, λ</title>
<path fill="none" stroke="#000000" d="M424.9677,-573.8902C411.3537,-608.9147 417.0833,-650.4734 442.1566,-650.4734 464.9771,-650.4734 471.7738,-616.0469 462.5464,-583.4537"/>
<polygon fill="#000000" stroke="#000000" points="465.8385,-582.2622 459.3454,-573.8902 459.2005,-584.484 465.8385,-582.2622"/>
<text text-anchor="middle" x="442.1566" y="-654.6734" font-family="Times,serif" font-size="14.00" fill="#000000">?:?, i:i, e:e, ø:ø, y:i, ɯ:i, u:i, ɑ:e, o:ø</text>
</g>
<!-- 2, λ&#45;&gt;2, λ -->
<g id="edge7" class="edge">
<title>2, λ&#45;&gt;2, λ</title>
<path fill="none" stroke="#000000" d="M424.9677,-402.8902C411.3537,-437.9147 417.0833,-479.4734 442.1566,-479.4734 464.9771,-479.4734 471.7738,-445.0469 462.5464,-412.4537"/>
<polygon fill="#000000" stroke="#000000" points="465.8385,-411.2622 459.3454,-402.8902 459.2005,-413.484 465.8385,-411.2622"/>
<text text-anchor="middle" x="442.1566" y="-483.6734" font-family="Times,serif" font-size="14.00" fill="#000000">?:?, ɯ:ɯ, ɑ:ɑ, o:o, u:ɯ, i:ɯ, y:ɯ, e:ɑ, ø:o</text>
</g>
<!-- 3, λ&#45;&gt;3, λ -->
<g id="edge8" class="edge">
<title>3, λ&#45;&gt;3, λ</title>
<path fill="none" stroke="#000000" d="M424.9677,-231.8902C411.3537,-266.9147 417.0833,-308.4734 442.1566,-308.4734 464.9771,-308.4734 471.7738,-274.0469 462.5464,-241.4537"/>
<polygon fill="#000000" stroke="#000000" points="465.8385,-240.2622 459.3454,-231.8902 459.2005,-242.484 465.8385,-240.2622"/>
<text text-anchor="middle" x="442.1566" y="-312.6734" font-family="Times,serif" font-size="14.00" fill="#000000">?:?, y:y, e:e, ø:ø, i:y, ɯ:y, u:y, ɑ:e, o:ø</text>
</g>
<!-- 4, λ&#45;&gt;4, λ -->
<g id="edge9" class="edge">
<title>4, λ&#45;&gt;4, λ</title>
<path fill="none" stroke="#000000" d="M424.9677,-60.8902C411.3537,-95.9147 417.0833,-137.4734 442.1566,-137.4734 464.9771,-137.4734 471.7738,-103.0469 462.5464,-70.4537"/>
<polygon fill="#000000" stroke="#000000" points="465.8385,-69.2622 459.3454,-60.8902 459.2005,-71.484 465.8385,-69.2622"/>
<text text-anchor="middle" x="442.1566" y="-141.6734" font-family="Times,serif" font-size="14.00" fill="#000000">?:?, u:u, o:o, ɑ:ɑ, ɯ:u, i:u, y:u, e:ɑ, ø:o</text>
</g>
</g>
</svg>
