<?xml version="1.0" encoding="UTF-8" standalone="no"?>
<!DOCTYPE svg PUBLIC "-//W3C//DTD SVG 1.1//EN"
 "http://www.w3.org/Graphics/SVG/1.1/DTD/svg11.dtd">
<!-- Generated by graphviz version 2.40.1 (20161225.0304)
 -->
<!-- Title: fst Pages: 1 -->
<svg width="650pt" height="365pt"
 viewBox="0.00 0.00 650.42 365.19" xmlns="http://www.w3.org/2000/svg" xmlns:xlink="http://www.w3.org/1999/xlink">
<g id="graph0" class="graph" transform="scale(1 1) rotate(0) translate(36 329.1869)">
<title>fst</title>
<polygon fill="#ffffff" stroke="transparent" points="-36,36 -36,-329.1869 614.4185,-329.1869 614.4185,36 -36,36"/>
<!-- start -->
<g id="node1" class="node">
<title>start</title>
<ellipse fill="#000000" stroke="#000000" cx="1.8" cy="-101.6935" rx="1.8" ry="1.8"/>
</g>
<!-- 0,  -->
<g id="node2" class="node">
<title>0, </title>
<ellipse fill="none" stroke="#000000" cx="173.2935" cy="-101.6935" rx="20.8568" ry="20.8568"/>
<ellipse fill="none" stroke="#000000" cx="173.2935" cy="-101.6935" rx="24.8884" ry="24.8884"/>
<text text-anchor="middle" x="173.2935" y="-97.4935" font-family="Times,serif" font-size="14.00" fill="#000000">0, </text>
</g>
<!-- start&#45;&gt;0,  -->
<g id="edge6" class="edge">
<title>start&#45;&gt;0, </title>
<path fill="none" stroke="#000000" d="M3.726,-101.6935C16.733,-101.6935 92.5973,-101.6935 138.3308,-101.6935"/>
<polygon fill="#000000" stroke="#000000" points="138.4256,-105.1936 148.4256,-101.6935 138.4255,-98.1936 138.4256,-105.1936"/>
</g>
<!-- 0, &#45;&gt;0,  -->
<g id="edge1" class="edge">
<title>0, &#45;&gt;0, </title>
<path fill="none" stroke="#000000" d="M161.8072,-124.0297C150.246,-157.0504 154.0747,-198.3869 173.2935,-198.3869 190.6354,-198.3869 195.4464,-164.7297 187.7264,-133.8954"/>
<polygon fill="#000000" stroke="#000000" points="190.9953,-132.6097 184.7797,-124.0297 184.2881,-134.6131 190.9953,-132.6097"/>
<text text-anchor="middle" x="173.2935" y="-202.5869" font-family="Times,serif" font-size="14.00" fill="#000000">?:?</text>
</g>
<!-- 1,  -->
<g id="node3" class="node">
<title>1, </title>
<ellipse fill="none" stroke="#000000" cx="466.2372" cy="-179.6935" rx="20.8568" ry="20.8568"/>
<ellipse fill="none" stroke="#000000" cx="466.2372" cy="-179.6935" rx="24.8884" ry="24.8884"/>
<text text-anchor="middle" x="466.2372" y="-175.4935" font-family="Times,serif" font-size="14.00" fill="#000000">1, </text>
</g>
<!-- 0, &#45;&gt;1,  -->
<g id="edge4" class="edge">
<title>0, &#45;&gt;1, </title>
<path fill="none" stroke="#000000" d="M197.2663,-108.0765C249.3236,-121.9375 372.8238,-154.8209 432.63,-170.7451"/>
<polygon fill="#000000" stroke="#000000" points="431.7801,-174.1407 442.3439,-173.3316 433.5812,-167.3764 431.7801,-174.1407"/>
<text text-anchor="middle" x="319.7653" y="-155.8935" font-family="Times,serif" font-size="14.00" fill="#000000">i:i, y:y, e:e, ø:ø</text>
</g>
<!-- 2,  -->
<g id="node4" class="node">
<title>2, </title>
<ellipse fill="none" stroke="#000000" cx="466.2372" cy="-24.6935" rx="20.8568" ry="20.8568"/>
<ellipse fill="none" stroke="#000000" cx="466.2372" cy="-24.6935" rx="24.8884" ry="24.8884"/>
<text text-anchor="middle" x="466.2372" y="-20.4935" font-family="Times,serif" font-size="14.00" fill="#000000">2, </text>
</g>
<!-- 0, &#45;&gt;2,  -->
<g id="edge5" class="edge">
<title>0, &#45;&gt;2, </title>
<path fill="none" stroke="#000000" d="M194.893,-89.6111C214.0583,-79.4014 243.1064,-65.1571 269.9869,-56.8935 325.1243,-39.9431 391.8794,-31.4026 431.6048,-27.5145"/>
<polygon fill="#000000" stroke="#000000" points="431.9492,-30.9977 441.5795,-26.5809 431.2968,-24.0281 431.9492,-30.9977"/>
<text text-anchor="middle" x="319.7653" y="-61.8935" font-family="Times,serif" font-size="14.00" fill="#000000">ɯ:ɯ, u:u, a:a, o:o</text>
</g>
<!-- 1, &#45;&gt;1,  -->
<g id="edge2" class="edge">
<title>1, &#45;&gt;1, </title>
<path fill="none" stroke="#000000" d="M450.3726,-199.1529C430.865,-232.5953 436.1532,-276.3869 466.2372,-276.3869 493.6183,-276.3869 500.459,-240.1106 486.7592,-208.378"/>
<polygon fill="#000000" stroke="#000000" points="489.7331,-206.5023 482.1018,-199.1529 483.4843,-209.6572 489.7331,-206.5023"/>
<text text-anchor="middle" x="466.2372" y="-280.5869" font-family="Times,serif" font-size="14.00" fill="#000000">?:?, i:i, y:y, e:e, ø:ø, ɯ:i, u:y, a:e, o:ø</text>
</g>
<!-- 2, &#45;&gt;2,  -->
<g id="edge3" class="edge">
<title>2, &#45;&gt;2, </title>
<path fill="none" stroke="#000000" d="M450.3726,-44.1529C430.865,-77.5953 436.1532,-121.3869 466.2372,-121.3869 493.6183,-121.3869 500.459,-85.1106 486.7592,-53.378"/>
<polygon fill="#000000" stroke="#000000" points="489.7331,-51.5023 482.1018,-44.1529 483.4843,-54.6572 489.7331,-51.5023"/>
<text text-anchor="middle" x="466.2372" y="-125.5869" font-family="Times,serif" font-size="14.00" fill="#000000">?:?, ɯ:ɯ, u:u, a:a, o:o, i:ɯ, y:u, e:a, ø:o</text>
</g>
</g>
</svg>
