<?xml version="1.0" encoding="UTF-8" standalone="no"?>
<!DOCTYPE svg PUBLIC "-//W3C//DTD SVG 1.1//EN"
 "http://www.w3.org/Graphics/SVG/1.1/DTD/svg11.dtd">
<!-- Generated by graphviz version 2.40.1 (20161225.0304)
 -->
<!-- Title: fst Pages: 1 -->
<svg width="675pt" height="397pt"
 viewBox="0.00 0.00 674.55 397.27" xmlns="http://www.w3.org/2000/svg" xmlns:xlink="http://www.w3.org/1999/xlink">
<g id="graph0" class="graph" transform="scale(1 1) rotate(0) translate(36 361.2734)">
<title>fst</title>
<polygon fill="#ffffff" stroke="transparent" points="-36,36 -36,-361.2734 638.5483,-361.2734 638.5483,36 -36,36"/>
<!-- start -->
<g id="node1" class="node">
<title>start</title>
<ellipse fill="#000000" stroke="#000000" cx="1.8" cy="-117.7367" rx="1.8" ry="1.8"/>
</g>
<!-- 0, λ -->
<g id="node2" class="node">
<title>0, λ</title>
<ellipse fill="none" stroke="#000000" cx="181.3367" cy="-117.7367" rx="28.946" ry="28.946"/>
<ellipse fill="none" stroke="#000000" cx="181.3367" cy="-117.7367" rx="32.9752" ry="32.9752"/>
<text text-anchor="middle" x="181.3367" y="-113.5367" font-family="Times,serif" font-size="14.00" fill="#000000">0, λ</text>
</g>
<!-- start&#45;&gt;0, λ -->
<g id="edge6" class="edge">
<title>start&#45;&gt;0, λ</title>
<path fill="none" stroke="#000000" d="M3.8163,-117.7367C16.8447,-117.7367 90.1116,-117.7367 138.3556,-117.7367"/>
<polygon fill="#000000" stroke="#000000" points="138.5375,-121.2368 148.5375,-117.7367 138.5374,-114.2368 138.5375,-121.2368"/>
</g>
<!-- 0, λ&#45;&gt;0, λ -->
<g id="edge1" class="edge">
<title>0, λ&#45;&gt;0, λ</title>
<path fill="none" stroke="#000000" d="M167.1,-147.4906C156.8372,-182.1677 161.5828,-222.4734 181.3367,-222.4734 199.2387,-222.4734 204.8145,-189.3708 198.0641,-157.3541"/>
<polygon fill="#000000" stroke="#000000" points="201.4153,-156.3293 195.5734,-147.4906 194.6283,-158.0432 201.4153,-156.3293"/>
<text text-anchor="middle" x="181.3367" y="-226.6734" font-family="Times,serif" font-size="14.00" fill="#000000">?:?</text>
</g>
<!-- 1, λ -->
<g id="node3" class="node">
<title>1, λ</title>
<ellipse fill="none" stroke="#000000" cx="490.367" cy="-203.7367" rx="28.946" ry="28.946"/>
<ellipse fill="none" stroke="#000000" cx="490.367" cy="-203.7367" rx="32.9752" ry="32.9752"/>
<text text-anchor="middle" x="490.367" y="-199.5367" font-family="Times,serif" font-size="14.00" fill="#000000">1, λ</text>
</g>
<!-- 0, λ&#45;&gt;1, λ -->
<g id="edge4" class="edge">
<title>0, λ&#45;&gt;1, λ</title>
<path fill="none" stroke="#000000" d="M212.9561,-126.5361C269.0578,-142.1486 385.9871,-174.6889 448.6248,-192.1203"/>
<polygon fill="#000000" stroke="#000000" points="447.989,-195.5763 458.5613,-194.8855 449.8658,-188.8326 447.989,-195.5763"/>
<text text-anchor="middle" x="335.8518" y="-176.9367" font-family="Times,serif" font-size="14.00" fill="#000000">i:i, y:y, e:e, ø:ø</text>
</g>
<!-- 2, λ -->
<g id="node4" class="node">
<title>2, λ</title>
<ellipse fill="none" stroke="#000000" cx="490.367" cy="-32.7367" rx="28.946" ry="28.946"/>
<ellipse fill="none" stroke="#000000" cx="490.367" cy="-32.7367" rx="32.9752" ry="32.9752"/>
<text text-anchor="middle" x="490.367" y="-28.5367" font-family="Times,serif" font-size="14.00" fill="#000000">2, λ</text>
</g>
<!-- 0, λ&#45;&gt;2, λ -->
<g id="edge5" class="edge">
<title>0, λ&#45;&gt;2, λ</title>
<path fill="none" stroke="#000000" d="M211.5954,-104.4781C232.2767,-95.7828 260.4725,-84.6396 286.0734,-76.9367 341.0127,-60.4064 406.0124,-47.4355 447.6918,-39.9323"/>
<polygon fill="#000000" stroke="#000000" points="448.5313,-43.3381 457.7655,-38.1437 447.3076,-36.4459 448.5313,-43.3381"/>
<text text-anchor="middle" x="335.8518" y="-81.9367" font-family="Times,serif" font-size="14.00" fill="#000000">ɯ:ɯ, u:u, a:a, o:o</text>
</g>
<!-- 1, λ&#45;&gt;1, λ -->
<g id="edge2" class="edge">
<title>1, λ&#45;&gt;1, λ</title>
<path fill="none" stroke="#000000" d="M470.7555,-230.2988C453.6765,-265.6426 460.2136,-308.4734 490.367,-308.4734 517.929,-308.4734 525.7594,-272.6878 513.8584,-239.5448"/>
<polygon fill="#000000" stroke="#000000" points="517.0753,-238.1655 509.9784,-230.2988 510.6206,-240.8742 517.0753,-238.1655"/>
<text text-anchor="middle" x="490.367" y="-312.6734" font-family="Times,serif" font-size="14.00" fill="#000000">?:?, i:i, y:y, e:e, ø:ø, ɯ:i, u:y, a:e, o:ø</text>
</g>
<!-- 2, λ&#45;&gt;2, λ -->
<g id="edge3" class="edge">
<title>2, λ&#45;&gt;2, λ</title>
<path fill="none" stroke="#000000" d="M470.7555,-59.2988C453.6765,-94.6426 460.2136,-137.4734 490.367,-137.4734 517.929,-137.4734 525.7594,-101.6878 513.8584,-68.5448"/>
<polygon fill="#000000" stroke="#000000" points="517.0753,-67.1655 509.9784,-59.2988 510.6206,-69.8742 517.0753,-67.1655"/>
<text text-anchor="middle" x="490.367" y="-141.6734" font-family="Times,serif" font-size="14.00" fill="#000000">?:?, ɯ:ɯ, u:u, a:a, o:o, i:ɯ, y:u, e:a, ø:o</text>
</g>
</g>
</svg>
