<?xml version="1.0" encoding="UTF-8" standalone="no"?>
<!DOCTYPE svg PUBLIC "-//W3C//DTD SVG 1.1//EN"
 "http://www.w3.org/Graphics/SVG/1.1/DTD/svg11.dtd">
<!-- Generated by graphviz version 2.40.1 (20161225.0304)
 -->
<!-- Title: fst Pages: 1 -->
<svg width="647pt" height="405pt"
 viewBox="0.00 0.00 646.93 404.76" xmlns="http://www.w3.org/2000/svg" xmlns:xlink="http://www.w3.org/1999/xlink">
<g id="graph0" class="graph" transform="scale(1 1) rotate(0) translate(36 368.7596)">
<title>fst</title>
<polygon fill="#ffffff" stroke="transparent" points="-36,36 -36,-368.7596 610.9275,-368.7596 610.9275,36 -36,36"/>
<!-- start -->
<g id="node1" class="node">
<title>start</title>
<ellipse fill="#000000" stroke="#000000" cx="1.8" cy="-122.151" rx="1.8" ry="1.8"/>
</g>
<!-- 0, ʁɑ -->
<g id="node2" class="node">
<title>0, ʁɑ</title>
<ellipse fill="none" stroke="#000000" cx="183.751" cy="-122.151" rx="31.2853" ry="31.2853"/>
<ellipse fill="none" stroke="#000000" cx="183.751" cy="-122.151" rx="35.3026" ry="35.3026"/>
<text text-anchor="middle" x="183.751" y="-117.951" font-family="Times,serif" font-size="14.00" fill="#000000">0, ʁɑ</text>
</g>
<!-- start&#45;&gt;0, ʁɑ -->
<g id="edge6" class="edge">
<title>start&#45;&gt;0, ʁɑ</title>
<path fill="none" stroke="#000000" d="M3.8434,-122.151C16.8924,-122.151 89.569,-122.151 138.4644,-122.151"/>
<polygon fill="#000000" stroke="#000000" points="138.5073,-125.6511 148.5072,-122.151 138.5072,-118.6511 138.5073,-125.6511"/>
</g>
<!-- 0, ʁɑ&#45;&gt;0, ʁɑ -->
<g id="edge1" class="edge">
<title>0, ʁɑ&#45;&gt;0, ʁɑ</title>
<path fill="none" stroke="#000000" d="M168.7674,-154.2362C158.9332,-189.3293 163.9277,-229.3019 183.751,-229.3019 201.7158,-229.3019 207.5019,-196.4729 201.1094,-164.1978"/>
<polygon fill="#000000" stroke="#000000" points="204.4582,-163.1519 198.7345,-154.2362 197.6491,-164.7753 204.4582,-163.1519"/>
<text text-anchor="middle" x="183.751" y="-233.5019" font-family="Times,serif" font-size="14.00" fill="#000000">?:?, i:i, e:e</text>
</g>
<!-- 1, ga -->
<g id="node3" class="node">
<title>1, ga</title>
<ellipse fill="none" stroke="#000000" cx="468.7963" cy="-210.151" rx="29.6409" ry="29.6409"/>
<ellipse fill="none" stroke="#000000" cx="468.7963" cy="-210.151" rx="33.6184" ry="33.6184"/>
<text text-anchor="middle" x="468.7963" y="-205.951" font-family="Times,serif" font-size="14.00" fill="#000000">1, ga</text>
</g>
<!-- 0, ʁɑ&#45;&gt;1, ga -->
<g id="edge4" class="edge">
<title>0, ʁɑ&#45;&gt;1, ga</title>
<path fill="none" stroke="#000000" d="M217.5688,-132.5913C269.7383,-148.6972 369.7506,-179.5733 426.5876,-197.1202"/>
<polygon fill="#000000" stroke="#000000" points="425.7512,-200.5249 436.3387,-200.1306 427.8161,-193.8364 425.7512,-200.5249"/>
<text text-anchor="middle" x="326.2736" y="-180.351" font-family="Times,serif" font-size="14.00" fill="#000000">a:a, y:y, ø:ø</text>
</g>
<!-- 2, ʁɑ -->
<g id="node4" class="node">
<title>2, ʁɑ</title>
<ellipse fill="none" stroke="#000000" cx="468.7963" cy="-35.151" rx="31.2853" ry="31.2853"/>
<ellipse fill="none" stroke="#000000" cx="468.7963" cy="-35.151" rx="35.3026" ry="35.3026"/>
<text text-anchor="middle" x="468.7963" y="-30.951" font-family="Times,serif" font-size="14.00" fill="#000000">2, ʁɑ</text>
</g>
<!-- 0, ʁɑ&#45;&gt;2, ʁɑ -->
<g id="edge5" class="edge">
<title>0, ʁɑ&#45;&gt;2, ʁɑ</title>
<path fill="none" stroke="#000000" d="M216.7677,-108.9488C237.808,-100.7699 265.7468,-90.3395 290.9019,-82.351 335.998,-68.0298 388.4444,-54.484 424.6495,-45.6081"/>
<polygon fill="#000000" stroke="#000000" points="425.5225,-48.9979 434.4109,-43.2317 423.8667,-42.1965 425.5225,-48.9979"/>
<text text-anchor="middle" x="326.2736" y="-87.351" font-family="Times,serif" font-size="14.00" fill="#000000">u:u, ɑ:ɑ, o:o</text>
</g>
<!-- 1, ga&#45;&gt;1, ga -->
<g id="edge2" class="edge">
<title>1, ga&#45;&gt;1, ga</title>
<path fill="none" stroke="#000000" d="M450.0207,-238.5925C435.1501,-273.9756 441.4086,-315.9596 468.7963,-315.9596 493.7234,-315.9596 501.1474,-281.1807 491.0683,-248.254"/>
<polygon fill="#000000" stroke="#000000" points="494.266,-246.8047 487.5718,-238.5925 487.6838,-249.1868 494.266,-246.8047"/>
<text text-anchor="middle" x="468.7963" y="-320.1596" font-family="Times,serif" font-size="14.00" fill="#000000">?:?, i:i, e:e, ø:ø, y:y, a:a, u:y, ɑ:a, o:ø</text>
</g>
<!-- 2, ʁɑ&#45;&gt;2, ʁɑ -->
<g id="edge3" class="edge">
<title>2, ʁɑ&#45;&gt;2, ʁɑ</title>
<path fill="none" stroke="#000000" d="M449.6856,-64.7709C435.2463,-100.4286 441.6166,-142.3019 468.7963,-142.3019 493.534,-142.3019 501.0336,-107.6147 491.2949,-74.4974"/>
<polygon fill="#000000" stroke="#000000" points="494.5016,-73.0632 487.907,-64.7709 487.8912,-75.3657 494.5016,-73.0632"/>
<text text-anchor="middle" x="468.7963" y="-146.5019" font-family="Times,serif" font-size="14.00" fill="#000000">?:?, i:i, e:e, u:u, ɑ:ɑ, o:o, y:u, a:ɑ, ø:o</text>
</g>
</g>
</svg>
