<?xml version="1.0" encoding="UTF-8" standalone="no"?>
<!DOCTYPE svg PUBLIC "-//W3C//DTD SVG 1.1//EN"
 "http://www.w3.org/Graphics/SVG/1.1/DTD/svg11.dtd">
<!-- Generated by graphviz version 2.40.1 (20161225.0304)
 -->
<!-- Title: fst Pages: 1 -->
<svg width="570pt" height="397pt"
 viewBox="0.00 0.00 569.71 397.27" xmlns="http://www.w3.org/2000/svg" xmlns:xlink="http://www.w3.org/1999/xlink">
<g id="graph0" class="graph" transform="scale(1 1) rotate(0) translate(36 361.2734)">
<title>fst</title>
<polygon fill="#ffffff" stroke="transparent" points="-36,36 -36,-361.2734 533.7093,-361.2734 533.7093,36 -36,36"/>
<!-- start -->
<g id="node1" class="node">
<title>start</title>
<ellipse fill="#000000" stroke="#000000" cx="1.8" cy="-117.7367" rx="1.8" ry="1.8"/>
</g>
<!-- 0, λ -->
<g id="node2" class="node">
<title>0, λ</title>
<ellipse fill="none" stroke="#000000" cx="181.3367" cy="-117.7367" rx="28.946" ry="28.946"/>
<ellipse fill="none" stroke="#000000" cx="181.3367" cy="-117.7367" rx="32.9752" ry="32.9752"/>
<text text-anchor="middle" x="181.3367" y="-113.5367" font-family="Times,serif" font-size="14.00" fill="#000000">0, λ</text>
</g>
<!-- start&#45;&gt;0, λ -->
<g id="edge6" class="edge">
<title>start&#45;&gt;0, λ</title>
<path fill="none" stroke="#000000" d="M3.8163,-117.7367C16.8447,-117.7367 90.1116,-117.7367 138.3556,-117.7367"/>
<polygon fill="#000000" stroke="#000000" points="138.5375,-121.2368 148.5375,-117.7367 138.5374,-114.2368 138.5375,-121.2368"/>
</g>
<!-- 0, λ&#45;&gt;0, λ -->
<g id="edge1" class="edge">
<title>0, λ&#45;&gt;0, λ</title>
<path fill="none" stroke="#000000" d="M167.1,-147.4906C156.8372,-182.1677 161.5828,-222.4734 181.3367,-222.4734 199.2387,-222.4734 204.8145,-189.3708 198.0641,-157.3541"/>
<polygon fill="#000000" stroke="#000000" points="201.4153,-156.3293 195.5734,-147.4906 194.6283,-158.0432 201.4153,-156.3293"/>
<text text-anchor="middle" x="181.3367" y="-226.6734" font-family="Times,serif" font-size="14.00" fill="#000000">?:?</text>
</g>
<!-- 1, λ -->
<g id="node3" class="node">
<title>1, λ</title>
<ellipse fill="none" stroke="#000000" cx="438.2338" cy="-203.7367" rx="28.946" ry="28.946"/>
<ellipse fill="none" stroke="#000000" cx="438.2338" cy="-203.7367" rx="32.9752" ry="32.9752"/>
<text text-anchor="middle" x="438.2338" y="-199.5367" font-family="Times,serif" font-size="14.00" fill="#000000">1, λ</text>
</g>
<!-- 0, λ&#45;&gt;1, λ -->
<g id="edge4" class="edge">
<title>0, λ&#45;&gt;1, λ</title>
<path fill="none" stroke="#000000" d="M212.5805,-128.196C258.8385,-143.6816 345.6014,-172.7267 397.0167,-189.9387"/>
<polygon fill="#000000" stroke="#000000" points="396.2121,-193.3602 406.806,-193.2158 398.4343,-186.7223 396.2121,-193.3602"/>
<text text-anchor="middle" x="309.7852" y="-171.9367" font-family="Times,serif" font-size="14.00" fill="#000000">i:i, e:e</text>
</g>
<!-- 2, λ -->
<g id="node4" class="node">
<title>2, λ</title>
<ellipse fill="none" stroke="#000000" cx="438.2338" cy="-32.7367" rx="28.946" ry="28.946"/>
<ellipse fill="none" stroke="#000000" cx="438.2338" cy="-32.7367" rx="32.9752" ry="32.9752"/>
<text text-anchor="middle" x="438.2338" y="-28.5367" font-family="Times,serif" font-size="14.00" fill="#000000">2, λ</text>
</g>
<!-- 0, λ&#45;&gt;2, λ -->
<g id="edge5" class="edge">
<title>0, λ&#45;&gt;2, λ</title>
<path fill="none" stroke="#000000" d="M211.7793,-105.0527C232.5404,-96.607 260.7561,-85.5261 286.0734,-76.9367 323.0526,-64.3908 365.8071,-52.168 396.5618,-43.7676"/>
<polygon fill="#000000" stroke="#000000" points="397.7709,-47.0662 406.506,-41.0703 395.9384,-40.3103 397.7709,-47.0662"/>
<text text-anchor="middle" x="309.7852" y="-81.9367" font-family="Times,serif" font-size="14.00" fill="#000000">y:y, ø:ø</text>
</g>
<!-- 1, λ&#45;&gt;1, λ -->
<g id="edge2" class="edge">
<title>1, λ&#45;&gt;1, λ</title>
<path fill="none" stroke="#000000" d="M421.3093,-231.8902C407.9048,-266.9147 413.5463,-308.4734 438.2338,-308.4734 460.7032,-308.4734 467.3953,-274.0469 458.3099,-241.4537"/>
<polygon fill="#000000" stroke="#000000" points="461.6124,-240.2922 455.1582,-231.8902 454.9641,-242.4832 461.6124,-240.2922"/>
<text text-anchor="middle" x="438.2338" y="-312.6734" font-family="Times,serif" font-size="14.00" fill="#000000">?:?, y:i, ø:e, i:i, e:e</text>
</g>
<!-- 2, λ&#45;&gt;2, λ -->
<g id="edge3" class="edge">
<title>2, λ&#45;&gt;2, λ</title>
<path fill="none" stroke="#000000" d="M421.3093,-60.8902C407.9048,-95.9147 413.5463,-137.4734 438.2338,-137.4734 460.7032,-137.4734 467.3953,-103.0469 458.3099,-70.4537"/>
<polygon fill="#000000" stroke="#000000" points="461.6124,-69.2922 455.1582,-60.8902 454.9641,-71.4832 461.6124,-69.2922"/>
<text text-anchor="middle" x="438.2338" y="-141.6734" font-family="Times,serif" font-size="14.00" fill="#000000">?:?, i:y, e:ø, y:y, ø:ø</text>
</g>
</g>
</svg>
