<?xml version="1.0" encoding="UTF-8" standalone="no"?>
<!DOCTYPE svg PUBLIC "-//W3C//DTD SVG 1.1//EN"
 "http://www.w3.org/Graphics/SVG/1.1/DTD/svg11.dtd">
<!-- Generated by graphviz version 2.40.1 (20161225.0304)
 -->
<!-- Title: fst Pages: 1 -->
<svg width="648pt" height="407pt"
 viewBox="0.00 0.00 647.74 407.10" xmlns="http://www.w3.org/2000/svg" xmlns:xlink="http://www.w3.org/1999/xlink">
<g id="graph0" class="graph" transform="scale(1 1) rotate(0) translate(36 371.099)">
<title>fst</title>
<polygon fill="#ffffff" stroke="transparent" points="-36,36 -36,-371.099 611.7358,-371.099 611.7358,36 -36,36"/>
<!-- start -->
<g id="node1" class="node">
<title>start</title>
<ellipse fill="#000000" stroke="#000000" cx="1.8" cy="-123.4204" rx="1.8" ry="1.8"/>
</g>
<!-- 0, lɑr -->
<g id="node2" class="node">
<title>0, lɑr</title>
<ellipse fill="none" stroke="#000000" cx="184.0204" cy="-123.4204" rx="31.3499" ry="31.3499"/>
<ellipse fill="none" stroke="#000000" cx="184.0204" cy="-123.4204" rx="35.341" ry="35.341"/>
<text text-anchor="middle" x="184.0204" y="-119.2204" font-family="Times,serif" font-size="14.00" fill="#000000">0, lɑr</text>
</g>
<!-- start&#45;&gt;0, lɑr -->
<g id="edge6" class="edge">
<title>start&#45;&gt;0, lɑr</title>
<path fill="none" stroke="#000000" d="M3.8464,-123.4204C16.8783,-123.4204 89.2928,-123.4204 138.2559,-123.4204"/>
<polygon fill="#000000" stroke="#000000" points="138.3184,-126.9205 148.3183,-123.4204 138.3183,-119.9205 138.3184,-126.9205"/>
</g>
<!-- 0, lɑr&#45;&gt;0, lɑr -->
<g id="edge1" class="edge">
<title>0, lɑr&#45;&gt;0, lɑr</title>
<path fill="none" stroke="#000000" d="M169.0368,-155.5863C159.2026,-190.7677 164.1971,-230.8408 184.0204,-230.8408 201.9852,-230.8408 207.7714,-197.9292 201.3788,-165.573"/>
<polygon fill="#000000" stroke="#000000" points="204.7226,-164.5052 199.004,-155.5863 197.9125,-166.1247 204.7226,-164.5052"/>
<text text-anchor="middle" x="184.0204" y="-235.0408" font-family="Times,serif" font-size="14.00" fill="#000000">?:?, i:i, e:e</text>
</g>
<!-- 1, lar -->
<g id="node3" class="node">
<title>1, lar</title>
<ellipse fill="none" stroke="#000000" cx="469.6046" cy="-211.4204" rx="30.7716" ry="30.7716"/>
<ellipse fill="none" stroke="#000000" cx="469.6046" cy="-211.4204" rx="34.7577" ry="34.7577"/>
<text text-anchor="middle" x="469.6046" y="-207.2204" font-family="Times,serif" font-size="14.00" fill="#000000">1, lar</text>
</g>
<!-- 0, lɑr&#45;&gt;1, lar -->
<g id="edge4" class="edge">
<title>0, lɑr&#45;&gt;1, lar</title>
<path fill="none" stroke="#000000" d="M217.9021,-133.8607C269.8915,-149.8808 369.3042,-180.5138 426.4013,-198.1077"/>
<polygon fill="#000000" stroke="#000000" points="425.6215,-201.5298 436.2088,-201.1298 427.6829,-194.8402 425.6215,-201.5298"/>
<text text-anchor="middle" x="326.8125" y="-181.6204" font-family="Times,serif" font-size="14.00" fill="#000000">a:a, y:y, ø:ø</text>
</g>
<!-- 2, lɑr -->
<g id="node4" class="node">
<title>2, lɑr</title>
<ellipse fill="none" stroke="#000000" cx="469.6046" cy="-35.4204" rx="31.3499" ry="31.3499"/>
<ellipse fill="none" stroke="#000000" cx="469.6046" cy="-35.4204" rx="35.341" ry="35.341"/>
<text text-anchor="middle" x="469.6046" y="-31.2204" font-family="Times,serif" font-size="14.00" fill="#000000">2, lɑr</text>
</g>
<!-- 0, lɑr&#45;&gt;2, lɑr -->
<g id="edge5" class="edge">
<title>0, lɑr&#45;&gt;2, lɑr</title>
<path fill="none" stroke="#000000" d="M217.9021,-112.9801C269.6128,-97.0459 368.2395,-66.655 425.4792,-49.0172"/>
<polygon fill="#000000" stroke="#000000" points="426.7969,-52.2736 435.3228,-45.984 424.7355,-45.584 426.7969,-52.2736"/>
<text text-anchor="middle" x="326.8125" y="-94.6204" font-family="Times,serif" font-size="14.00" fill="#000000">u:u, ɑ:ɑ, o:o</text>
</g>
<!-- 1, lar&#45;&gt;1, lar -->
<g id="edge2" class="edge">
<title>1, lar&#45;&gt;1, lar</title>
<path fill="none" stroke="#000000" d="M450.6048,-240.693C436.0223,-276.3188 442.3555,-318.299 469.6046,-318.299 494.4054,-318.299 501.88,-283.5233 492.0283,-250.4141"/>
<polygon fill="#000000" stroke="#000000" points="495.2278,-248.9623 488.6044,-240.693 488.6254,-251.2878 495.2278,-248.9623"/>
<text text-anchor="middle" x="469.6046" y="-322.499" font-family="Times,serif" font-size="14.00" fill="#000000">?:?, i:i, e:e, ø:ø, y:y, a:a, u:y, ɑ:a, o:ø</text>
</g>
<!-- 2, lɑr&#45;&gt;2, lɑr -->
<g id="edge3" class="edge">
<title>2, lɑr&#45;&gt;2, lɑr</title>
<path fill="none" stroke="#000000" d="M450.3837,-65.3885C436.0873,-101.0761 442.4942,-142.8408 469.6046,-142.8408 494.2792,-142.8408 501.8035,-108.2436 492.1774,-75.1199"/>
<polygon fill="#000000" stroke="#000000" points="495.3914,-73.7035 488.8254,-65.3885 488.773,-75.9832 495.3914,-73.7035"/>
<text text-anchor="middle" x="469.6046" y="-147.0408" font-family="Times,serif" font-size="14.00" fill="#000000">?:?, i:i, e:e, u:u, ɑ:ɑ, o:o, y:u, a:ɑ, ø:o</text>
</g>
</g>
</svg>
