<?xml version="1.0" encoding="UTF-8" standalone="no"?>
<!DOCTYPE svg PUBLIC "-//W3C//DTD SVG 1.1//EN"
 "http://www.w3.org/Graphics/SVG/1.1/DTD/svg11.dtd">
<!-- Generated by graphviz version 2.40.1 (20161225.0304)
 -->
<!-- Title: fst Pages: 1 -->
<svg width="640pt" height="397pt"
 viewBox="0.00 0.00 639.68 397.27" xmlns="http://www.w3.org/2000/svg" xmlns:xlink="http://www.w3.org/1999/xlink">
<g id="graph0" class="graph" transform="scale(1 1) rotate(0) translate(36 361.2734)">
<title>fst</title>
<polygon fill="#ffffff" stroke="transparent" points="-36,36 -36,-361.2734 603.6848,-361.2734 603.6848,36 -36,36"/>
<!-- start -->
<g id="node1" class="node">
<title>start</title>
<ellipse fill="#000000" stroke="#000000" cx="1.8" cy="-117.7367" rx="1.8" ry="1.8"/>
</g>
<!-- 0, λ -->
<g id="node2" class="node">
<title>0, λ</title>
<ellipse fill="none" stroke="#000000" cx="181.3367" cy="-117.7367" rx="28.946" ry="28.946"/>
<ellipse fill="none" stroke="#000000" cx="181.3367" cy="-117.7367" rx="32.9752" ry="32.9752"/>
<text text-anchor="middle" x="181.3367" y="-113.5367" font-family="Times,serif" font-size="14.00" fill="#000000">0, λ</text>
</g>
<!-- start&#45;&gt;0, λ -->
<g id="edge6" class="edge">
<title>start&#45;&gt;0, λ</title>
<path fill="none" stroke="#000000" d="M3.8163,-117.7367C16.8447,-117.7367 90.1116,-117.7367 138.3556,-117.7367"/>
<polygon fill="#000000" stroke="#000000" points="138.5375,-121.2368 148.5375,-117.7367 138.5374,-114.2368 138.5375,-121.2368"/>
</g>
<!-- 0, λ&#45;&gt;0, λ -->
<g id="edge1" class="edge">
<title>0, λ&#45;&gt;0, λ</title>
<path fill="none" stroke="#000000" d="M167.1,-147.4906C156.8372,-182.1677 161.5828,-222.4734 181.3367,-222.4734 199.2387,-222.4734 204.8145,-189.3708 198.0641,-157.3541"/>
<polygon fill="#000000" stroke="#000000" points="201.4153,-156.3293 195.5734,-147.4906 194.6283,-158.0432 201.4153,-156.3293"/>
<text text-anchor="middle" x="181.3367" y="-226.6734" font-family="Times,serif" font-size="14.00" fill="#000000">?:?, i:i, e:e</text>
</g>
<!-- 1, λ -->
<g id="node3" class="node">
<title>1, λ</title>
<ellipse fill="none" stroke="#000000" cx="461.5536" cy="-203.7367" rx="28.946" ry="28.946"/>
<ellipse fill="none" stroke="#000000" cx="461.5536" cy="-203.7367" rx="32.9752" ry="32.9752"/>
<text text-anchor="middle" x="461.5536" y="-199.5367" font-family="Times,serif" font-size="14.00" fill="#000000">1, λ</text>
</g>
<!-- 0, λ&#45;&gt;1, λ -->
<g id="edge4" class="edge">
<title>0, λ&#45;&gt;1, λ</title>
<path fill="none" stroke="#000000" d="M212.6655,-127.3517C263.4574,-142.94 363.7754,-173.7281 420.3086,-191.0784"/>
<polygon fill="#000000" stroke="#000000" points="419.411,-194.464 429.9978,-194.0521 421.4648,-187.7721 419.411,-194.464"/>
<text text-anchor="middle" x="321.4451" y="-174.9367" font-family="Times,serif" font-size="14.00" fill="#000000">a:a, y:y, ø:ø</text>
</g>
<!-- 2, λ -->
<g id="node4" class="node">
<title>2, λ</title>
<ellipse fill="none" stroke="#000000" cx="461.5536" cy="-32.7367" rx="28.946" ry="28.946"/>
<ellipse fill="none" stroke="#000000" cx="461.5536" cy="-32.7367" rx="32.9752" ry="32.9752"/>
<text text-anchor="middle" x="461.5536" y="-28.5367" font-family="Times,serif" font-size="14.00" fill="#000000">2, λ</text>
</g>
<!-- 0, λ&#45;&gt;2, λ -->
<g id="edge5" class="edge">
<title>0, λ&#45;&gt;2, λ</title>
<path fill="none" stroke="#000000" d="M211.6818,-104.7568C232.4007,-96.1826 260.6058,-85.0696 286.0734,-76.9367 331.0179,-62.5841 383.6189,-49.8602 419.4269,-41.7933"/>
<polygon fill="#000000" stroke="#000000" points="420.518,-45.136 429.5165,-39.5434 418.9944,-38.3038 420.518,-45.136"/>
<text text-anchor="middle" x="321.4451" y="-81.9367" font-family="Times,serif" font-size="14.00" fill="#000000">u:u, ɑ:ɑ, o:o</text>
</g>
<!-- 1, λ&#45;&gt;1, λ -->
<g id="edge2" class="edge">
<title>1, λ&#45;&gt;1, λ</title>
<path fill="none" stroke="#000000" d="M443.3801,-231.0933C428.2887,-266.2811 434.3465,-308.4734 461.5536,-308.4734 486.3162,-308.4734 493.5592,-273.5219 483.2825,-240.7114"/>
<polygon fill="#000000" stroke="#000000" points="486.4773,-239.2594 479.727,-231.0933 479.9115,-241.6865 486.4773,-239.2594"/>
<text text-anchor="middle" x="461.5536" y="-312.6734" font-family="Times,serif" font-size="14.00" fill="#000000">?:?, i:i, e:e, ø:ø, y:y, a:a, u:y, ɑ:a, o:ø</text>
</g>
<!-- 2, λ&#45;&gt;2, λ -->
<g id="edge3" class="edge">
<title>2, λ&#45;&gt;2, λ</title>
<path fill="none" stroke="#000000" d="M443.3801,-60.0933C428.2887,-95.2811 434.3465,-137.4734 461.5536,-137.4734 486.3162,-137.4734 493.5592,-102.5219 483.2825,-69.7114"/>
<polygon fill="#000000" stroke="#000000" points="486.4773,-68.2594 479.727,-60.0933 479.9115,-70.6865 486.4773,-68.2594"/>
<text text-anchor="middle" x="461.5536" y="-141.6734" font-family="Times,serif" font-size="14.00" fill="#000000">?:?, i:i, e:e, u:u, ɑ:ɑ, o:o, y:u, a:ɑ, ø:o</text>
</g>
</g>
</svg>
