<?xml version="1.0" encoding="UTF-8" standalone="no"?>
<!DOCTYPE svg PUBLIC "-//W3C//DTD SVG 1.1//EN"
 "http://www.w3.org/Graphics/SVG/1.1/DTD/svg11.dtd">
<!-- Generated by graphviz version 2.40.1 (20161225.0304)
 -->
<!-- Title: fst Pages: 1 -->
<svg width="616pt" height="365pt"
 viewBox="0.00 0.00 615.55 365.19" xmlns="http://www.w3.org/2000/svg" xmlns:xlink="http://www.w3.org/1999/xlink">
<g id="graph0" class="graph" transform="scale(1 1) rotate(0) translate(36 329.1869)">
<title>fst</title>
<polygon fill="#ffffff" stroke="transparent" points="-36,36 -36,-329.1869 579.555,-329.1869 579.555,36 -36,36"/>
<!-- start -->
<g id="node1" class="node">
<title>start</title>
<ellipse fill="#000000" stroke="#000000" cx="1.8" cy="-101.6935" rx="1.8" ry="1.8"/>
</g>
<!-- 0,  -->
<g id="node2" class="node">
<title>0, </title>
<ellipse fill="none" stroke="#000000" cx="173.2935" cy="-101.6935" rx="20.8568" ry="20.8568"/>
<ellipse fill="none" stroke="#000000" cx="173.2935" cy="-101.6935" rx="24.8884" ry="24.8884"/>
<text text-anchor="middle" x="173.2935" y="-97.4935" font-family="Times,serif" font-size="14.00" fill="#000000">0, </text>
</g>
<!-- start&#45;&gt;0,  -->
<g id="edge6" class="edge">
<title>start&#45;&gt;0, </title>
<path fill="none" stroke="#000000" d="M3.726,-101.6935C16.733,-101.6935 92.5973,-101.6935 138.3308,-101.6935"/>
<polygon fill="#000000" stroke="#000000" points="138.4256,-105.1936 148.4256,-101.6935 138.4255,-98.1936 138.4256,-105.1936"/>
</g>
<!-- 0, &#45;&gt;0,  -->
<g id="edge1" class="edge">
<title>0, &#45;&gt;0, </title>
<path fill="none" stroke="#000000" d="M161.8072,-124.0297C150.246,-157.0504 154.0747,-198.3869 173.2935,-198.3869 190.6354,-198.3869 195.4464,-164.7297 187.7264,-133.8954"/>
<polygon fill="#000000" stroke="#000000" points="190.9953,-132.6097 184.7797,-124.0297 184.2881,-134.6131 190.9953,-132.6097"/>
<text text-anchor="middle" x="173.2935" y="-202.5869" font-family="Times,serif" font-size="14.00" fill="#000000">?:?, i:i, e:e</text>
</g>
<!-- 1,  -->
<g id="node3" class="node">
<title>1, </title>
<ellipse fill="none" stroke="#000000" cx="437.4238" cy="-179.6935" rx="20.8568" ry="20.8568"/>
<ellipse fill="none" stroke="#000000" cx="437.4238" cy="-179.6935" rx="24.8884" ry="24.8884"/>
<text text-anchor="middle" x="437.4238" y="-175.4935" font-family="Times,serif" font-size="14.00" fill="#000000">1, </text>
</g>
<!-- 0, &#45;&gt;1,  -->
<g id="edge4" class="edge">
<title>0, &#45;&gt;1, </title>
<path fill="none" stroke="#000000" d="M197.1991,-108.753C244.3225,-122.6689 349.3275,-153.6778 403.5582,-169.6927"/>
<polygon fill="#000000" stroke="#000000" points="402.8,-173.1181 413.3818,-172.5937 404.7825,-166.4047 402.8,-173.1181"/>
<text text-anchor="middle" x="305.3586" y="-153.8935" font-family="Times,serif" font-size="14.00" fill="#000000">a:a, y:y, ø:ø</text>
</g>
<!-- 2,  -->
<g id="node4" class="node">
<title>2, </title>
<ellipse fill="none" stroke="#000000" cx="437.4238" cy="-24.6935" rx="20.8568" ry="20.8568"/>
<ellipse fill="none" stroke="#000000" cx="437.4238" cy="-24.6935" rx="24.8884" ry="24.8884"/>
<text text-anchor="middle" x="437.4238" y="-20.4935" font-family="Times,serif" font-size="14.00" fill="#000000">2, </text>
</g>
<!-- 0, &#45;&gt;2,  -->
<g id="edge5" class="edge">
<title>0, &#45;&gt;2, </title>
<path fill="none" stroke="#000000" d="M194.9502,-89.7928C214.1522,-79.6996 243.222,-65.5241 269.9869,-56.8935 314.7952,-42.4445 368.5549,-33.5204 402.8481,-28.8334"/>
<polygon fill="#000000" stroke="#000000" points="403.3793,-32.2937 412.8343,-27.5134 402.4619,-25.3541 403.3793,-32.2937"/>
<text text-anchor="middle" x="305.3586" y="-61.8935" font-family="Times,serif" font-size="14.00" fill="#000000">u:u, ɑ:ɑ, o:o</text>
</g>
<!-- 1, &#45;&gt;1,  -->
<g id="edge2" class="edge">
<title>1, &#45;&gt;1, </title>
<path fill="none" stroke="#000000" d="M422.8312,-199.6291C405.4892,-233.0094 410.3534,-276.3869 437.4238,-276.3869 462.062,-276.3869 468.305,-240.4537 456.1528,-208.8295"/>
<polygon fill="#000000" stroke="#000000" points="459.3092,-207.3145 452.0163,-199.6291 452.9248,-210.1849 459.3092,-207.3145"/>
<text text-anchor="middle" x="437.4238" y="-280.5869" font-family="Times,serif" font-size="14.00" fill="#000000">?:?, i:i, e:e, ø:ø, y:y, a:a, u:y, ɑ:a, o:ø</text>
</g>
<!-- 2, &#45;&gt;2,  -->
<g id="edge3" class="edge">
<title>2, &#45;&gt;2, </title>
<path fill="none" stroke="#000000" d="M422.8312,-44.6291C405.4892,-78.0094 410.3534,-121.3869 437.4238,-121.3869 462.062,-121.3869 468.305,-85.4537 456.1528,-53.8295"/>
<polygon fill="#000000" stroke="#000000" points="459.3092,-52.3145 452.0163,-44.6291 452.9248,-55.1849 459.3092,-52.3145"/>
<text text-anchor="middle" x="437.4238" y="-125.5869" font-family="Times,serif" font-size="14.00" fill="#000000">?:?, i:i, e:e, u:u, ɑ:ɑ, o:o, y:u, a:ɑ, ø:o</text>
</g>
</g>
</svg>
