<?xml version="1.0" encoding="UTF-8" standalone="no"?>
<!DOCTYPE svg PUBLIC "-//W3C//DTD SVG 1.1//EN"
 "http://www.w3.org/Graphics/SVG/1.1/DTD/svg11.dtd">
<!-- Generated by graphviz version 2.40.1 (20161225.0304)
 -->
<!-- Title: fst Pages: 1 -->
<svg width="720pt" height="585pt"
 viewBox="0.00 0.00 720.00 585.24" xmlns="http://www.w3.org/2000/svg" xmlns:xlink="http://www.w3.org/1999/xlink">
<g id="graph0" class="graph" transform="scale(.3743 .3743) rotate(0) translate(36 1527.3961)">
<title>fst</title>
<polygon fill="#ffffff" stroke="transparent" points="-36,36 -36,-1527.3961 1887.3839,-1527.3961 1887.3839,36 -36,36"/>
<!-- start -->
<g id="node1" class="node">
<title>start</title>
<ellipse fill="#000000" stroke="#000000" cx="1.8" cy="-966.5961" rx="1.8" ry="1.8"/>
</g>
<!-- 0, λ -->
<g id="node2" class="node">
<title>0, λ</title>
<ellipse fill="none" stroke="#000000" cx="181.3367" cy="-966.5961" rx="28.946" ry="28.946"/>
<ellipse fill="none" stroke="#000000" cx="181.3367" cy="-966.5961" rx="32.9752" ry="32.9752"/>
<text text-anchor="middle" x="181.3367" y="-962.3961" font-family="Times,serif" font-size="14.00" fill="#000000">0, λ</text>
</g>
<!-- start&#45;&gt;0, λ -->
<g id="edge34" class="edge">
<title>start&#45;&gt;0, λ</title>
<path fill="none" stroke="#000000" d="M3.8163,-966.5961C16.8447,-966.5961 90.1116,-966.5961 138.3556,-966.5961"/>
<polygon fill="#000000" stroke="#000000" points="138.5375,-970.0962 148.5375,-966.5961 138.5374,-963.0962 138.5375,-970.0962"/>
</g>
<!-- 0, λ&#45;&gt;0, λ -->
<g id="edge1" class="edge">
<title>0, λ&#45;&gt;0, λ</title>
<path fill="none" stroke="#000000" d="M167.1,-996.35C156.8372,-1031.0271 161.5828,-1071.3328 181.3367,-1071.3328 199.2387,-1071.3328 204.8145,-1038.2302 198.0641,-1006.2135"/>
<polygon fill="#000000" stroke="#000000" points="201.4153,-1005.1887 195.5734,-996.35 194.6283,-1006.9026 201.4153,-1005.1887"/>
<text text-anchor="middle" x="181.3367" y="-1075.5328" font-family="Times,serif" font-size="14.00" fill="#000000">?:?, i:i, u:u</text>
</g>
<!-- 1, λ -->
<g id="node3" class="node">
<title>1, λ</title>
<ellipse fill="none" stroke="#000000" cx="432.0206" cy="-801.5961" rx="28.946" ry="28.946"/>
<ellipse fill="none" stroke="#000000" cx="432.0206" cy="-801.5961" rx="32.9752" ry="32.9752"/>
<text text-anchor="middle" x="432.0206" y="-797.3961" font-family="Times,serif" font-size="14.00" fill="#000000">1, λ</text>
</g>
<!-- 0, λ&#45;&gt;1, λ -->
<g id="edge8" class="edge">
<title>0, λ&#45;&gt;1, λ</title>
<path fill="none" stroke="#000000" d="M209.1221,-948.3078C254.6996,-918.3087 345.3155,-858.6654 395.8435,-825.4079"/>
<polygon fill="#000000" stroke="#000000" points="398.0641,-828.1364 404.4928,-819.7149 394.2155,-822.2893 398.0641,-828.1364"/>
<text text-anchor="middle" x="306.6786" y="-897.7961" font-family="Times,serif" font-size="14.00" fill="#000000">e:e, o:o</text>
</g>
<!-- 2, λ -->
<g id="node4" class="node">
<title>2, λ</title>
<ellipse fill="none" stroke="#000000" cx="1229.9907" cy="-1120.5961" rx="28.946" ry="28.946"/>
<ellipse fill="none" stroke="#000000" cx="1229.9907" cy="-1120.5961" rx="32.9752" ry="32.9752"/>
<text text-anchor="middle" x="1229.9907" y="-1116.3961" font-family="Times,serif" font-size="14.00" fill="#000000">2, λ</text>
</g>
<!-- 0, λ&#45;&gt;2, λ -->
<g id="edge9" class="edge">
<title>0, λ&#45;&gt;2, λ</title>
<path fill="none" stroke="#000000" d="M189.5885,-998.3738C219.3864,-1109.5874 325.3127,-1474.5961 432.0206,-1474.5961 432.0206,-1474.5961 432.0206,-1474.5961 977.7361,-1474.5961 1129.3681,-1474.5961 1198.3721,-1256.5204 1221.0436,-1162.6945"/>
<polygon fill="#000000" stroke="#000000" points="1224.4529,-1163.4858 1223.339,-1152.9497 1217.6394,-1161.8808 1224.4529,-1163.4858"/>
<text text-anchor="middle" x="731.7002" y="-1478.7961" font-family="Times,serif" font-size="14.00" fill="#000000">ɛ:ɛ, ɔ:ɔ</text>
</g>
<!-- 6, λ -->
<g id="node8" class="node">
<title>6, λ</title>
<ellipse fill="none" stroke="#000000" cx="977.7361" cy="-1094.5961" rx="28.946" ry="28.946"/>
<ellipse fill="none" stroke="#000000" cx="977.7361" cy="-1094.5961" rx="32.9752" ry="32.9752"/>
<text text-anchor="middle" x="977.7361" y="-1090.3961" font-family="Times,serif" font-size="14.00" fill="#000000">6, λ</text>
</g>
<!-- 0, λ&#45;&gt;6, λ -->
<g id="edge7" class="edge">
<title>0, λ&#45;&gt;6, λ</title>
<path fill="none" stroke="#000000" d="M212.7044,-976.6677C233.3793,-983.0358 261.1423,-991.0767 286.0734,-996.5961 527.8624,-1050.1248 590.4935,-1054.6298 836.4369,-1083.5961 869.2643,-1087.4624 906.5484,-1090.3 934.5722,-1092.124"/>
<polygon fill="#000000" stroke="#000000" points="934.6294,-1095.6345 944.8306,-1092.7734 935.0718,-1088.6485 934.6294,-1095.6345"/>
<text text-anchor="middle" x="581.8604" y="-1061.7961" font-family="Times,serif" font-size="14.00" fill="#000000">a:a</text>
</g>
<!-- 7, λ -->
<g id="node9" class="node">
<title>7, λ</title>
<ellipse fill="none" stroke="#000000" cx="977.7361" cy="-637.5961" rx="28.946" ry="28.946"/>
<ellipse fill="none" stroke="#000000" cx="977.7361" cy="-637.5961" rx="32.9752" ry="32.9752"/>
<text text-anchor="middle" x="977.7361" y="-633.3961" font-family="Times,serif" font-size="14.00" fill="#000000">7, λ</text>
</g>
<!-- 0, λ&#45;&gt;7, λ -->
<g id="edge25" class="edge">
<title>0, λ&#45;&gt;7, λ</title>
<path fill="none" stroke="#000000" d="M191.5265,-935.2574C224.1773,-840.3806 335.9772,-555.1047 536.7573,-429.7961 622.9727,-375.9883 671.249,-368.0449 764.4369,-408.5961 854.5734,-447.8195 923.8438,-545.9849 956.7197,-600.186"/>
<polygon fill="#000000" stroke="#000000" points="953.7379,-602.0195 961.8692,-608.8116 959.7483,-598.4312 953.7379,-602.0195"/>
<text text-anchor="middle" x="581.8604" y="-433.7961" font-family="Times,serif" font-size="14.00" fill="#000000">+:+</text>
</g>
<!-- 1, λ&#45;&gt;1, λ -->
<g id="edge2" class="edge">
<title>1, λ&#45;&gt;1, λ</title>
<path fill="none" stroke="#000000" d="M415.5267,-830.0157C402.6672,-864.9843 408.1651,-906.3328 432.0206,-906.3328 453.7328,-906.3328 460.2379,-872.0804 451.5359,-839.5607"/>
<polygon fill="#000000" stroke="#000000" points="454.8692,-838.4931 448.5144,-830.0157 448.1956,-840.6057 454.8692,-838.4931"/>
<text text-anchor="middle" x="432.0206" y="-910.5328" font-family="Times,serif" font-size="14.00" fill="#000000">?:?, e:e, o:o, ɛ:e, ɔ:o</text>
</g>
<!-- 3, λ -->
<g id="node5" class="node">
<title>3, λ</title>
<ellipse fill="none" stroke="#000000" cx="731.7002" cy="-477.5961" rx="28.946" ry="28.946"/>
<ellipse fill="none" stroke="#000000" cx="731.7002" cy="-477.5961" rx="32.9752" ry="32.9752"/>
<text text-anchor="middle" x="731.7002" y="-473.3961" font-family="Times,serif" font-size="14.00" fill="#000000">3, λ</text>
</g>
<!-- 1, λ&#45;&gt;3, λ -->
<g id="edge10" class="edge">
<title>1, λ&#45;&gt;3, λ</title>
<path fill="none" stroke="#000000" d="M438.3649,-769.3783C453.1709,-697.7017 492.153,-528.6187 536.7573,-493.7961 580.035,-460.0092 646.3984,-462.4359 689.4291,-468.8116"/>
<polygon fill="#000000" stroke="#000000" points="689.1407,-472.3103 699.5711,-470.4511 690.2579,-465.4 689.1407,-472.3103"/>
<text text-anchor="middle" x="581.8604" y="-497.7961" font-family="Times,serif" font-size="14.00" fill="#000000">a:a</text>
</g>
<!-- 5, λ -->
<g id="node7" class="node">
<title>5, λ</title>
<ellipse fill="none" stroke="#000000" cx="731.7002" cy="-810.5961" rx="28.946" ry="28.946"/>
<ellipse fill="none" stroke="#000000" cx="731.7002" cy="-810.5961" rx="32.9752" ry="32.9752"/>
<text text-anchor="middle" x="731.7002" y="-806.3961" font-family="Times,serif" font-size="14.00" fill="#000000">5, λ</text>
</g>
<!-- 1, λ&#45;&gt;5, λ -->
<g id="edge13" class="edge">
<title>1, λ&#45;&gt;5, λ</title>
<path fill="none" stroke="#000000" d="M464.3893,-808.6246C484.9928,-812.7335 512.3075,-817.5105 536.7573,-819.5961 588.9729,-824.0504 649.2579,-819.8364 688.7987,-815.8029"/>
<polygon fill="#000000" stroke="#000000" points="689.307,-819.2687 698.8815,-814.7323 688.5678,-812.3079 689.307,-819.2687"/>
<text text-anchor="middle" x="581.8604" y="-824.7961" font-family="Times,serif" font-size="14.00" fill="#000000">i:i, u:u</text>
</g>
<!-- 1, λ&#45;&gt;7, λ -->
<g id="edge26" class="edge">
<title>1, λ&#45;&gt;7, λ</title>
<path fill="none" stroke="#000000" d="M463.7193,-792.0699C557.172,-763.9852 831.5881,-681.5169 936.3974,-650.0193"/>
<polygon fill="#000000" stroke="#000000" points="937.7211,-653.2763 946.2906,-647.0462 935.7064,-646.5724 937.7211,-653.2763"/>
<text text-anchor="middle" x="731.7002" y="-723.7961" font-family="Times,serif" font-size="14.00" fill="#000000">+:+</text>
</g>
<!-- 2, λ&#45;&gt;2, λ -->
<g id="edge3" class="edge">
<title>2, λ&#45;&gt;2, λ</title>
<path fill="none" stroke="#000000" d="M1213.2308,-1149.0157C1200.1638,-1183.9843 1205.7505,-1225.3328 1229.9907,-1225.3328 1252.0531,-1225.3328 1258.6631,-1191.0804 1249.8208,-1158.5607"/>
<polygon fill="#000000" stroke="#000000" points="1253.1446,-1157.4636 1246.7505,-1149.0157 1246.4808,-1159.6071 1253.1446,-1157.4636"/>
<text text-anchor="middle" x="1229.9907" y="-1229.5328" font-family="Times,serif" font-size="14.00" fill="#000000">?:?, ɛ:ɛ, ɔ:ɔ, e:ɛ, o:ɔ</text>
</g>
<!-- 4, λ -->
<g id="node6" class="node">
<title>4, λ</title>
<ellipse fill="none" stroke="#000000" cx="1531.2411" cy="-1069.5961" rx="28.946" ry="28.946"/>
<ellipse fill="none" stroke="#000000" cx="1531.2411" cy="-1069.5961" rx="32.9752" ry="32.9752"/>
<text text-anchor="middle" x="1531.2411" y="-1065.3961" font-family="Times,serif" font-size="14.00" fill="#000000">4, λ</text>
</g>
<!-- 2, λ&#45;&gt;4, λ -->
<g id="edge18" class="edge">
<title>2, λ&#45;&gt;4, λ</title>
<path fill="none" stroke="#000000" d="M1262.516,-1115.0898C1317.3121,-1105.8131 1427.9908,-1087.0758 1488.8163,-1076.7784"/>
<polygon fill="#000000" stroke="#000000" points="1489.5764,-1080.1996 1498.8518,-1075.0795 1488.4079,-1073.2978 1489.5764,-1080.1996"/>
<text text-anchor="middle" x="1380.6159" y="-1106.7961" font-family="Times,serif" font-size="14.00" fill="#000000">a:a</text>
</g>
<!-- 2, λ&#45;&gt;5, λ -->
<g id="edge17" class="edge">
<title>2, λ&#45;&gt;5, λ</title>
<path fill="none" stroke="#000000" d="M1202.0218,-1103.1959C1117.2916,-1050.483 863.4237,-892.5449 768.261,-833.3416"/>
<polygon fill="#000000" stroke="#000000" points="769.898,-830.238 759.5582,-827.9273 766.2003,-836.1816 769.898,-830.238"/>
<text text-anchor="middle" x="977.7361" y="-984.7961" font-family="Times,serif" font-size="14.00" fill="#000000">i:i, u:u</text>
</g>
<!-- 8, λ -->
<g id="node10" class="node">
<title>8, λ</title>
<ellipse fill="none" stroke="#000000" cx="1760.3944" cy="-998.5961" rx="28.946" ry="28.946"/>
<ellipse fill="none" stroke="#000000" cx="1760.3944" cy="-998.5961" rx="32.9752" ry="32.9752"/>
<text text-anchor="middle" x="1760.3944" y="-994.3961" font-family="Times,serif" font-size="14.00" fill="#000000">8, λ</text>
</g>
<!-- 2, λ&#45;&gt;8, λ -->
<g id="edge28" class="edge">
<title>2, λ&#45;&gt;8, λ</title>
<path fill="none" stroke="#000000" d="M1259.618,-1134.958C1319.2034,-1161.762 1456.9826,-1213.1723 1563.9779,-1172.5961 1637.4558,-1144.7308 1701.0926,-1075.4146 1734.7884,-1033.1612"/>
<polygon fill="#000000" stroke="#000000" points="1737.7012,-1035.1189 1741.1224,-1025.0917 1732.1948,-1030.7968 1737.7012,-1035.1189"/>
<text text-anchor="middle" x="1531.2411" y="-1189.7961" font-family="Times,serif" font-size="14.00" fill="#000000">+:+</text>
</g>
<!-- 3, λ&#45;&gt;0, λ -->
<g id="edge12" class="edge">
<title>3, λ&#45;&gt;0, λ</title>
<path fill="none" stroke="#000000" d="M725.4325,-445.2183C714.2081,-395.6117 686.0959,-300.7645 626.9635,-245.5961 172.2114,178.6714 370.6716,-59.98 286.0734,-134.5961 226.1775,-187.4247 192.0101,-760.9737 183.471,-923.7509"/>
<polygon fill="#000000" stroke="#000000" points="179.969,-923.7008 182.9456,-933.8689 186.9596,-924.0639 179.969,-923.7008"/>
<text text-anchor="middle" x="432.0206" y="-97.7961" font-family="Times,serif" font-size="14.00" fill="#000000">i:i, u:u</text>
</g>
<!-- 3, λ&#45;&gt;1, λ -->
<g id="edge11" class="edge">
<title>3, λ&#45;&gt;1, λ</title>
<path fill="none" stroke="#000000" d="M702.553,-492.8031C661.5583,-515.306 586.345,-560.7973 536.7573,-615.7961 497.0139,-659.8765 465.9797,-721.5947 448.3289,-761.5842"/>
<polygon fill="#000000" stroke="#000000" points="445.0084,-760.4438 444.2384,-771.0107 451.4299,-763.2304 445.0084,-760.4438"/>
<text text-anchor="middle" x="581.8604" y="-619.7961" font-family="Times,serif" font-size="14.00" fill="#000000">e:e, o:o, ɛ:e, ɔ:o</text>
</g>
<!-- 3, λ&#45;&gt;3, λ -->
<g id="edge4" class="edge">
<title>3, λ&#45;&gt;3, λ</title>
<path fill="none" stroke="#000000" d="M715.3764,-506.2821C702.8478,-541.1939 708.2891,-582.3328 731.7002,-582.3328 752.9165,-582.3328 759.3744,-548.5459 751.0738,-516.2262"/>
<polygon fill="#000000" stroke="#000000" points="754.3024,-514.8163 748.024,-506.2821 747.6101,-516.8688 754.3024,-514.8163"/>
<text text-anchor="middle" x="731.7002" y="-586.5328" font-family="Times,serif" font-size="14.00" fill="#000000">?:?, a:a</text>
</g>
<!-- 3, λ&#45;&gt;8, λ -->
<g id="edge29" class="edge">
<title>3, λ&#45;&gt;8, λ</title>
<path fill="none" stroke="#000000" d="M764.7165,-479.5712C811.9234,-482.2205 901.4396,-486.5961 977.7361,-486.5961 977.7361,-486.5961 977.7361,-486.5961 1531.2411,-486.5961 1634.0153,-486.5961 1723.0896,-834.6354 1751.1922,-956.8124"/>
<polygon fill="#000000" stroke="#000000" points="1747.7811,-957.5966 1753.4167,-966.5682 1754.606,-956.0404 1747.7811,-957.5966"/>
<text text-anchor="middle" x="1229.9907" y="-490.7961" font-family="Times,serif" font-size="14.00" fill="#000000">+:+</text>
</g>
<!-- 4, λ&#45;&gt;0, λ -->
<g id="edge20" class="edge">
<title>4, λ&#45;&gt;0, λ</title>
<path fill="none" stroke="#000000" d="M1527.4152,-1036.9695C1507.8553,-877.709 1412.768,-189.5961 1229.9907,-189.5961 432.0206,-189.5961 432.0206,-189.5961 432.0206,-189.5961 276.506,-189.5961 203.4103,-760.4718 185.701,-923.5632"/>
<polygon fill="#000000" stroke="#000000" points="182.1996,-923.3897 184.6143,-933.7057 189.1598,-924.1355 182.1996,-923.3897"/>
<text text-anchor="middle" x="854.7181" y="-193.7961" font-family="Times,serif" font-size="14.00" fill="#000000">i:i, u:u</text>
</g>
<!-- 4, λ&#45;&gt;2, λ -->
<g id="edge19" class="edge">
<title>4, λ&#45;&gt;2, λ</title>
<path fill="none" stroke="#000000" d="M1499.5623,-1060.1947C1460.1218,-1050.034 1391.0776,-1037.3559 1334.7274,-1053.7961 1308.4595,-1061.4598 1282.5027,-1077.9349 1263.0006,-1092.6051"/>
<polygon fill="#000000" stroke="#000000" points="1260.824,-1089.8638 1255.0557,-1098.7508 1265.107,-1095.4006 1260.824,-1089.8638"/>
<text text-anchor="middle" x="1380.6159" y="-1057.7961" font-family="Times,serif" font-size="14.00" fill="#000000">ɛ:ɛ, e:ɛ, ɔ:ɔ, o:ɔ</text>
</g>
<!-- 4, λ&#45;&gt;4, λ -->
<g id="edge5" class="edge">
<title>4, λ&#45;&gt;4, λ</title>
<path fill="none" stroke="#000000" d="M1515.8987,-1098.5487C1504.3067,-1133.403 1509.4208,-1174.3328 1531.2411,-1174.3328 1551.0158,-1174.3328 1557.0699,-1140.7176 1549.4033,-1108.473"/>
<polygon fill="#000000" stroke="#000000" points="1552.6835,-1107.2114 1546.5835,-1098.5487 1545.95,-1109.1246 1552.6835,-1107.2114"/>
<text text-anchor="middle" x="1531.2411" y="-1178.5328" font-family="Times,serif" font-size="14.00" fill="#000000">?:?, a:a</text>
</g>
<!-- 4, λ&#45;&gt;8, λ -->
<g id="edge30" class="edge">
<title>4, λ&#45;&gt;8, λ</title>
<path fill="none" stroke="#000000" d="M1562.6234,-1059.8728C1603.3065,-1047.2677 1674.351,-1025.2555 1719.2983,-1011.3292"/>
<polygon fill="#000000" stroke="#000000" points="1720.5081,-1014.6186 1729.0242,-1008.3157 1718.4364,-1007.9322 1720.5081,-1014.6186"/>
<text text-anchor="middle" x="1645.8178" y="-1039.7961" font-family="Times,serif" font-size="14.00" fill="#000000">+:+</text>
</g>
<!-- 5, λ&#45;&gt;0, λ -->
<g id="edge15" class="edge">
<title>5, λ&#45;&gt;0, λ</title>
<path fill="none" stroke="#000000" d="M701.8113,-824.5024C681.0534,-833.8961 652.6228,-846.2418 626.9635,-855.5961 483.0487,-908.0614 304.1565,-944.2961 223.8436,-959.112"/>
<polygon fill="#000000" stroke="#000000" points="222.8422,-955.737 213.6342,-960.9776 224.1005,-962.6229 222.8422,-955.737"/>
<text text-anchor="middle" x="432.0206" y="-925.7961" font-family="Times,serif" font-size="14.00" fill="#000000">i:i, u:u</text>
</g>
<!-- 5, λ&#45;&gt;1, λ -->
<g id="edge14" class="edge">
<title>5, λ&#45;&gt;1, λ</title>
<path fill="none" stroke="#000000" d="M699.2895,-804.4256C678.6697,-800.8185 651.3526,-796.6254 626.9635,-794.7961 574.7288,-790.8784 514.4478,-794.1774 474.9131,-797.4025"/>
<polygon fill="#000000" stroke="#000000" points="474.4993,-793.925 464.832,-798.2602 475.0928,-800.8998 474.4993,-793.925"/>
<text text-anchor="middle" x="581.8604" y="-798.7961" font-family="Times,serif" font-size="14.00" fill="#000000">e:e, o:o, ɛ:e, ɔ:o</text>
</g>
<!-- 5, λ&#45;&gt;5, λ -->
<g id="edge6" class="edge">
<title>5, λ&#45;&gt;5, λ</title>
<path fill="none" stroke="#000000" d="M715.3764,-839.2821C702.8478,-874.1939 708.2891,-915.3328 731.7002,-915.3328 752.9165,-915.3328 759.3744,-881.5459 751.0738,-849.2262"/>
<polygon fill="#000000" stroke="#000000" points="754.3024,-847.8163 748.024,-839.2821 747.6101,-849.8688 754.3024,-847.8163"/>
<text text-anchor="middle" x="731.7002" y="-919.5328" font-family="Times,serif" font-size="14.00" fill="#000000">?:?</text>
</g>
<!-- 5, λ&#45;&gt;6, λ -->
<g id="edge16" class="edge">
<title>5, λ&#45;&gt;6, λ</title>
<path fill="none" stroke="#000000" d="M755.6424,-833.3811C784.5287,-861.2749 834.0625,-910.414 872.9993,-955.7961 902.0365,-989.6399 932.4364,-1030.641 952.9581,-1059.2708"/>
<polygon fill="#000000" stroke="#000000" points="950.3407,-1061.6286 958.9973,-1067.7371 956.0394,-1057.5635 950.3407,-1061.6286"/>
<text text-anchor="middle" x="854.7181" y="-959.7961" font-family="Times,serif" font-size="14.00" fill="#000000">a:a</text>
</g>
<!-- 5, λ&#45;&gt;7, λ -->
<g id="edge27" class="edge">
<title>5, λ&#45;&gt;7, λ</title>
<path fill="none" stroke="#000000" d="M758.9337,-792.2096C787.4957,-772.8541 833.6186,-741.3941 872.9993,-713.5961 896.4469,-697.045 922.5747,-678.0869 942.8687,-663.2456"/>
<polygon fill="#000000" stroke="#000000" points="945.184,-665.8882 951.1841,-657.1561 941.0482,-660.2406 945.184,-665.8882"/>
<text text-anchor="middle" x="854.7181" y="-741.7961" font-family="Times,serif" font-size="14.00" fill="#000000">+:+</text>
</g>
<!-- 6, λ&#45;&gt;0, λ -->
<g id="edge21" class="edge">
<title>6, λ&#45;&gt;0, λ</title>
<path fill="none" stroke="#000000" d="M948.9862,-1110.7292C928.5065,-1121.2624 899.9441,-1134.0527 872.9993,-1139.5961 857.0827,-1142.8707 852.666,-1140.4204 836.4369,-1139.5961 640.6964,-1129.6549 591.9047,-1117.7955 399.2838,-1081.5961 348.5464,-1072.061 332.2164,-1078.7484 286.0734,-1055.5961 257.5169,-1041.2678 230.1806,-1017.5812 210.6,-998.2451"/>
<polygon fill="#000000" stroke="#000000" points="213.0161,-995.711 203.4889,-991.076 208.0462,-1000.6406 213.0161,-995.711"/>
<text text-anchor="middle" x="581.8604" y="-1125.7961" font-family="Times,serif" font-size="14.00" fill="#000000">i:i, u:u</text>
</g>
<!-- 6, λ&#45;&gt;1, λ -->
<g id="edge23" class="edge">
<title>6, λ&#45;&gt;1, λ</title>
<path fill="none" stroke="#000000" d="M948.8511,-1079.0875C857.1877,-1029.8726 572.8448,-877.206 469.7996,-821.8801"/>
<polygon fill="#000000" stroke="#000000" points="471.4414,-818.789 460.9753,-817.1422 468.1301,-824.9563 471.4414,-818.789"/>
<text text-anchor="middle" x="731.7002" y="-980.7961" font-family="Times,serif" font-size="14.00" fill="#000000">e:e, o:o</text>
</g>
<!-- 6, λ&#45;&gt;2, λ -->
<g id="edge24" class="edge">
<title>6, λ&#45;&gt;2, λ</title>
<path fill="none" stroke="#000000" d="M1010.4553,-1097.9685C1055.6328,-1102.625 1137.186,-1111.0307 1187.1675,-1116.1823"/>
<polygon fill="#000000" stroke="#000000" points="1187.0232,-1119.6859 1197.3294,-1117.2297 1187.741,-1112.7228 1187.0232,-1119.6859"/>
<text text-anchor="middle" x="1103.8634" y="-1112.7961" font-family="Times,serif" font-size="14.00" fill="#000000">ɛ:ɛ, ɔ:ɔ</text>
</g>
<!-- 6, λ&#45;&gt;6, λ -->
<g id="edge22" class="edge">
<title>6, λ&#45;&gt;6, λ</title>
<path fill="none" stroke="#000000" d="M961.4123,-1123.2821C948.8837,-1158.1939 954.3249,-1199.3328 977.7361,-1199.3328 998.9524,-1199.3328 1005.4103,-1165.5459 997.1097,-1133.2262"/>
<polygon fill="#000000" stroke="#000000" points="1000.3382,-1131.8163 994.0598,-1123.2821 993.6459,-1133.8688 1000.3382,-1131.8163"/>
<text text-anchor="middle" x="977.7361" y="-1203.5328" font-family="Times,serif" font-size="14.00" fill="#000000">a:a, ?:?</text>
</g>
<!-- 6, λ&#45;&gt;8, λ -->
<g id="edge31" class="edge">
<title>6, λ&#45;&gt;8, λ</title>
<path fill="none" stroke="#000000" d="M1009.3894,-1085.2634C1071.2635,-1067.4465 1212.8582,-1028.7641 1334.7274,-1010.7961 1406.8782,-1000.1584 1425.6181,-1003.1422 1498.5044,-1000.5961 1575.4508,-997.9082 1665.188,-997.9011 1717.1284,-998.2044"/>
<polygon fill="#000000" stroke="#000000" points="1717.2861,-1001.7054 1727.3087,-998.2707 1717.3317,-994.7056 1717.2861,-1001.7054"/>
<text text-anchor="middle" x="1380.6159" y="-1014.7961" font-family="Times,serif" font-size="14.00" fill="#000000">+:+</text>
</g>
<!-- 7, λ&#45;&gt;7, λ -->
<g id="edge32" class="edge">
<title>7, λ&#45;&gt;7, λ</title>
<path fill="none" stroke="#000000" d="M961.4123,-666.2821C948.8837,-701.1939 954.3249,-742.3328 977.7361,-742.3328 998.9524,-742.3328 1005.4103,-708.5459 997.1097,-676.2262"/>
<polygon fill="#000000" stroke="#000000" points="1000.3382,-674.8163 994.0598,-666.2821 993.6459,-676.8688 1000.3382,-674.8163"/>
<text text-anchor="middle" x="977.7361" y="-746.5328" font-family="Times,serif" font-size="14.00" fill="#000000">a:a, i:i, e:e, o:o, u:u, ɛ:e, ɔ:o, ?:?</text>
</g>
<!-- 8, λ&#45;&gt;8, λ -->
<g id="edge33" class="edge">
<title>8, λ&#45;&gt;8, λ</title>
<path fill="none" stroke="#000000" d="M1745.052,-1027.5487C1733.4599,-1062.403 1738.5741,-1103.3328 1760.3944,-1103.3328 1780.169,-1103.3328 1786.2231,-1069.7176 1778.5566,-1037.473"/>
<polygon fill="#000000" stroke="#000000" points="1781.8367,-1036.2114 1775.7368,-1027.5487 1775.1032,-1038.1246 1781.8367,-1036.2114"/>
<text text-anchor="middle" x="1760.3944" y="-1107.5328" font-family="Times,serif" font-size="14.00" fill="#000000">a:a, i:i, u:u, ?:?, ɛ:ɛ, ɔ:ɔ, e:ɛ, o:ɔ</text>
</g>
</g>
</svg>
