<?xml version="1.0" encoding="UTF-8" standalone="no"?>
<!DOCTYPE svg PUBLIC "-//W3C//DTD SVG 1.1//EN"
 "http://www.w3.org/Graphics/SVG/1.1/DTD/svg11.dtd">
<!-- Generated by graphviz version 2.40.1 (20161225.0304)
 -->
<!-- Title: fst Pages: 1 -->
<svg width="597pt" height="720pt"
 viewBox="0.00 0.00 596.74 720.00" xmlns="http://www.w3.org/2000/svg" xmlns:xlink="http://www.w3.org/1999/xlink">
<g id="graph0" class="graph" transform="scale(.7108 .7108) rotate(0) translate(36 976.9929)">
<title>fst</title>
<polygon fill="#ffffff" stroke="transparent" points="-36,36 -36,-976.9929 803.5785,-976.9929 803.5785,36 -36,36"/>
<!-- start -->
<g id="node1" class="node">
<title>start</title>
<ellipse fill="#000000" stroke="#000000" cx="1.8" cy="-423.4562" rx="1.8" ry="1.8"/>
</g>
<!-- 0, λ -->
<g id="node2" class="node">
<title>0, λ</title>
<ellipse fill="none" stroke="#000000" cx="181.3367" cy="-423.4562" rx="28.946" ry="28.946"/>
<ellipse fill="none" stroke="#000000" cx="181.3367" cy="-423.4562" rx="32.9752" ry="32.9752"/>
<text text-anchor="middle" x="181.3367" y="-419.2562" font-family="Times,serif" font-size="14.00" fill="#000000">0, λ</text>
</g>
<!-- start&#45;&gt;0, λ -->
<g id="edge19" class="edge">
<title>start&#45;&gt;0, λ</title>
<path fill="none" stroke="#000000" d="M3.8163,-423.4562C16.8447,-423.4562 90.1116,-423.4562 138.3556,-423.4562"/>
<polygon fill="#000000" stroke="#000000" points="138.5375,-426.9563 148.5375,-423.4562 138.5374,-419.9563 138.5375,-426.9563"/>
</g>
<!-- 0, λ&#45;&gt;0, λ -->
<g id="edge1" class="edge">
<title>0, λ&#45;&gt;0, λ</title>
<path fill="none" stroke="#000000" d="M167.1,-453.21C156.8372,-487.8872 161.5828,-528.1929 181.3367,-528.1929 199.2387,-528.1929 204.8145,-495.0902 198.0641,-463.0735"/>
<polygon fill="#000000" stroke="#000000" points="201.4153,-462.0488 195.5734,-453.21 194.6283,-463.7626 201.4153,-462.0488"/>
<text text-anchor="middle" x="181.3367" y="-532.3929" font-family="Times,serif" font-size="14.00" fill="#000000">?:?, i:i, u:u, a:a</text>
</g>
<!-- 1, λ -->
<g id="node3" class="node">
<title>1, λ</title>
<ellipse fill="none" stroke="#000000" cx="433.5914" cy="-631.4562" rx="28.946" ry="28.946"/>
<ellipse fill="none" stroke="#000000" cx="433.5914" cy="-631.4562" rx="32.9752" ry="32.9752"/>
<text text-anchor="middle" x="433.5914" y="-627.2562" font-family="Times,serif" font-size="14.00" fill="#000000">1, λ</text>
</g>
<!-- 0, λ&#45;&gt;1, λ -->
<g id="edge7" class="edge">
<title>0, λ&#45;&gt;1, λ</title>
<path fill="none" stroke="#000000" d="M206.9124,-444.545C252.9245,-482.4849 349.5994,-562.1994 400.5526,-604.2136"/>
<polygon fill="#000000" stroke="#000000" points="398.3809,-606.9593 408.323,-610.6208 402.8342,-601.5585 398.3809,-606.9593"/>
<text text-anchor="middle" x="307.464" y="-543.6562" font-family="Times,serif" font-size="14.00" fill="#000000">e:e, o:o</text>
</g>
<!-- 2, λ -->
<g id="node4" class="node">
<title>2, λ</title>
<ellipse fill="none" stroke="#000000" cx="433.5914" cy="-51.4562" rx="28.946" ry="28.946"/>
<ellipse fill="none" stroke="#000000" cx="433.5914" cy="-51.4562" rx="32.9752" ry="32.9752"/>
<text text-anchor="middle" x="433.5914" y="-47.2562" font-family="Times,serif" font-size="14.00" fill="#000000">2, λ</text>
</g>
<!-- 0, λ&#45;&gt;2, λ -->
<g id="edge8" class="edge">
<title>0, λ&#45;&gt;2, λ</title>
<path fill="none" stroke="#000000" d="M191.0606,-392.0476C206.4606,-345.3238 239.557,-256.0088 286.0734,-190.6562 318.2626,-145.4325 366.7459,-103.1217 399.2502,-77.2846"/>
<polygon fill="#000000" stroke="#000000" points="401.4482,-80.0088 407.1501,-71.0791 397.1241,-74.504 401.4482,-80.0088"/>
<text text-anchor="middle" x="307.464" y="-195.6562" font-family="Times,serif" font-size="14.00" fill="#000000">ɛ:ɛ, ɔ:ɔ</text>
</g>
<!-- 1, λ&#45;&gt;1, λ -->
<g id="edge2" class="edge">
<title>1, λ&#45;&gt;1, λ</title>
<path fill="none" stroke="#000000" d="M416.8315,-659.8758C403.7645,-694.8444 409.3511,-736.1929 433.5914,-736.1929 455.6538,-736.1929 462.2638,-701.9404 453.4215,-669.4208"/>
<polygon fill="#000000" stroke="#000000" points="456.7453,-668.3237 450.3512,-659.8758 450.0815,-670.4672 456.7453,-668.3237"/>
<text text-anchor="middle" x="433.5914" y="-740.3929" font-family="Times,serif" font-size="14.00" fill="#000000">?:?, e:e, o:o, ɛ:e, ɔ:o</text>
</g>
<!-- 3, λ -->
<g id="node5" class="node">
<title>3, λ</title>
<ellipse fill="none" stroke="#000000" cx="734.8418" cy="-819.4562" rx="28.946" ry="28.946"/>
<ellipse fill="none" stroke="#000000" cx="734.8418" cy="-819.4562" rx="32.9752" ry="32.9752"/>
<text text-anchor="middle" x="734.8418" y="-815.2562" font-family="Times,serif" font-size="14.00" fill="#000000">3, λ</text>
</g>
<!-- 1, λ&#45;&gt;3, λ -->
<g id="edge9" class="edge">
<title>1, λ&#45;&gt;3, λ</title>
<path fill="none" stroke="#000000" d="M452.9267,-658.256C472.1449,-683.2398 503.6902,-720.0649 538.3281,-743.4562 586.7775,-776.1744 651.3251,-797.6619 692.9871,-809.1893"/>
<polygon fill="#000000" stroke="#000000" points="692.2373,-812.6121 702.8038,-811.8382 694.061,-805.8538 692.2373,-812.6121"/>
<text text-anchor="middle" x="584.2166" y="-790.6562" font-family="Times,serif" font-size="14.00" fill="#000000">a:a</text>
</g>
<!-- 5, λ -->
<g id="node7" class="node">
<title>5, λ</title>
<ellipse fill="none" stroke="#000000" cx="734.8418" cy="-480.4562" rx="28.946" ry="28.946"/>
<ellipse fill="none" stroke="#000000" cx="734.8418" cy="-480.4562" rx="32.9752" ry="32.9752"/>
<text text-anchor="middle" x="734.8418" y="-476.2562" font-family="Times,serif" font-size="14.00" fill="#000000">5, λ</text>
</g>
<!-- 1, λ&#45;&gt;5, λ -->
<g id="edge12" class="edge">
<title>1, λ&#45;&gt;5, λ</title>
<path fill="none" stroke="#000000" d="M464.9535,-622.0451C504.6618,-609.5255 574.5863,-585.4433 630.1051,-555.4562 655.2435,-541.8783 681.3746,-523.1749 701.2475,-507.8428"/>
<polygon fill="#000000" stroke="#000000" points="703.6359,-510.4184 709.3602,-501.5031 699.3256,-504.9028 703.6359,-510.4184"/>
<text text-anchor="middle" x="584.2166" y="-599.6562" font-family="Times,serif" font-size="14.00" fill="#000000">i:i, u:u</text>
</g>
<!-- 2, λ&#45;&gt;2, λ -->
<g id="edge3" class="edge">
<title>2, λ&#45;&gt;2, λ</title>
<path fill="none" stroke="#000000" d="M416.8315,-79.8758C403.7645,-114.8444 409.3511,-156.1929 433.5914,-156.1929 455.6538,-156.1929 462.2638,-121.9404 453.4215,-89.4208"/>
<polygon fill="#000000" stroke="#000000" points="456.7453,-88.3237 450.3512,-79.8758 450.0815,-90.4672 456.7453,-88.3237"/>
<text text-anchor="middle" x="433.5914" y="-160.3929" font-family="Times,serif" font-size="14.00" fill="#000000">?:?, ɛ:ɛ, ɔ:ɔ, e:ɛ, o:ɔ</text>
</g>
<!-- 4, λ -->
<g id="node6" class="node">
<title>4, λ</title>
<ellipse fill="none" stroke="#000000" cx="734.8418" cy="-109.4562" rx="28.946" ry="28.946"/>
<ellipse fill="none" stroke="#000000" cx="734.8418" cy="-109.4562" rx="32.9752" ry="32.9752"/>
<text text-anchor="middle" x="734.8418" y="-105.2562" font-family="Times,serif" font-size="14.00" fill="#000000">4, λ</text>
</g>
<!-- 2, λ&#45;&gt;4, λ -->
<g id="edge16" class="edge">
<title>2, λ&#45;&gt;4, λ</title>
<path fill="none" stroke="#000000" d="M462.1381,-34.9718C501.1913,-14.6924 572.9449,14.3816 630.1051,-8.6562 662.7689,-21.821 690.9437,-50.585 709.8177,-74.0301"/>
<polygon fill="#000000" stroke="#000000" points="707.1827,-76.3424 716.098,-82.0668 712.6984,-72.0322 707.1827,-76.3424"/>
<text text-anchor="middle" x="584.2166" y="-13.6562" font-family="Times,serif" font-size="14.00" fill="#000000">a:a</text>
</g>
<!-- 2, λ&#45;&gt;5, λ -->
<g id="edge15" class="edge">
<title>2, λ&#45;&gt;5, λ</title>
<path fill="none" stroke="#000000" d="M452.4359,-78.2921C504.6873,-152.7013 651.4097,-361.6434 710.111,-445.2379"/>
<polygon fill="#000000" stroke="#000000" points="707.3932,-447.458 716.0044,-453.6305 713.1219,-443.4353 707.3932,-447.458"/>
<text text-anchor="middle" x="584.2166" y="-333.6562" font-family="Times,serif" font-size="14.00" fill="#000000">i:i, u:u</text>
</g>
<!-- 3, λ&#45;&gt;0, λ -->
<g id="edge11" class="edge">
<title>3, λ&#45;&gt;0, λ</title>
<path fill="none" stroke="#000000" d="M701.8238,-820.248C681.2066,-820.7024 654.1105,-821.227 630.1051,-821.4562 589.3172,-821.8456 577.5054,-832.8114 538.3281,-821.4562 468.8798,-801.3271 453.4459,-784.0787 400.8546,-734.4562 311.4691,-650.1164 236.1151,-524.2089 201.5708,-461.6223"/>
<polygon fill="#000000" stroke="#000000" points="204.4485,-459.5901 196.5771,-452.4985 198.3081,-462.951 204.4485,-459.5901"/>
<text text-anchor="middle" x="433.5914" y="-794.6562" font-family="Times,serif" font-size="14.00" fill="#000000">i:i, u:u</text>
</g>
<!-- 3, λ&#45;&gt;1, λ -->
<g id="edge10" class="edge">
<title>3, λ&#45;&gt;1, λ</title>
<path fill="none" stroke="#000000" d="M713.5703,-794.529C693.7078,-772.4139 662.3571,-740.3414 630.1051,-718.6562 580.3529,-685.2044 515.6709,-659.4019 474.3802,-644.8189"/>
<polygon fill="#000000" stroke="#000000" points="475.5151,-641.508 464.9203,-641.5297 473.2162,-648.1198 475.5151,-641.508"/>
<text text-anchor="middle" x="584.2166" y="-722.6562" font-family="Times,serif" font-size="14.00" fill="#000000">e:e, o:o, ɛ:e, ɔ:o</text>
</g>
<!-- 3, λ&#45;&gt;3, λ -->
<g id="edge4" class="edge">
<title>3, λ&#45;&gt;3, λ</title>
<path fill="none" stroke="#000000" d="M715.6157,-846.2828C699.1362,-881.5754 705.5449,-924.1929 734.8418,-924.1929 761.5065,-924.1929 769.2111,-888.8892 757.9554,-855.9364"/>
<polygon fill="#000000" stroke="#000000" points="761.0501,-854.2515 754.0679,-846.2828 754.5568,-856.8664 761.0501,-854.2515"/>
<text text-anchor="middle" x="734.8418" y="-928.3929" font-family="Times,serif" font-size="14.00" fill="#000000">?:?, a:a</text>
</g>
<!-- 4, λ&#45;&gt;0, λ -->
<g id="edge18" class="edge">
<title>4, λ&#45;&gt;0, λ</title>
<path fill="none" stroke="#000000" d="M715.2178,-135.8408C695.7908,-160.524 664.0997,-197.1395 630.1051,-221.4562 494.6848,-318.3234 305.3927,-384.7661 222.7152,-410.9735"/>
<polygon fill="#000000" stroke="#000000" points="221.4311,-407.7082 212.938,-414.0421 223.5273,-414.3869 221.4311,-407.7082"/>
<text text-anchor="middle" x="433.5914" y="-349.6562" font-family="Times,serif" font-size="14.00" fill="#000000">i:i, u:u</text>
</g>
<!-- 4, λ&#45;&gt;2, λ -->
<g id="edge17" class="edge">
<title>4, λ&#45;&gt;2, λ</title>
<path fill="none" stroke="#000000" d="M702.3792,-103.2061C647.5586,-92.6515 536.6777,-71.3035 475.862,-59.5946"/>
<polygon fill="#000000" stroke="#000000" points="476.3118,-56.117 465.8304,-57.6632 474.9884,-62.9907 476.3118,-56.117"/>
<text text-anchor="middle" x="584.2166" y="-93.6562" font-family="Times,serif" font-size="14.00" fill="#000000">ɛ:ɛ, e:ɛ, ɔ:ɔ, o:ɔ</text>
</g>
<!-- 4, λ&#45;&gt;4, λ -->
<g id="edge5" class="edge">
<title>4, λ&#45;&gt;4, λ</title>
<path fill="none" stroke="#000000" d="M715.6157,-136.2828C699.1362,-171.5754 705.5449,-214.1929 734.8418,-214.1929 761.5065,-214.1929 769.2111,-178.8892 757.9554,-145.9364"/>
<polygon fill="#000000" stroke="#000000" points="761.0501,-144.2515 754.0679,-136.2828 754.5568,-146.8664 761.0501,-144.2515"/>
<text text-anchor="middle" x="734.8418" y="-218.3929" font-family="Times,serif" font-size="14.00" fill="#000000">?:?, a:a</text>
</g>
<!-- 5, λ&#45;&gt;0, λ -->
<g id="edge14" class="edge">
<title>5, λ&#45;&gt;0, λ</title>
<path fill="none" stroke="#000000" d="M702.0479,-477.0791C606.9928,-467.2903 331.3101,-438.9005 224.4084,-427.8917"/>
<polygon fill="#000000" stroke="#000000" points="224.6093,-424.394 214.3034,-426.8511 223.8922,-431.3572 224.6093,-424.394"/>
<text text-anchor="middle" x="433.5914" y="-455.6562" font-family="Times,serif" font-size="14.00" fill="#000000">i:i, u:u, a:a</text>
</g>
<!-- 5, λ&#45;&gt;1, λ -->
<g id="edge13" class="edge">
<title>5, λ&#45;&gt;1, λ</title>
<path fill="none" stroke="#000000" d="M701.9889,-483.6492C661.3513,-488.7282 591.0864,-501.2716 538.3281,-530.6562 508.0885,-547.4986 480.1873,-575.2281 460.7991,-597.3442"/>
<polygon fill="#000000" stroke="#000000" points="457.9078,-595.3391 454.0527,-605.2077 463.2205,-599.8971 457.9078,-595.3391"/>
<text text-anchor="middle" x="584.2166" y="-534.6562" font-family="Times,serif" font-size="14.00" fill="#000000">e:e, o:o, ɛ:e, ɔ:o</text>
</g>
<!-- 5, λ&#45;&gt;5, λ -->
<g id="edge6" class="edge">
<title>5, λ&#45;&gt;5, λ</title>
<path fill="none" stroke="#000000" d="M715.6157,-507.2828C699.1362,-542.5754 705.5449,-585.1929 734.8418,-585.1929 761.5065,-585.1929 769.2111,-549.8892 757.9554,-516.9364"/>
<polygon fill="#000000" stroke="#000000" points="761.0501,-515.2515 754.0679,-507.2828 754.5568,-517.8664 761.0501,-515.2515"/>
<text text-anchor="middle" x="734.8418" y="-589.3929" font-family="Times,serif" font-size="14.00" fill="#000000">?:?</text>
</g>
</g>
</svg>
